<svg width="80" height="80" viewBox="0 0 80 80" fill="none" xmlns="http://www.w3.org/2000/svg">
<rect width="80" height="80" rx="16" fill="#FFFFFD"/>
<path d="M65.8038 20.9671C65.4865 20.9671 65.2112 20.8551 64.9778 20.6311C64.7538 20.4071 64.6418 20.1318 64.6418 19.8051C64.6418 19.4785 64.7538 19.2031 64.9778 18.9791C65.2112 18.7551 65.4865 18.6431 65.8038 18.6431C66.1305 18.6431 66.4058 18.7551 66.6298 18.9791C66.8538 19.2031 66.9658 19.4785 66.9658 19.8051C66.9658 20.1318 66.8538 20.4071 66.6298 20.6311C66.4058 20.8551 66.1305 20.9671 65.8038 20.9671ZM65.3278 17.2571C65.1972 16.2958 65.0945 15.1758 65.0198 13.8971C64.9452 12.6185 64.9078 11.4425 64.9078 10.3691H66.6998C66.6998 11.4425 66.6625 12.6185 66.5878 13.8971C66.5132 15.1758 66.4105 16.2958 66.2798 17.2571H65.3278Z" fill="#504339"/>
<path d="M57.3488 14.8358C58.0115 14.8358 58.6088 14.7798 59.1408 14.6678C59.6728 14.5465 60.0882 14.3878 60.3868 14.1918C60.6855 13.9958 60.8348 13.7811 60.8348 13.5478C60.8348 13.3331 60.6808 13.1325 60.3728 12.9458C60.0742 12.7498 59.6588 12.5958 59.1268 12.4838C58.5948 12.3625 58.0022 12.3018 57.3488 12.3018C56.6955 12.3018 56.1028 12.3625 55.5708 12.4838C55.0388 12.5958 54.6188 12.7498 54.3108 12.9458C54.0122 13.1325 53.8628 13.3331 53.8628 13.5478C53.8628 13.7811 54.0122 13.9958 54.3108 14.1918C54.6095 14.3878 55.0248 14.5465 55.5568 14.6678C56.0888 14.7798 56.6862 14.8358 57.3488 14.8358ZM57.3488 16.7958C57.0035 16.7958 56.6535 16.7818 56.2988 16.7538V18.6438H58.3988V16.7538C58.0535 16.7818 57.7035 16.7958 57.3488 16.7958ZM51.4968 18.6438H54.7588V16.4878C53.1348 16.0211 52.3228 15.0458 52.3228 13.5618C52.3228 12.3485 52.8222 11.5085 53.8208 11.0418C54.8195 10.5751 55.9955 10.3418 57.3488 10.3418C58.7022 10.3418 59.8782 10.5751 60.8768 11.0418C61.8755 11.5085 62.3748 12.3485 62.3748 13.5618C62.3748 15.0458 61.5628 16.0211 59.9388 16.4878V18.6438H63.2008V20.6038H51.4968V18.6438Z" fill="#504339"/>
<path d="M45.7159 20.7438V17.7898H44.1059C43.8259 18.4525 43.4479 18.9658 42.9719 19.3298C42.4959 19.6938 41.9826 19.8758 41.4319 19.8758C40.8906 19.8758 40.3959 19.7078 39.9479 19.3718C39.5093 19.0265 39.1546 18.5271 38.8839 17.8738C38.6226 17.2111 38.4919 16.4225 38.4919 15.5078C38.4919 15.3118 38.5106 14.9805 38.5479 14.5138C38.6226 13.6738 38.8093 12.9505 39.1079 12.3438C39.4159 11.7278 39.7986 11.2658 40.2559 10.9578C40.7133 10.6405 41.2079 10.4818 41.7399 10.4818C42.4026 10.4818 42.9813 10.7151 43.4759 11.1818C43.9706 11.6391 44.3066 12.3438 44.4839 13.2958H45.7159V10.3418H47.2559V20.7438H45.7159ZM48.3759 20.7438V10.3418H49.9159V20.7438H48.3759ZM41.4319 17.9858C41.9733 17.9858 42.3933 17.7618 42.6919 17.3138C42.9999 16.8565 43.1773 16.2125 43.2239 15.3818C43.2333 15.2231 43.2379 15.0085 43.2379 14.7378C43.2379 13.8791 43.1213 13.2725 42.8879 12.9178C42.6546 12.5538 42.2719 12.3718 41.7399 12.3718C41.1893 12.3718 40.7693 12.5818 40.4799 13.0018C40.1999 13.4125 40.0179 14.0005 39.9339 14.7658C39.9059 15.0738 39.8919 15.3585 39.8919 15.6198C39.8919 16.4411 40.0319 17.0431 40.3119 17.4258C40.5919 17.7991 40.9653 17.9858 41.4319 17.9858ZM45.7159 15.8298V15.2558H44.6099L44.5959 15.4798C44.5959 15.5451 44.5866 15.6618 44.5679 15.8298H45.7159Z" fill="#504339"/>
<path d="M25.739 18.6434H29.701V14.8914H31.241V18.6434H33.551C33.9803 17.3088 34.293 16.2354 34.489 15.4234C34.6943 14.6114 34.797 13.9814 34.797 13.5334C34.797 13.1414 34.7223 12.8614 34.573 12.6934C34.433 12.5254 34.2137 12.4414 33.915 12.4414H26.565V10.4814H34.195C35.6417 10.4814 36.365 11.3914 36.365 13.2114C36.365 14.5368 35.9963 16.3474 35.259 18.6434H37.443V20.6034H25.739V18.6434Z" fill="#504339"/>
<path d="M17.6622 16.5855V17.9015C19.4262 17.7895 20.9849 17.5842 22.3382 17.2855V10.3415H23.8782V20.7435H22.3382V19.2595C20.8076 19.5768 19.3282 19.7728 17.9002 19.8475C16.4722 19.9315 14.8389 19.9735 13.0002 19.9735V18.0135C14.3349 18.0135 15.3756 17.9995 16.1222 17.9715V16.5855H17.6622ZM21.0502 13.9955H17.6902C17.6249 14.2662 17.5316 14.5135 17.4102 14.7375C17.7556 14.9708 18.2829 15.0875 18.9922 15.0875C19.6269 15.0875 20.3129 15.0035 21.0502 14.8355V16.5295C20.5182 16.6135 20.0329 16.6555 19.5942 16.6555C18.3342 16.6555 17.3309 16.3428 16.5842 15.7175C15.7816 16.3522 14.6056 16.6695 13.0562 16.6695V14.9895C13.8216 14.9895 14.4982 14.9242 15.0862 14.7935C15.6836 14.6535 16.1269 14.3875 16.4162 13.9955H13.0562V12.3155H21.0502V13.9955ZM20.0702 11.9515C18.7076 11.9515 17.5549 11.9422 16.6122 11.9235C15.6696 11.9048 14.7222 11.8535 13.7702 11.7695V10.1875C14.7036 10.2715 15.6369 10.3228 16.5702 10.3415C17.5036 10.3602 18.6702 10.3695 20.0702 10.3695V11.9515Z" fill="#504339"/>
<path d="M66.9658 19.8057C66.9657 19.4793 66.8536 19.2043 66.6299 18.9805C66.4059 18.7565 66.1304 18.6436 65.8037 18.6436C65.4864 18.6436 65.2109 18.7565 64.9775 18.9805C64.7538 19.2043 64.6417 19.4793 64.6416 19.8057C64.6416 20.1322 64.7537 20.4079 64.9775 20.6318C65.2109 20.8558 65.4864 20.9678 65.8037 20.9678C66.0894 20.9678 66.3358 20.8823 66.543 20.7109L66.6299 20.6318C66.8259 20.4358 66.9365 20.2005 66.9609 19.9258L66.9658 19.8057ZM64.9082 10.3701C64.9082 11.4434 64.9449 12.6198 65.0195 13.8984C65.0942 15.1769 65.1975 16.2966 65.3281 17.2578H66.2793C66.4099 16.2966 66.5132 15.1769 66.5879 13.8984C66.6626 12.6198 66.7002 11.4434 66.7002 10.3701H64.9082ZM68.9658 19.8057C68.9658 20.6442 68.6558 21.434 68.0439 22.0459C67.432 22.6579 66.6423 22.9678 65.8037 22.9678C64.9592 22.9678 64.1905 22.6489 63.5928 22.0752L63.5635 22.0459C63.1507 21.6331 62.8796 21.1385 62.7441 20.6035H63.2012V18.6436H62.8574C62.9795 18.3301 63.1527 18.0354 63.3779 17.7686L63.3457 17.5273C63.2064 16.5023 63.1002 15.3293 63.0234 14.0146C62.9469 12.7044 62.9082 11.4889 62.9082 10.3701V8.37012H68.7002V10.3701C68.7002 11.4889 68.6605 12.7044 68.584 14.0146C68.5072 15.3293 68.401 16.5023 68.2617 17.5273L68.2285 17.7676C68.7177 18.3468 68.9657 19.0565 68.9658 19.8057Z" fill="white"/>
<path d="M57.3486 8.3418C58.9294 8.3418 60.4066 8.61503 61.7236 9.23047C62.5381 9.61112 63.2395 10.1921 63.7197 11C64.1927 11.7956 64.3749 12.6816 64.375 13.5615C64.375 14.6705 64.0664 15.7458 63.3369 16.6436H65.2012V18.8086C65.123 18.8558 65.048 18.9128 64.9775 18.9805C64.7538 19.2043 64.6417 19.4793 64.6416 19.8057C64.6416 20.1322 64.7537 20.4079 64.9775 20.6318C65.0479 20.6994 65.1232 20.7556 65.2012 20.8027V22.6035H49.4971V20.7441H49.916V16.6436H51.3604C50.631 15.7459 50.3232 14.6704 50.3232 13.5615C50.3233 12.6816 50.5055 11.7956 50.9785 11C51.4588 10.1921 52.1601 9.61109 52.9746 9.23047C54.2915 8.61513 55.7681 8.34182 57.3486 8.3418V10.3418C55.9956 10.3418 54.8198 10.5755 53.8213 11.042C52.8228 11.5086 52.3234 12.3484 52.3232 13.5615C52.3232 15.0455 53.1348 16.0216 54.7588 16.4883V18.6436H51.4971V20.6035H63.2012V18.6436H59.9385V16.4883C61.5625 16.0216 62.375 15.0455 62.375 13.5615C62.3749 12.3485 61.8754 11.5086 60.877 11.042C59.8783 10.5753 58.702 10.3418 57.3486 10.3418V8.3418ZM58.3984 18.6436H56.2988V16.7539C56.6534 16.7819 57.0034 16.7959 57.3486 16.7959C57.7032 16.7959 58.0532 16.7819 58.3984 16.7539V18.6436ZM57.3486 12.3018C58.002 12.3018 58.595 12.363 59.127 12.4844C59.6589 12.5964 60.0744 12.7503 60.373 12.9463C60.6808 13.1329 60.8349 13.3333 60.835 13.5479C60.835 13.7812 60.6854 13.9964 60.3867 14.1924C60.0881 14.3883 59.6725 14.5467 59.1406 14.668C58.6087 14.7799 58.0112 14.8359 57.3486 14.8359C56.6861 14.8359 56.0886 14.78 55.5566 14.668C55.0247 14.5466 54.6092 14.3884 54.3105 14.1924C54.0119 13.9964 53.8633 13.7812 53.8633 13.5479C53.8633 13.3333 54.0122 13.1329 54.3105 12.9463C54.6185 12.7503 55.0393 12.5964 55.5713 12.4844C56.1031 12.3631 56.6955 12.3018 57.3486 12.3018Z" fill="white"/>
<path d="M45.7158 10.3418V13.2959H44.4844C44.307 12.3439 43.9702 11.639 43.4756 11.1816C42.9811 10.7153 42.4026 10.4825 41.7402 10.4824C41.2082 10.4824 40.7132 10.6407 40.2559 10.958C39.7986 11.2659 39.4164 11.728 39.1084 12.3438C38.8098 12.9503 38.6225 13.6738 38.5479 14.5137C38.5105 14.9802 38.4922 15.3118 38.4922 15.5078C38.4922 16.4225 38.6225 17.2114 38.8838 17.874C39.1545 18.5274 39.5096 19.0267 39.9482 19.3721C40.3961 19.7079 40.8905 19.8759 41.4316 19.876C41.9822 19.876 42.4957 19.694 42.9717 19.3301C43.4476 18.9661 43.8255 18.4526 44.1055 17.79H45.7158V20.7441H47.2559V10.3418H45.7158ZM41.7402 12.3721C42.272 12.3721 42.6544 12.5541 42.8877 12.918C43.121 13.2726 43.2383 13.8796 43.2383 14.7383C43.2383 15.0087 43.233 15.2232 43.2236 15.3818C43.177 16.2125 43.0004 16.8571 42.6924 17.3145C42.3937 17.7624 41.9729 17.9863 41.4316 17.9863C40.9651 17.9862 40.5915 17.799 40.3115 17.4258C40.0317 17.0431 39.8916 16.4411 39.8916 15.6201C39.8916 15.3588 39.9056 15.0736 39.9336 14.7656C40.0176 14.0006 40.1996 13.4126 40.4795 13.002C40.7688 12.582 41.1896 12.3721 41.7402 12.3721ZM45.7158 15.2559V15.8301H44.5684C44.587 15.6625 44.5957 15.5459 44.5957 15.4805L44.6104 15.2559H45.7158ZM48.376 20.7441H49.916V10.3418H48.376V20.7441ZM51.916 18.6436H51.4971V20.6035H51.916V22.7441H43.7158V21.2344C43.0326 21.643 42.2642 21.876 41.4316 21.876C40.4419 21.8759 39.5293 21.5577 38.748 20.9717L38.7295 20.958L38.7109 20.9434C38.1858 20.53 37.7717 20.0205 37.4434 19.458V18.6436H37.0381C37.0375 18.6422 37.0367 18.641 37.0361 18.6396L37.0293 18.624L37.0234 18.6074C36.648 17.6552 36.4922 16.6054 36.4922 15.5078C36.4922 15.2239 36.5173 14.8217 36.5547 14.3545V14.3457L36.5557 14.3369C36.647 13.3099 36.8828 12.3359 37.3135 11.4609L37.3193 11.4492C37.7413 10.6054 38.3257 9.84991 39.125 9.30762C39.8984 8.77359 40.7851 8.48242 41.7402 8.48242C42.4485 8.48246 43.1131 8.63852 43.7158 8.93555V8.3418H51.916V18.6436Z" fill="white"/>
<path d="M34.1953 8.48242C35.3644 8.48248 36.5562 8.87262 37.3887 9.91992C38.1514 10.8797 38.3652 12.0906 38.3652 13.2119C38.3652 14.2111 38.1984 15.362 37.8975 16.6436H38.5693C38.6337 17.0931 38.7376 17.5034 38.8838 17.874C39.0414 18.2544 39.2289 18.5815 39.4434 18.8574V22.6035H23.7393V20.7441H23.8779V16.6436H27.7012V14.4424H24.5654V8.48242H34.1953ZM29.7012 18.6436H25.7393V20.6035H37.4434V18.6436H35.2588C35.9961 16.3477 36.3652 14.5372 36.3652 13.2119C36.3652 11.3921 35.6418 10.4825 34.1953 10.4824H26.5654V12.4424H33.915C34.2137 12.4424 34.4332 12.5263 34.5732 12.6943C34.7224 12.8624 34.7969 13.1424 34.7969 13.5342C34.7968 13.9821 34.6945 14.612 34.4893 15.4238C34.2933 16.2358 33.9801 17.309 33.5508 18.6436H31.2412V14.8916H29.7012V18.6436Z" fill="white"/>
<path d="M22.3379 10.3418V17.2861C20.9846 17.5848 19.426 17.7904 17.6621 17.9023V16.5859H16.1221V17.9717C15.3754 17.9997 14.3346 18.0137 13 18.0137V19.9736C14.8387 19.9736 16.4724 19.9317 17.9004 19.8477C19.3282 19.773 20.8074 19.5771 22.3379 19.2598V20.7441H23.8779V10.3418H22.3379ZM13.0557 12.3164V13.9961H16.416C16.1267 14.388 15.6832 14.654 15.0859 14.7939C14.498 14.9246 13.8209 14.9902 13.0557 14.9902V16.6699C14.605 16.6699 15.7813 16.3524 16.584 15.7178C17.3306 16.343 18.3339 16.6562 19.5938 16.6562C20.0323 16.6562 20.5179 16.6142 21.0498 16.5303V14.8359C20.3126 15.0039 19.6268 15.0879 18.9922 15.0879C18.283 15.0879 17.7555 14.9715 17.4102 14.7383C17.5315 14.5143 17.6251 14.2668 17.6904 13.9961H21.0498V12.3164H13.0557ZM13.7705 11.7695C14.7224 11.8535 15.6697 11.9052 16.6123 11.9238C17.5549 11.9425 18.7077 11.9521 20.0703 11.9521V10.3701C18.6704 10.3701 17.5036 10.3605 16.5703 10.3418C15.6371 10.3231 14.7037 10.2725 13.7705 10.1885V11.7695ZM25.8779 18.6436H25.7393V20.6035H25.8779V22.7441H20.3379V21.6279C19.5498 21.7322 18.7722 21.8056 18.0049 21.8457L18.0039 21.8447C16.531 21.931 14.8617 21.9736 13 21.9736H11V16.0137H11.0557V10.3164H11.7705V8L13.9492 8.19629C14.8364 8.27614 15.7237 8.32504 16.6104 8.34277C17.5255 8.36107 18.6779 8.37012 20.0703 8.37012H20.3379V8.3418H25.8779V18.6436Z" fill="white"/>
<g filter="url(#filter0_d_249_3374)">
<path d="M40.5495 35.6736C45.3279 30.7755 53.0752 30.7755 57.8537 35.6736C62.6321 40.5716 62.6321 48.5129 57.8537 53.411L39.7188 72L21.5838 53.411C16.8054 48.5129 16.8054 40.5716 21.5838 35.6736C26.3622 30.7755 34.1096 30.7755 38.888 35.6736L39.7188 36.5251L40.5495 35.6736Z" fill="url(#paint0_radial_249_3374)"/>
<path d="M39.8789 35.0186C45.0252 29.7439 53.3782 29.7438 58.5244 35.0186C63.6581 40.2808 63.6581 48.8032 58.5244 54.0654L40.3896 72.6543C40.2132 72.8351 39.9714 72.9375 39.7188 72.9375C39.4661 72.9375 39.2243 72.8351 39.0479 72.6543L20.9131 54.0654C15.7794 48.8032 15.7794 40.2808 20.9131 35.0186C26.0593 29.7438 34.4123 29.7439 39.5586 35.0186L39.7188 35.1826L39.8789 35.0186Z" stroke="white" stroke-width="1.875" stroke-linecap="round" stroke-linejoin="round"/>
</g>
<g filter="url(#filter1_f_249_3374)">
<path d="M30.1875 53.517H34.9256L36.2478 49.3756L38.121 58.25L40.2146 46.0625L42.3082 56.1201L44.0712 51.0322L45.5036 53.517H49.25" stroke="#FF8C4D" stroke-width="0.9375" stroke-linejoin="round"/>
</g>
<path d="M42.0625 44.8125C42.0625 46.0206 40.8733 47 39.4062 47C37.9392 47 36.75 46.0206 36.75 44.8125" stroke="#504339" stroke-width="0.9375" stroke-linecap="round" stroke-linejoin="round"/>
<path d="M34.875 42C34.875 41.4822 34.4553 41.0625 33.9375 41.0625C33.4197 41.0625 33 41.4822 33 42" stroke="#504339" stroke-width="0.9375" stroke-linecap="round"/>
<path d="M45.5 42C45.5 41.4822 45.0803 41.0625 44.5625 41.0625C44.0447 41.0625 43.625 41.4822 43.625 42" stroke="#504339" stroke-width="0.9375" stroke-linecap="round"/>
<defs>
<filter id="filter0_d_249_3374" x="16.125" y="30.125" width="48.4375" height="45" filterUnits="userSpaceOnUse" color-interpolation-filters="sRGB">
<feFlood flood-opacity="0" result="BackgroundImageFix"/>
<feColorMatrix in="SourceAlpha" type="matrix" values="0 0 0 0 0 0 0 0 0 0 0 0 0 0 0 0 0 0 127 0" result="hardAlpha"/>
<feOffset dx="0.625" dy="0.625"/>
<feGaussianBlur stdDeviation="0.3125"/>
<feComposite in2="hardAlpha" operator="out"/>
<feColorMatrix type="matrix" values="0 0 0 0 0 0 0 0 0 0 0 0 0 0 0 0 0 0 0.12 0"/>
<feBlend mode="normal" in2="BackgroundImageFix" result="effect1_dropShadow_249_3374"/>
<feBlend mode="normal" in="SourceGraphic" in2="effect1_dropShadow_249_3374" result="shape"/>
</filter>
<filter id="filter1_f_249_3374" x="28.9375" y="44.3438" width="21.5625" height="15.625" filterUnits="userSpaceOnUse" color-interpolation-filters="sRGB">
<feFlood flood-opacity="0" result="BackgroundImageFix"/>
<feBlend mode="normal" in="SourceGraphic" in2="BackgroundImageFix" result="shape"/>
<feGaussianBlur stdDeviation="0.625" result="effect1_foregroundBlur_249_3374"/>
</filter>
<radialGradient id="paint0_radial_249_3374" cx="0" cy="0" r="1" gradientUnits="userSpaceOnUse" gradientTransform="translate(39.7188 52) rotate(90) scale(20 21.7188)">
<stop stop-color="#FFA565"/>
<stop offset="1" stop-color="#FFE499"/>
</radialGradient>
</defs>
</svg>
