<svg width="80" height="80" viewBox="0 0 80 80" fill="none" xmlns="http://www.w3.org/2000/svg">
<rect width="80" height="80" rx="16" fill="#FFFFFD"/>
<path d="M59.7131 15.1639C60.3757 15.1639 60.9731 15.1079 61.5051 14.9959C62.0371 14.8746 62.4524 14.7159 62.7511 14.5199C63.0497 14.3239 63.1991 14.1093 63.1991 13.8759C63.1991 13.6613 63.0451 13.4606 62.7371 13.2739C62.4384 13.0779 62.0231 12.9239 61.4911 12.8119C60.9591 12.6906 60.3664 12.6299 59.7131 12.6299C59.0597 12.6299 58.4671 12.6906 57.9351 12.8119C57.4031 12.9239 56.9831 13.0779 56.6751 13.2739C56.3764 13.4606 56.2271 13.6613 56.2271 13.8759C56.2271 14.1093 56.3764 14.3239 56.6751 14.5199C56.9737 14.7159 57.3891 14.8746 57.9211 14.9959C58.4531 15.1079 59.0504 15.1639 59.7131 15.1639ZM59.7131 17.1239C59.3677 17.1239 59.0177 17.1099 58.6631 17.0819V18.9719H60.7631V17.0819C60.4178 17.1099 60.0677 17.1239 59.7131 17.1239ZM53.8611 18.9719H57.1231V16.8159C55.4991 16.3493 54.6871 15.3739 54.6871 13.8899C54.6871 12.6766 55.1864 11.8366 56.1851 11.3699C57.1837 10.9033 58.3597 10.6699 59.7131 10.6699C61.0664 10.6699 62.2424 10.9033 63.2411 11.3699C64.2397 11.8366 64.7391 12.6766 64.7391 13.8899C64.7391 15.3739 63.9271 16.3493 62.3031 16.8159V18.9719H65.5651V20.9319H53.8611V18.9719Z" fill="#504339"/>
<path d="M47.6602 21.072V10.67H49.2002V14.674H50.7402V10.67H52.2802V21.072H50.7402V16.634H49.2002V21.072H47.6602ZM40.7302 13.568C41.9062 13.568 42.9469 13.736 43.8522 14.072C44.7576 13.736 45.7982 13.568 46.9742 13.568V15.43C46.6569 15.43 46.2742 15.4533 45.8262 15.5C46.1716 16.0133 46.3442 16.6153 46.3442 17.306C46.3442 17.9593 46.2322 18.5146 46.0082 18.972C45.7842 19.42 45.4856 19.756 45.1122 19.98C44.7389 20.1946 44.3189 20.302 43.8522 20.302C43.3856 20.302 42.9609 20.19 42.5782 19.966C42.2049 19.742 41.9062 19.406 41.6822 18.958C41.4582 18.5006 41.3462 17.95 41.3462 17.306C41.3462 16.6153 41.5189 16.0133 41.8642 15.5C41.5189 15.4533 41.1409 15.43 40.7302 15.43V13.568ZM46.1342 12.378C45.1262 12.378 44.2722 12.364 43.5722 12.336C42.8816 12.308 42.1816 12.2333 41.4722 12.112V10.376C42.1722 10.4973 42.8629 10.5766 43.5442 10.614C44.2349 10.642 45.0982 10.656 46.1342 10.656V12.378ZM43.0122 17.306C43.0122 17.6513 43.1009 17.9313 43.2782 18.146C43.4649 18.3513 43.6562 18.454 43.8522 18.454C44.0482 18.454 44.2349 18.3513 44.4122 18.146C44.5989 17.9313 44.6922 17.6513 44.6922 17.306C44.6922 16.8113 44.4122 16.4053 43.8522 16.088C43.2922 16.4053 43.0122 16.8113 43.0122 17.306Z" fill="#504339"/>
<path d="M37.5672 18.0619C38.3232 18.3233 38.7012 18.6779 38.7012 19.1259C38.7012 19.1726 38.6919 19.2426 38.6732 19.3359C38.5426 19.9893 38.0152 20.4653 37.0912 20.7639C36.1672 21.0626 35.0939 21.2119 33.8712 21.2119C32.8166 21.2119 31.7852 21.0999 30.7772 20.8759C29.7786 20.6519 29.1906 20.2833 29.0132 19.7699C28.9666 19.6486 28.9432 19.5086 28.9432 19.3499C28.9432 18.4633 29.7646 17.8286 31.4072 17.4459C33.0592 17.0633 34.9772 16.8019 37.1612 16.6619V15.6679C35.6399 16.3586 33.5726 16.7039 30.9592 16.7039C30.0539 16.7039 29.3492 16.5826 28.8452 16.3399C28.3412 16.0973 28.0892 15.7753 28.0892 15.3739C28.0892 15.1033 28.2059 14.8093 28.4392 14.4919H27.9072V13.0079L33.7452 13.0219C33.9972 12.8166 34.1232 12.6673 34.1232 12.5739C34.1232 12.4806 34.0252 12.4153 33.8292 12.3779C33.6332 12.3313 33.3206 12.3079 32.8912 12.3079L27.9072 12.2939V10.8099H32.8912C33.7966 10.8193 34.4779 10.9406 34.9352 11.1739C35.4019 11.4073 35.6352 11.7153 35.6352 12.0979C35.6352 12.3873 35.4999 12.6953 35.2292 13.0219H35.6912V14.5059L29.8672 14.4919C29.6992 14.6693 29.6152 14.8093 29.6152 14.9119C29.6152 15.0239 29.7226 15.1033 29.9372 15.1499C30.1519 15.1966 30.4926 15.2199 30.9592 15.2199C33.6192 15.2199 35.6866 14.8699 37.1612 14.1699V10.6699H38.7012V12.6999H40.0312V14.6599H38.7012V17.9779L37.5672 18.0619ZM30.7632 19.3779C31.1646 19.5366 31.9019 19.6159 32.9752 19.6159C33.3019 19.6159 33.7079 19.6066 34.1932 19.5879C34.9772 19.5599 35.6726 19.4899 36.2792 19.3779C36.8952 19.2659 37.2032 19.0979 37.2032 18.8739C37.2032 18.6033 36.8579 18.3606 36.1672 18.1459C33.1059 18.3513 31.2812 18.6079 30.6932 18.9159C30.5626 18.9906 30.4972 19.0606 30.4972 19.1259C30.4972 19.2099 30.5859 19.2939 30.7632 19.3779Z" fill="#504339"/>
<path d="M24.2825 21.0719V10.6699H25.8225V14.8839H27.1525V16.8439H25.8225V21.0719H24.2825ZM22.9945 20.1899C22.3598 20.2086 21.6832 20.0219 20.9645 19.6299C20.2458 19.2379 19.5972 18.7059 19.0185 18.0339C18.4212 18.7059 17.7585 19.2379 17.0305 19.6299C16.3025 20.0219 15.6258 20.2086 15.0005 20.1899V17.9919C15.4485 18.0106 15.9478 17.8846 16.4985 17.6139C17.0492 17.3433 17.5485 16.9793 17.9965 16.5219C17.5392 15.6259 17.3105 14.7066 17.3105 13.7639C17.3105 13.1479 17.3992 12.6066 17.5765 12.1399C17.7632 11.6639 17.9918 11.2999 18.2625 11.0479C18.5332 10.7959 18.7945 10.6699 19.0465 10.6699C19.2985 10.6699 19.5552 10.7959 19.8165 11.0479C20.0872 11.2999 20.3112 11.6639 20.4885 12.1399C20.6752 12.6066 20.7685 13.1479 20.7685 13.7639C20.7685 14.7066 20.5305 15.6306 20.0545 16.5359C20.4838 16.9933 20.9692 17.3573 21.5105 17.6279C22.0518 17.8893 22.5465 18.0106 22.9945 17.9919V20.1899ZM18.8085 13.7499C18.8085 14.1606 18.8878 14.5666 19.0465 14.9679C19.2052 14.5666 19.2845 14.1606 19.2845 13.7499C19.2845 13.3299 19.2565 13.0266 19.2005 12.8399C19.1445 12.6439 19.0932 12.5459 19.0465 12.5459C18.9998 12.5459 18.9485 12.6486 18.8925 12.8539C18.8365 13.0499 18.8085 13.3486 18.8085 13.7499Z" fill="#504339"/>
<path d="M59.7129 8.66992C61.2936 8.66992 62.7708 8.94315 64.0879 9.55859C64.9024 9.93925 65.6037 10.5202 66.084 11.3281C66.5569 12.1238 66.7392 13.0097 66.7393 13.8896C66.7393 14.9986 66.4306 16.074 65.7012 16.9717H67.5654V22.9316H51.8613V21.0723H52.2803V16.9717H53.7246C52.9953 16.074 52.6875 14.9985 52.6875 13.8896C52.6876 13.0097 52.8698 12.1238 53.3428 11.3281C53.8231 10.5203 54.5243 9.93922 55.3389 9.55859C56.6558 8.94325 58.1323 8.66995 59.7129 8.66992V10.6699C58.3598 10.6699 57.1841 10.9036 56.1855 11.3701C55.187 11.8367 54.6876 12.6766 54.6875 13.8896C54.6875 15.3736 55.499 16.3497 57.123 16.8164V18.9717H53.8613V20.9316H65.5654V18.9717H62.3027V16.8164C63.9267 16.3497 64.7393 15.3736 64.7393 13.8896C64.7391 12.6766 64.2397 11.8367 63.2412 11.3701C62.2425 10.9035 61.0662 10.6699 59.7129 10.6699V8.66992ZM60.7627 18.9717H58.6631V17.082C59.0177 17.11 59.3676 17.124 59.7129 17.124C60.0674 17.124 60.4175 17.11 60.7627 17.082V18.9717ZM59.7129 12.6299C60.3662 12.6299 60.9592 12.6912 61.4912 12.8125C62.0231 12.9245 62.4387 13.0784 62.7373 13.2744C63.0451 13.461 63.1991 13.6614 63.1992 13.876C63.1992 14.1093 63.0496 14.3245 62.751 14.5205C62.4523 14.7164 62.0367 14.8748 61.5049 14.9961C60.9729 15.1081 60.3755 15.1641 59.7129 15.1641C59.0503 15.1641 58.4528 15.1081 57.9209 14.9961C57.389 14.8748 56.9734 14.7165 56.6748 14.5205C56.3762 14.3245 56.2275 14.1093 56.2275 13.876C56.2276 13.6614 56.3764 13.461 56.6748 13.2744C56.9828 13.0784 57.4035 12.9245 57.9355 12.8125C58.4674 12.6912 59.0598 12.6299 59.7129 12.6299Z" fill="white"/>
<path d="M46.9746 13.5684C45.7987 13.5684 44.7578 13.7363 43.8525 14.0723C42.9473 13.7363 41.9064 13.5684 40.7305 13.5684V15.4297C41.141 15.4297 41.519 15.4533 41.8643 15.5C41.519 16.0132 41.3468 16.6152 41.3467 17.3057C41.3467 17.9497 41.4586 18.5007 41.6826 18.958C41.9066 19.4059 42.2049 19.7418 42.5781 19.9658C42.9608 20.1898 43.3859 20.3018 43.8525 20.3018C44.319 20.3017 44.7391 20.1951 45.1123 19.9805C45.4856 19.7565 45.7838 19.4197 46.0078 18.9717C46.2317 18.5144 46.3438 17.9589 46.3438 17.3057C46.3437 16.6152 46.1714 16.0132 45.8262 15.5C46.2742 15.4533 46.6573 15.4297 46.9746 15.4297V13.5684ZM43.8525 16.0879C44.4123 16.4051 44.6922 16.8113 44.6924 17.3057L44.6875 17.4326C44.6671 17.7205 44.5754 17.9587 44.4121 18.1465C44.2349 18.3515 44.0483 18.454 43.8525 18.4541C43.6566 18.4541 43.4649 18.3516 43.2783 18.1465C43.101 17.9318 43.0117 17.651 43.0117 17.3057C43.0119 16.8112 43.2927 16.4051 43.8525 16.0879ZM43.6182 16.4736L43.5234 16.6162C43.4742 16.6894 43.4296 16.7773 43.3975 16.8896L43.6348 16.4707C43.6292 16.4715 43.6237 16.4727 43.6182 16.4736ZM44.2646 16.8164C44.2359 16.7386 44.2048 16.6723 44.167 16.6162L44.0703 16.4717L44.2646 16.8164ZM49.2002 10.6699H47.6602V21.0723H49.2002V16.6338H50.7402V21.0723H52.2803V10.6699H50.7402V14.6738H49.2002V10.6699ZM41.4727 12.1123C42.1818 12.2336 42.8818 12.3079 43.5723 12.3359C44.2722 12.3639 45.126 12.3779 46.1338 12.3779V10.6562C45.098 10.6562 44.2345 10.6423 43.5439 10.6143C42.8628 10.5769 42.1724 10.4973 41.4727 10.376V12.1123ZM54.2803 18.9717H53.8613V20.9316H54.2803V23.0723H45.6602V21.9365C45.0846 22.1845 44.4745 22.3017 43.8525 22.3018C43.0501 22.3018 42.2729 22.1053 41.5674 21.6924L41.5586 21.6865L41.5488 21.6807C40.8028 21.2329 40.2614 20.5882 39.8936 19.8525L39.8896 19.8457L39.8857 19.8379C39.5154 19.0816 39.3634 18.2585 39.3496 17.4297H38.7305V14.6602H40.0312V12.7002H38.7305V11.5684H39.4727V8L41.8135 8.40527C42.4377 8.51346 43.0491 8.58317 43.6475 8.61621C44.298 8.64214 45.1247 8.65625 46.1338 8.65625H48.1338V8.66992H54.2803V18.9717Z" fill="white"/>
<path d="M37.1611 10.6699V14.1699C35.6865 14.8699 33.619 15.2197 30.959 15.2197C30.4927 15.2197 30.1521 15.197 29.9375 15.1504C29.7228 15.1037 29.6152 15.0241 29.6152 14.9121C29.6152 14.8095 29.6993 14.6695 29.8672 14.4922L35.6914 14.5059V13.0225H35.2295C35.5002 12.6958 35.6357 12.387 35.6357 12.0977C35.6356 11.7152 35.402 11.4071 34.9355 11.1738C34.4783 10.9405 33.7968 10.8199 32.8916 10.8105H27.9072V12.2939L32.8916 12.3086C33.3206 12.3086 33.6331 12.3313 33.8291 12.3779C34.0251 12.4153 34.123 12.4809 34.123 12.5742C34.123 12.6676 33.997 12.8172 33.7451 13.0225L27.9072 13.0078V14.4922H28.4395C28.2061 14.8095 28.0889 15.1034 28.0889 15.374C28.0889 15.7754 28.3417 16.0972 28.8457 16.3398C29.3496 16.5824 30.0539 16.7041 30.959 16.7041C33.5723 16.7041 35.6398 16.3586 37.1611 15.668V16.6621C34.9772 16.8021 33.0592 17.0636 31.4072 17.4463C29.7646 17.829 28.9434 18.4639 28.9434 19.3506C28.9434 19.5091 28.9671 19.6493 29.0137 19.7705C29.1912 20.2836 29.779 20.652 30.7773 20.876C31.7853 21.1 32.8165 21.2119 33.8711 21.2119C35.0936 21.2119 36.1669 21.0623 37.0908 20.7637C38.0148 20.465 38.5422 19.9893 38.6729 19.3359C38.6915 19.2427 38.7012 19.1726 38.7012 19.126C38.7011 18.6781 38.3232 18.3238 37.5674 18.0625L38.7012 17.9785V14.6602H40.0312V12.7002H38.7012V10.6699H37.1611ZM36.167 18.1465C36.8576 18.3611 37.203 18.6034 37.2031 18.874C37.2031 19.098 36.8953 19.2659 36.2793 19.3779C35.6726 19.4899 34.9773 19.5599 34.1934 19.5879C33.7082 19.6066 33.3022 19.6162 32.9756 19.6162C31.9025 19.6162 31.1651 19.5365 30.7637 19.3779C30.5863 19.2939 30.4971 19.21 30.4971 19.126C30.4972 19.0607 30.5628 18.9906 30.6934 18.916C31.2814 18.608 33.106 18.3518 36.167 18.1465ZM40.7012 10.7002H41.4727V12.1123C41.6594 12.1443 41.8458 12.1718 42.0312 12.1973V13.6436C41.6178 13.5935 41.1842 13.5684 40.7305 13.5684V15.4297C41.141 15.4297 41.519 15.4533 41.8643 15.5C41.6314 15.8462 41.4791 16.2333 41.4033 16.6602H40.7012V19.8359L40.6064 19.8428C40.2368 21.4299 38.9408 22.2679 37.7061 22.667C36.5396 23.044 35.2509 23.2119 33.8711 23.2119C32.6738 23.2119 31.4971 23.0844 30.3438 22.8281H30.3398C29.2585 22.5856 27.7148 22.0194 27.1484 20.4873L27.1465 20.4883C27.1393 20.4696 27.1337 20.4503 27.127 20.4316C27.1259 20.4287 27.1241 20.4258 27.123 20.4229V20.4219C27.0253 20.1482 26.9741 19.8774 26.9541 19.6211L26.9434 19.3506L26.9502 19.1328C26.9822 18.6252 27.1251 18.1667 27.3477 17.7627C27.0243 17.5247 26.7214 17.2205 26.4932 16.8438H27.1523V14.8838H25.9072V8.81055H32.9121C33.6711 8.81838 34.4518 8.89181 35.1611 9.11523V8.66992H40.7012V10.7002Z" fill="white"/>
<path d="M19.0029 20.7432C18.6764 20.9822 18.3351 21.1986 17.9785 21.3906C17.0377 21.8972 16.0121 22.2214 14.9404 22.1895L13 22.1309V15.9072L15.084 15.9941C15.0997 15.9947 15.2551 15.9918 15.5928 15.8291C15.4085 15.1581 15.3105 14.4688 15.3105 13.7637C15.3106 12.9599 15.426 12.1693 15.707 11.4297L15.7148 11.4102C15.9715 10.7557 16.3423 10.1026 16.8994 9.58398C17.3696 9.14629 18.0963 8.66992 19.0469 8.66992L19.2236 8.67578C20.0795 8.72966 20.7379 9.16631 21.1787 9.58398C21.1873 9.59201 21.1965 9.60031 21.2051 9.6084H21.2041C21.6997 10.0783 22.0411 10.6535 22.2822 11.2393V10.6699H24.2822V21.0723H25.8223V16.8438H27.1523V14.8838H25.8223V10.6699H22.2822V8.66992H27.8223V12.8838H29.1523V13.0107L27.9072 13.0078V14.4922H28.4395C28.2061 14.8095 28.0889 15.1034 28.0889 15.374C28.0889 15.7754 28.3417 16.0972 28.8457 16.3398C28.9406 16.3855 29.0432 16.4248 29.1523 16.4619V18.6436C29.1106 18.7085 29.075 18.7749 29.0459 18.8438H27.8223V23.0723H22.2822V22.1523C21.4848 22.0542 20.7213 21.7754 20.0068 21.3857C19.6568 21.1948 19.3221 20.9803 19.0029 20.7432ZM19.0469 12.5459C19.0934 12.5466 19.1444 12.6447 19.2002 12.8398C19.2562 13.0265 19.2842 13.3301 19.2842 13.75C19.2842 14.1605 19.2054 14.5666 19.0469 14.9678C18.8882 14.5665 18.8086 14.1606 18.8086 13.75C18.8086 13.3489 18.8366 13.0505 18.8926 12.8545C18.9486 12.6492 19.0002 12.5459 19.0469 12.5459ZM15 20.1904C15.6253 20.2091 16.3023 20.0219 17.0303 19.6299C17.7583 19.2379 18.4212 18.7062 19.0186 18.0342C19.5972 18.7061 20.2462 19.2379 20.9648 19.6299C21.6833 20.0217 22.3596 20.209 22.9941 20.1904V17.9922C22.5463 18.0108 22.0519 17.8891 21.5107 17.6279C20.9695 17.3573 20.484 16.9934 20.0547 16.5361C20.5306 15.6308 20.7686 14.7063 20.7686 13.7637C20.7685 13.1479 20.6749 12.6062 20.4883 12.1396C20.311 11.6639 20.087 11.2998 19.8164 11.0479C19.5553 10.7961 19.2987 10.6701 19.0469 10.6699C18.795 10.6699 18.5333 10.796 18.2627 11.0479C17.9921 11.2998 17.7628 11.6638 17.5762 12.1396C17.3989 12.6062 17.3106 13.1479 17.3105 13.7637C17.3105 14.7063 17.5388 15.6265 17.9961 16.5225C17.5482 16.9796 17.0486 17.3437 16.498 17.6143L16.2939 17.709C15.8235 17.9141 15.3919 18.0085 15 17.9922V20.1904Z" fill="white"/>
<g filter="url(#filter0_d_249_3352)">
<path d="M38.888 35.6736C34.1096 30.7755 26.3623 30.7755 21.5838 35.6736C16.8054 40.5716 16.8054 48.5129 21.5838 53.411L39.7188 72L57.8537 53.411C62.6321 48.5129 62.6321 40.5716 57.8537 35.6736C53.0753 30.7755 45.3279 30.7755 40.5495 35.6736L39.7188 36.5251L38.888 35.6736Z" fill="url(#paint0_radial_249_3352)"/>
<path d="M39.5586 35.0186C34.4123 29.7439 26.0593 29.7438 20.9131 35.0186C15.7794 40.2808 15.7794 48.8032 20.9131 54.0654L39.0479 72.6543C39.2243 72.8351 39.4661 72.9375 39.7188 72.9375C39.9714 72.9375 40.2132 72.8351 40.3896 72.6543L58.5244 54.0654C63.6581 48.8032 63.6581 40.2808 58.5244 35.0186C53.3782 29.7438 45.0252 29.7439 39.8789 35.0186L39.7188 35.1826L39.5586 35.0186Z" stroke="white" stroke-width="1.875" stroke-linecap="round" stroke-linejoin="round"/>
</g>
<g filter="url(#filter1_f_249_3352)">
<path d="M49.25 53.517H44.5119L43.1897 49.3756L41.3165 58.25L39.2229 46.0625L37.1293 56.1201L35.3663 51.0322L33.9339 53.517H30.1875" stroke="#FF726D" stroke-width="0.9375" stroke-linejoin="round"/>
</g>
<path d="M42.5498 43.9688C42.3453 45.0546 41.445 45.8438 40.4062 45.8438C39.3675 45.8438 38.4672 45.0546 38.2627 43.9688H42.5498Z" fill="#504339" stroke="#504339" stroke-width="0.9375" stroke-linejoin="round"/>
<path d="M35.875 41.9375C35.875 41.4197 35.4553 41 34.9375 41C34.4197 41 34 41.4197 34 41.9375" stroke="#504339" stroke-width="0.9375" stroke-linecap="round"/>
<path d="M46.5 41.9375C46.5 41.4197 46.0803 41 45.5625 41C45.0447 41 44.625 41.4197 44.625 41.9375" stroke="#504339" stroke-width="0.9375" stroke-linecap="round"/>
<defs>
<filter id="filter0_d_249_3352" x="16.125" y="30.125" width="48.4375" height="45" filterUnits="userSpaceOnUse" color-interpolation-filters="sRGB">
<feFlood flood-opacity="0" result="BackgroundImageFix"/>
<feColorMatrix in="SourceAlpha" type="matrix" values="0 0 0 0 0 0 0 0 0 0 0 0 0 0 0 0 0 0 127 0" result="hardAlpha"/>
<feOffset dx="0.625" dy="0.625"/>
<feGaussianBlur stdDeviation="0.3125"/>
<feComposite in2="hardAlpha" operator="out"/>
<feColorMatrix type="matrix" values="0 0 0 0 0 0 0 0 0 0 0 0 0 0 0 0 0 0 0.12 0"/>
<feBlend mode="normal" in2="BackgroundImageFix" result="effect1_dropShadow_249_3352"/>
<feBlend mode="normal" in="SourceGraphic" in2="effect1_dropShadow_249_3352" result="shape"/>
</filter>
<filter id="filter1_f_249_3352" x="28.9375" y="44.3438" width="21.5625" height="15.625" filterUnits="userSpaceOnUse" color-interpolation-filters="sRGB">
<feFlood flood-opacity="0" result="BackgroundImageFix"/>
<feBlend mode="normal" in="SourceGraphic" in2="BackgroundImageFix" result="shape"/>
<feGaussianBlur stdDeviation="0.625" result="effect1_foregroundBlur_249_3352"/>
</filter>
<radialGradient id="paint0_radial_249_3352" cx="0" cy="0" r="1" gradientUnits="userSpaceOnUse" gradientTransform="translate(39.7188 52) rotate(90) scale(20 21.7188)">
<stop stop-color="#FF867B"/>
<stop offset="1" stop-color="#FFD8D2"/>
</radialGradient>
</defs>
</svg>
