<svg width="80" height="80" viewBox="0 0 80 80" fill="none" xmlns="http://www.w3.org/2000/svg">
<rect width="80" height="80" rx="16" fill="#FFFFFD"/>
<g filter="url(#filter0_d_249_3306)">
<path d="M38.888 35.6736C34.1096 30.7755 26.3623 30.7755 21.5838 35.6736C16.8054 40.5716 16.8054 48.5129 21.5838 53.411L39.7188 72L57.8537 53.411C62.6321 48.5129 62.6321 40.5716 57.8537 35.6736C53.0753 30.7755 45.3279 30.7755 40.5495 35.6736L39.7188 36.5251L38.888 35.6736Z" fill="url(#paint0_radial_249_3306)"/>
<path d="M39.5586 35.0186C34.4123 29.7439 26.0593 29.7438 20.9131 35.0186C15.7794 40.2808 15.7794 48.8032 20.9131 54.0654L39.0479 72.6543C39.2243 72.8351 39.4661 72.9375 39.7188 72.9375C39.9714 72.9375 40.2132 72.8351 40.3896 72.6543L58.5244 54.0654C63.6581 48.8032 63.6581 40.2808 58.5244 35.0186C53.3782 29.7438 45.0252 29.7439 39.8789 35.0186L39.7188 35.1826L39.5586 35.0186Z" stroke="white" stroke-width="1.875" stroke-linecap="round" stroke-linejoin="round"/>
</g>
<g filter="url(#filter1_f_249_3306)">
<path d="M49.25 53.2045H44.5119L43.1897 49.0631L41.3165 57.9375L39.2229 45.75L37.1293 55.8076L35.3663 50.7197L33.9339 53.2045H30.1875" stroke="#FF726D" stroke-width="0.9375" stroke-linejoin="round"/>
</g>
<circle cx="0.9375" cy="0.9375" r="0.9375" transform="matrix(-1 0 0 1 47.6875 43.875)" fill="#504339"/>
<path d="M41.2812 50.125C39.8142 50.125 38.625 48.8658 38.625 47.3125H43.9375C43.9375 48.8658 42.7483 50.125 41.2812 50.125Z" fill="#504339"/>
<path d="M34.875 44.0309C35.4479 43.8747 36.9062 44.0934 37.5312 44.9684C37.1146 44.9163 35.9688 44.3433 34.875 45.2809" stroke="#504339" stroke-width="0.625" stroke-linecap="round" stroke-linejoin="round"/>
<path d="M59.4885 14.494C60.1511 14.494 60.7485 14.438 61.2805 14.326C61.8125 14.2047 62.2278 14.046 62.5265 13.85C62.8251 13.654 62.9745 13.4393 62.9745 13.206C62.9745 12.9913 62.8205 12.7907 62.5125 12.604C62.2138 12.408 61.7985 12.254 61.2665 12.142C60.7345 12.0207 60.1418 11.96 59.4885 11.96C58.8351 11.96 58.2425 12.0207 57.7105 12.142C57.1785 12.254 56.7585 12.408 56.4505 12.604C56.1518 12.7907 56.0025 12.9913 56.0025 13.206C56.0025 13.4393 56.1518 13.654 56.4505 13.85C56.7491 14.046 57.1645 14.2047 57.6965 14.326C58.2285 14.438 58.8258 14.494 59.4885 14.494ZM59.4885 16.454C59.1431 16.454 58.7931 16.44 58.4385 16.412V18.302H60.5385V16.412C60.1931 16.44 59.8431 16.454 59.4885 16.454ZM53.6365 18.302H56.8985V16.146C55.2745 15.6793 54.4625 14.704 54.4625 13.22C54.4625 12.0067 54.9618 11.1667 55.9605 10.7C56.9591 10.2333 58.1351 10 59.4885 10C60.8418 10 62.0178 10.2333 63.0165 10.7C64.0151 11.1667 64.5145 12.0067 64.5145 13.22C64.5145 14.704 63.7025 15.6793 62.0785 16.146V18.302H65.3405V20.262H53.6365V18.302Z" fill="#504339"/>
<path d="M44.7617 13.486C45.6017 13.486 46.2597 13.4393 46.7357 13.346C47.2117 13.2433 47.473 13.0473 47.5197 12.758C47.529 12.7207 47.5337 12.6647 47.5337 12.59C47.5337 12.2727 47.3517 12.0767 46.9877 12.002C46.633 11.918 46.0264 11.876 45.1677 11.876C44.197 11.876 43.4784 11.9367 43.0117 12.058C42.545 12.17 42.3117 12.408 42.3117 12.772C42.3117 13.0707 42.531 13.2667 42.9697 13.36C43.4084 13.444 44.0057 13.486 44.7617 13.486ZM44.7617 15.208C44.0617 15.208 43.4177 15.1193 42.8297 14.942C42.251 14.7553 41.7844 14.4847 41.4297 14.13C41.0844 13.766 40.9117 13.3367 40.9117 12.842C40.9117 12.6927 40.935 12.5153 40.9817 12.31C41.1404 11.6287 41.607 11.0967 42.3817 10.714C43.1657 10.3313 44.0944 10.14 45.1677 10.14C46.2597 10.14 47.1604 10.336 47.8697 10.728C48.579 11.1107 48.9337 11.6987 48.9337 12.492C48.9244 12.604 48.915 12.716 48.9057 12.828C48.8497 13.3227 48.6257 13.752 48.2337 14.116C47.851 14.4707 47.3517 14.7413 46.7357 14.928C46.129 15.1147 45.471 15.208 44.7617 15.208ZM50.2357 20.402V19.436H47.4637V17.672H50.2357V10H51.7757V20.402H50.2357ZM40.8977 15.852C42.7084 15.852 44.3044 15.81 45.6857 15.726C47.067 15.6327 48.4717 15.4133 49.8997 15.068V17.056C48.6957 17.3267 47.4357 17.5227 46.1197 17.644V20.262H44.5797V17.742C43.6837 17.7887 42.4564 17.812 40.8977 17.812V15.852Z" fill="#504339"/>
<path d="M36.9366 20.402V10H38.4766V14.214H39.8066V16.174H38.4766V20.402H36.9366ZM35.6486 19.576L30.3006 19.562C29.4513 19.562 28.8026 19.3333 28.3546 18.876C27.9066 18.4187 27.6826 17.77 27.6826 16.93V10.14L32.7366 10.168C33.7166 10.1773 34.4493 10.4433 34.9346 10.966C35.4293 11.4887 35.6766 12.184 35.6766 13.052C35.6766 13.7333 35.5273 14.4753 35.2286 15.278C34.9393 16.0807 34.5239 16.8833 33.9826 17.686H35.6486V19.576ZM29.2226 16.944C29.2226 17.1493 29.2506 17.3033 29.3066 17.406C29.3626 17.4993 29.47 17.5693 29.6286 17.616C29.7873 17.6533 30.03 17.672 30.3566 17.672H32.6106C33.5813 15.8427 34.0666 14.438 34.0666 13.458C34.0666 13.01 33.9546 12.6647 33.7306 12.422C33.5066 12.1793 33.1706 12.058 32.7226 12.058L29.2226 12.044V16.944Z" fill="#504339"/>
<path d="M14.9998 18.3016H18.9618V14.5496H20.5018V18.3016H22.8118C23.2411 16.967 23.5538 15.8936 23.7498 15.0816C23.9551 14.2696 24.0578 13.6396 24.0578 13.1916C24.0578 12.7996 23.9831 12.5196 23.8338 12.3516C23.6938 12.1836 23.4744 12.0996 23.1758 12.0996H15.8258V10.1396H23.4558C24.9024 10.1396 25.6258 11.0496 25.6258 12.8696C25.6258 14.195 25.2571 16.0056 24.5198 18.3016H26.7038V20.2616H14.9998V18.3016Z" fill="#504339"/>
<path d="M59.4883 8C61.069 8 62.5462 8.27323 63.8633 8.88867C64.6778 9.26932 65.3791 9.85032 65.8594 10.6582C66.3323 11.4538 66.5146 12.3398 66.5146 13.2197C66.5146 14.3287 66.206 15.404 65.4766 16.3018H67.3408V22.2617H51.6367V20.4023H51.7754V16.3018H53.5C52.7707 15.4041 52.4629 14.3286 52.4629 13.2197C52.463 12.3398 52.6452 11.4539 53.1182 10.6582C53.5984 9.85034 54.2997 9.26929 55.1143 8.88867C56.4312 8.27333 57.9077 8.00003 59.4883 8V10C58.1352 10 56.9595 10.2337 55.9609 10.7002C54.9624 11.1668 54.463 12.0066 54.4629 13.2197C54.4629 14.7037 55.2744 15.6798 56.8984 16.1465V18.3018H53.6367V20.2617H65.3408V18.3018H62.0781V16.1465C63.7021 15.6798 64.5146 14.7037 64.5146 13.2197C64.5145 12.0067 64.0151 11.1668 63.0166 10.7002C62.0179 10.2335 60.8416 10 59.4883 10V8ZM60.5381 18.3018H58.4385V16.4121C58.7931 16.4401 59.143 16.4541 59.4883 16.4541C59.8428 16.4541 60.1929 16.4401 60.5381 16.4121V18.3018ZM59.4883 11.96C60.1416 11.96 60.7346 12.0212 61.2666 12.1426C61.7985 12.2546 62.2141 12.4085 62.5127 12.6045C62.8204 12.7911 62.9745 12.9915 62.9746 13.2061C62.9746 13.4394 62.825 13.6546 62.5264 13.8506C62.2277 14.0465 61.8121 14.2049 61.2803 14.3262C60.7483 14.4381 60.1509 14.4941 59.4883 14.4941C58.8257 14.4941 58.2282 14.4382 57.6963 14.3262C57.1644 14.2048 56.7488 14.0466 56.4502 13.8506C56.1516 13.6546 56.0029 13.4394 56.0029 13.2061C56.003 12.9915 56.1518 12.7911 56.4502 12.6045C56.7582 12.4085 57.1789 12.2546 57.7109 12.1426C58.2428 12.0213 58.8352 11.96 59.4883 11.96Z" fill="white"/>
<path d="M50.2354 10V17.6719H47.4639V19.4365H50.2354V20.4023H51.7754V10H50.2354ZM45.168 11.876C46.0262 11.876 46.6326 11.918 46.9873 12.002C47.3512 12.0766 47.5331 12.2727 47.5332 12.5898C47.5332 12.6643 47.5288 12.7205 47.5195 12.7578C47.4729 13.0471 47.2114 13.244 46.7354 13.3467C46.2594 13.44 45.6015 13.4863 44.7617 13.4863C44.0058 13.4863 43.4084 13.4443 42.9697 13.3604C42.5312 13.267 42.3116 13.071 42.3115 12.7725C42.3115 12.4085 42.5451 12.1706 43.0117 12.0586C43.4784 11.9373 44.1973 11.876 45.168 11.876ZM46.1191 20.2617V17.6445C47.435 17.5232 48.6955 17.3273 49.8994 17.0566V15.0684C48.4715 15.4137 47.0668 15.6332 45.6855 15.7266C44.3042 15.8106 42.7081 15.8525 40.8975 15.8525V17.8125C42.4561 17.8125 43.6841 17.7889 44.5801 17.7422V20.2617H46.1191ZM53.7754 18.3018H53.6367V20.2617H53.7754V22.4023H48.2354V21.4365H48.1191V22.2617H42.5801V19.7998C42.0652 19.8069 41.504 19.8125 40.8975 19.8125H38.8975V16.1738H39.8066V14.2139H38.8975V13.8525H39.0439C38.9574 13.5295 38.9111 13.1913 38.9111 12.8418C38.9112 12.4967 38.9639 12.1636 39.0312 11.8672L39.0332 11.8564H39.0342C39.3601 10.4571 40.3231 9.50034 41.4961 8.9209L41.5039 8.91699C42.6168 8.37382 43.8593 8.14062 45.168 8.14062V10.1406C44.0948 10.1406 43.1658 10.3313 42.3818 10.7139C41.6072 11.0965 41.1401 11.6292 40.9814 12.3105C40.9349 12.5155 40.9112 12.6926 40.9111 12.8418C40.9111 13.3364 41.0844 13.7659 41.4297 14.1299C41.7844 14.4845 42.2514 14.7557 42.8301 14.9424C43.4179 15.1196 44.0619 15.208 44.7617 15.208C45.471 15.208 46.1287 15.1144 46.7354 14.9277C47.3513 14.7411 47.8507 14.4708 48.2334 14.1162C48.6254 13.7522 48.8493 13.3228 48.9053 12.8281C48.9146 12.7161 48.9243 12.6042 48.9336 12.4922C48.9336 11.6989 48.5785 11.1112 47.8691 10.7285C47.2486 10.3856 46.4818 10.1923 45.5684 10.1494L45.168 10.1406V8.14062C46.2495 8.14066 47.293 8.2984 48.2354 8.68848V8H53.7754V18.3018Z" fill="white"/>
<path d="M36.9365 10V20.4023H38.4766V16.1738H39.8066V14.2139H38.4766V10H36.9365ZM27.6826 16.9307C27.6827 17.7703 27.9067 18.4187 28.3545 18.876C28.8025 19.3333 29.4514 19.5625 30.3008 19.5625L35.6484 19.5762V17.6865H33.9824C34.5237 16.8839 34.9392 16.0809 35.2285 15.2783C35.5272 14.4757 35.6768 13.7331 35.6768 13.0518C35.6767 12.184 35.4292 11.4884 34.9346 10.9658C34.4492 10.4433 33.7162 10.1773 32.7363 10.168L27.6826 10.1406V16.9307ZM32.7227 12.0586C33.1705 12.0586 33.5065 12.1794 33.7305 12.4219C33.9544 12.6645 34.0664 13.0101 34.0664 13.458C34.0664 14.438 33.581 15.8426 32.6104 17.6719H30.3564C30.03 17.6719 29.7875 17.6535 29.6289 17.6162C29.4702 17.5695 29.3626 17.4996 29.3066 17.4062C29.2507 17.3036 29.2227 17.1496 29.2227 16.9443V12.0439L32.7227 12.0586ZM31.2227 15.6719H31.3701C31.6885 14.9787 31.8734 14.4461 31.9717 14.0547L31.2227 14.0518V15.6719ZM40.4766 12.2139H41.0068C40.9979 12.2457 40.989 12.2781 40.9814 12.3105C40.9349 12.5155 40.9112 12.6926 40.9111 12.8418C40.9111 13.3364 41.0844 13.7659 41.4297 14.1299C41.5435 14.2437 41.6697 14.3478 41.8066 14.4443V15.8467C41.5099 15.8491 41.2067 15.8525 40.8975 15.8525V17.8125C41.2142 17.8125 41.5173 17.8095 41.8066 17.8076V18.1738H40.4766V22.4023H34.9365V21.5742L30.2959 21.5625C29.0928 21.5616 27.8596 21.2287 26.9258 20.2754C26.8471 20.1951 26.7742 20.1116 26.7041 20.0273V18.3018H25.8438C25.732 17.853 25.6826 17.3904 25.6826 16.9307V8.12891L32.748 8.16797H32.7559C33.4973 8.17504 34.2473 8.29453 34.9365 8.58594V8H40.4766V12.2139Z" fill="white"/>
<path d="M23.4561 8.14062C24.6252 8.14069 25.8169 8.53082 26.6494 9.57812C27.4122 10.5379 27.626 11.7488 27.626 12.8701C27.626 13.8693 27.4591 15.0202 27.1582 16.3018H27.6826V16.9307C27.6827 17.7703 27.9067 18.4187 28.3545 18.876C28.4596 18.9833 28.5768 19.077 28.7041 19.1592V22.2617H13V16.3018H16.9619V14.1006H13.8262V8.14062H23.4561ZM18.9619 18.3018H15V20.2617H26.7041V18.3018H24.5195C25.2568 16.0059 25.626 14.1954 25.626 12.8701C25.626 11.0503 24.9025 10.1407 23.4561 10.1406H15.8262V12.1006H23.1758C23.4744 12.1006 23.694 12.1845 23.834 12.3525C23.9831 12.5206 24.0576 12.8006 24.0576 13.1924C24.0576 13.6403 23.9553 14.2702 23.75 15.082C23.554 15.894 23.2408 16.9672 22.8115 18.3018H20.502V14.5498H18.9619V18.3018Z" fill="white"/>
<defs>
<filter id="filter0_d_249_3306" x="16.125" y="30.125" width="48.4375" height="45" filterUnits="userSpaceOnUse" color-interpolation-filters="sRGB">
<feFlood flood-opacity="0" result="BackgroundImageFix"/>
<feColorMatrix in="SourceAlpha" type="matrix" values="0 0 0 0 0 0 0 0 0 0 0 0 0 0 0 0 0 0 127 0" result="hardAlpha"/>
<feOffset dx="0.625" dy="0.625"/>
<feGaussianBlur stdDeviation="0.3125"/>
<feComposite in2="hardAlpha" operator="out"/>
<feColorMatrix type="matrix" values="0 0 0 0 0 0 0 0 0 0 0 0 0 0 0 0 0 0 0.12 0"/>
<feBlend mode="normal" in2="BackgroundImageFix" result="effect1_dropShadow_249_3306"/>
<feBlend mode="normal" in="SourceGraphic" in2="effect1_dropShadow_249_3306" result="shape"/>
</filter>
<filter id="filter1_f_249_3306" x="28.9375" y="44.0312" width="21.5625" height="15.625" filterUnits="userSpaceOnUse" color-interpolation-filters="sRGB">
<feFlood flood-opacity="0" result="BackgroundImageFix"/>
<feBlend mode="normal" in="SourceGraphic" in2="BackgroundImageFix" result="shape"/>
<feGaussianBlur stdDeviation="0.625" result="effect1_foregroundBlur_249_3306"/>
</filter>
<radialGradient id="paint0_radial_249_3306" cx="0" cy="0" r="1" gradientUnits="userSpaceOnUse" gradientTransform="translate(39.7188 52) rotate(90) scale(20 21.7188)">
<stop stop-color="#FF867B"/>
<stop offset="1" stop-color="#FFD8D2"/>
</radialGradient>
</defs>
</svg>
