<svg width="80" height="80" viewBox="0 0 80 80" fill="none" xmlns="http://www.w3.org/2000/svg">
<rect width="80" height="80" rx="16" fill="#FFFFFD"/>
<path d="M67.4799 21.2957C67.1625 21.2957 66.8872 21.1837 66.6539 20.9597C66.4299 20.7357 66.3179 20.4603 66.3179 20.1337C66.3179 19.807 66.4299 19.5317 66.6539 19.3077C66.8872 19.0837 67.1625 18.9717 67.4799 18.9717C67.8065 18.9717 68.0819 19.0837 68.3059 19.3077C68.5299 19.5317 68.6419 19.807 68.6419 20.1337C68.6419 20.4603 68.5299 20.7357 68.3059 20.9597C68.0819 21.1837 67.8065 21.2957 67.4799 21.2957Z" fill="#504339"/>
<path d="M64.0346 21.2957C63.7172 21.2957 63.4419 21.1837 63.2086 20.9597C62.9846 20.7357 62.8726 20.4603 62.8726 20.1337C62.8726 19.807 62.9846 19.5317 63.2086 19.3077C63.4419 19.0837 63.7172 18.9717 64.0346 18.9717C64.3612 18.9717 64.6366 19.0837 64.8606 19.3077C65.0846 19.5317 65.1966 19.807 65.1966 20.1337C65.1966 20.4603 65.0846 20.7357 64.8606 20.9597C64.6366 21.1837 64.3612 21.2957 64.0346 21.2957Z" fill="#504339"/>
<path d="M55.8596 15.1639C56.5222 15.1639 57.1196 15.1079 57.6516 14.9959C58.1836 14.8746 58.5989 14.7159 58.8976 14.5199C59.1962 14.3239 59.3456 14.1093 59.3456 13.8759C59.3456 13.6613 59.1916 13.4606 58.8836 13.2739C58.5849 13.0779 58.1696 12.9239 57.6376 12.8119C57.1056 12.6906 56.5129 12.6299 55.8596 12.6299C55.2062 12.6299 54.6136 12.6906 54.0816 12.8119C53.5496 12.9239 53.1296 13.0779 52.8216 13.2739C52.5229 13.4606 52.3736 13.6613 52.3736 13.8759C52.3736 14.1093 52.5229 14.3239 52.8216 14.5199C53.1202 14.7159 53.5356 14.8746 54.0676 14.9959C54.5996 15.1079 55.1969 15.1639 55.8596 15.1639ZM55.8596 17.1239C55.5142 17.1239 55.1642 17.1099 54.8096 17.0819V18.9719H56.9096V17.0819C56.5642 17.1099 56.2142 17.1239 55.8596 17.1239ZM50.0076 18.9719H53.2696V16.8159C51.6456 16.3493 50.8336 15.3739 50.8336 13.8899C50.8336 12.6766 51.3329 11.8366 52.3316 11.3699C53.3302 10.9033 54.5062 10.6699 55.8596 10.6699C57.2129 10.6699 58.3889 10.9033 59.3876 11.3699C60.3862 11.8366 60.8856 12.6766 60.8856 13.8899C60.8856 15.3739 60.0736 16.3493 58.4496 16.8159V18.9719H61.7116V20.9319H50.0076V18.9719Z" fill="#504339"/>
<path d="M43.8067 21.072V10.67H45.3467V14.674H46.8867V10.67H48.4267V21.072H46.8867V16.634H45.3467V21.072H43.8067ZM36.8767 13.568C38.0527 13.568 39.0934 13.736 39.9987 14.072C40.904 13.736 41.9447 13.568 43.1207 13.568V15.43C42.8034 15.43 42.4207 15.4533 41.9727 15.5C42.318 16.0133 42.4907 16.6153 42.4907 17.306C42.4907 17.9593 42.3787 18.5146 42.1547 18.972C41.9307 19.42 41.632 19.756 41.2587 19.98C40.8854 20.1946 40.4654 20.302 39.9987 20.302C39.532 20.302 39.1074 20.19 38.7247 19.966C38.3514 19.742 38.0527 19.406 37.8287 18.958C37.6047 18.5006 37.4927 17.95 37.4927 17.306C37.4927 16.6153 37.6654 16.0133 38.0107 15.5C37.6654 15.4533 37.2874 15.43 36.8767 15.43V13.568ZM42.2807 12.378C41.2727 12.378 40.4187 12.364 39.7187 12.336C39.028 12.308 38.328 12.2333 37.6187 12.112V10.376C38.3187 10.4973 39.0094 10.5766 39.6907 10.614C40.3814 10.642 41.2447 10.656 42.2807 10.656V12.378ZM39.1587 17.306C39.1587 17.6513 39.2474 17.9313 39.4247 18.146C39.6114 18.3513 39.8027 18.454 39.9987 18.454C40.1947 18.454 40.3814 18.3513 40.5587 18.146C40.7454 17.9313 40.8387 17.6513 40.8387 17.306C40.8387 16.8113 40.5587 16.4053 39.9987 16.088C39.4387 16.4053 39.1587 16.8113 39.1587 17.306Z" fill="#504339"/>
<path d="M34.8479 21.0719H26.9379C26.0886 21.0719 25.4866 20.9273 25.1319 20.6379C24.7772 20.3579 24.5999 19.9566 24.5999 19.4339C24.5999 19.1539 24.6372 18.8553 24.7119 18.5379C24.7959 18.2206 24.9172 17.8146 25.0759 17.3199H26.5039C26.2986 17.8053 26.1959 18.1693 26.1959 18.4119C26.1959 18.6453 26.2846 18.8226 26.4619 18.9439C26.6392 19.0559 26.9379 19.1119 27.3579 19.1119H34.8479V21.0719ZM33.3079 17.6279V10.6699H34.8479V12.7979H36.1779V14.7579H34.8479V17.6279H33.3079ZM27.8339 15.0659C29.5792 15.0659 30.4986 14.6973 30.5919 13.9599C30.6012 13.9039 30.6059 13.8246 30.6059 13.7219C30.6059 13.2833 30.4146 12.9939 30.0319 12.8539C29.6586 12.7139 29.0612 12.6439 28.2399 12.6439C27.4186 12.6439 26.7699 12.7186 26.2939 12.8679C25.8272 13.0173 25.5426 13.2739 25.4399 13.6379C25.4026 13.8059 25.3839 13.9226 25.3839 13.9879C25.3839 14.4173 25.6079 14.7066 26.0559 14.8559C26.5132 14.9959 27.1059 15.0659 27.8339 15.0659ZM27.8339 16.8999C27.1339 16.8999 26.4899 16.7879 25.9019 16.5639C25.3232 16.3399 24.8566 16.0133 24.5019 15.5839C24.1566 15.1546 23.9839 14.6459 23.9839 14.0579C23.9839 13.8899 24.0072 13.6799 24.0539 13.4279C24.2126 12.6066 24.6792 11.9673 25.4539 11.5099C26.2379 11.0433 27.1666 10.8099 28.2399 10.8099C29.3319 10.8099 30.2326 11.0433 30.9419 11.5099C31.6512 11.9766 32.0059 12.6859 32.0059 13.6379C32.0059 13.7313 31.9966 13.8713 31.9779 14.0579C31.9219 14.6459 31.6979 15.1546 31.3059 15.5839C30.9232 16.0133 30.4239 16.3399 29.8079 16.5639C29.2012 16.7879 28.5432 16.8999 27.8339 16.8999Z" fill="#504339"/>
<path d="M20.849 21.0719V10.6699H22.389V21.0719H20.849ZM19.561 20.2459L14.213 20.2319C13.3636 20.2319 12.715 20.0033 12.267 19.5459C11.819 19.0886 11.595 18.4399 11.595 17.5999V10.8099L16.649 10.8379C17.629 10.8473 18.3616 11.1133 18.847 11.6359C19.3416 12.1586 19.589 12.8539 19.589 13.7219C19.589 14.4033 19.4396 15.1453 19.141 15.9479C18.8516 16.7506 18.4363 17.5533 17.895 18.3559H19.561V20.2459ZM13.135 17.6139C13.135 17.8193 13.163 17.9733 13.219 18.0759C13.275 18.1693 13.3823 18.2393 13.541 18.2859C13.6996 18.3233 13.9423 18.3419 14.269 18.3419H16.523C17.4936 16.5126 17.979 15.1079 17.979 14.1279C17.979 13.6799 17.867 13.3346 17.643 13.0919C17.419 12.8493 17.083 12.7279 16.635 12.7279L13.135 12.7139V17.6139Z" fill="#504339"/>
<path d="M68.6416 20.1338C68.6415 19.8073 68.5295 19.5325 68.3057 19.3086C68.0817 19.0846 67.8062 18.9717 67.4795 18.9717C67.1623 18.9718 66.8875 19.0847 66.6543 19.3086L66.5752 19.3945C66.4037 19.6017 66.3174 19.8481 66.3174 20.1338C66.3174 20.4605 66.4303 20.736 66.6543 20.96C66.8875 21.1838 67.1624 21.2958 67.4795 21.2959C67.8062 21.2959 68.0817 21.184 68.3057 20.96C68.5297 20.736 68.6416 20.4605 68.6416 20.1338ZM70.6416 20.1338C70.6416 20.9724 70.3317 21.7621 69.7197 22.374C69.1078 22.986 68.3181 23.2959 67.4795 23.2959C66.635 23.2958 65.8663 22.9771 65.2686 22.4033L65.2393 22.374C64.8978 22.0325 64.65 21.6358 64.498 21.2061C64.6308 21.1501 64.7517 21.0686 64.8604 20.96C65.0843 20.736 65.1963 20.4605 65.1963 20.1338C65.1962 19.8073 65.0842 19.5325 64.8604 19.3086C64.7519 19.2001 64.6315 19.1175 64.499 19.0615C64.651 18.6319 64.8979 18.2349 65.2393 17.8936L65.2539 17.8799L65.2686 17.8652C65.8663 17.2914 66.635 16.9718 67.4795 16.9717C68.3179 16.9717 69.1078 17.2818 69.7197 17.8936C70.3316 18.5054 70.6415 19.2953 70.6416 20.1338Z" fill="white"/>
<path d="M65.1963 20.1338C65.1962 19.8073 65.0842 19.5325 64.8604 19.3086C64.6364 19.0846 64.3608 18.9717 64.0342 18.9717C63.717 18.9718 63.4422 19.0847 63.209 19.3086L63.1299 19.3945C62.9584 19.6017 62.8721 19.8481 62.8721 20.1338C62.8721 20.4605 62.985 20.736 63.209 20.96C63.4422 21.1838 63.7171 21.2958 64.0342 21.2959C64.3608 21.2959 64.6364 21.184 64.8604 20.96C65.0843 20.736 65.1963 20.4605 65.1963 20.1338ZM66.3174 20.1338C66.3174 20.4605 66.4303 20.736 66.6543 20.96C66.7655 21.0667 66.8863 21.1473 67.0166 21.2031C66.8647 21.6341 66.6167 22.0317 66.2744 22.374C65.6625 22.986 64.8728 23.2959 64.0342 23.2959C63.1897 23.2958 62.4209 22.9771 61.8232 22.4033L61.7939 22.374C61.3813 21.9612 61.11 21.4666 60.9746 20.9316H61.7119V18.9717H61.0879C61.2417 18.5767 61.4766 18.2109 61.7939 17.8936L61.8086 17.8799L61.8232 17.8652C62.421 17.2914 63.1897 16.9718 64.0342 16.9717C64.8726 16.9717 65.6625 17.2818 66.2744 17.8936C66.6163 18.2354 66.8637 18.6332 67.0156 19.0635C66.8854 19.1193 66.7655 19.2019 66.6543 19.3086C66.4304 19.5325 66.3175 19.8073 66.3174 20.1338Z" fill="white"/>
<path d="M55.8594 8.66992C57.4401 8.66992 58.9173 8.94315 60.2344 9.55859C61.0489 9.93925 61.7502 10.5202 62.2305 11.3281C62.7034 12.1238 62.8857 13.0097 62.8857 13.8896C62.8857 14.9986 62.5771 16.074 61.8477 16.9717H63.7119V19.0146C63.5267 19.066 63.3593 19.1643 63.209 19.3086C62.9851 19.5325 62.8721 19.8073 62.8721 20.1338C62.8721 20.4605 62.985 20.736 63.209 20.96C63.3593 21.1042 63.5268 21.2016 63.7119 21.2529V22.9316H48.0078V21.0723H48.4268V16.9717H49.8711C49.1417 16.074 48.834 14.9985 48.834 13.8896C48.8341 13.0097 49.0163 12.1238 49.4893 11.3281C49.9695 10.5203 50.6708 9.93922 51.4854 9.55859C52.8023 8.94325 54.2788 8.66995 55.8594 8.66992V10.6699C54.5063 10.6699 53.3306 10.9036 52.332 11.3701C51.3335 11.8367 50.8341 12.6766 50.834 13.8896C50.834 15.3736 51.6455 16.3497 53.2695 16.8164V18.9717H50.0078V20.9316H61.7119V18.9717H58.4492V16.8164C60.0732 16.3497 60.8857 15.3736 60.8857 13.8896C60.8856 12.6766 60.3862 11.8367 59.3877 11.3701C58.389 10.9035 57.2127 10.6699 55.8594 10.6699V8.66992ZM56.9092 18.9717H54.8096V17.082C55.1642 17.11 55.5141 17.124 55.8594 17.124C56.2139 17.124 56.564 17.11 56.9092 17.082V18.9717ZM55.8594 12.6299C56.5127 12.6299 57.1057 12.6912 57.6377 12.8125C58.1696 12.9245 58.5852 13.0784 58.8838 13.2744C59.1915 13.461 59.3456 13.6614 59.3457 13.876C59.3457 14.1093 59.1961 14.3245 58.8975 14.5205C58.5988 14.7164 58.1832 14.8748 57.6514 14.9961C57.1194 15.1081 56.522 15.1641 55.8594 15.1641C55.1968 15.1641 54.5993 15.1081 54.0674 14.9961C53.5355 14.8748 53.1199 14.7165 52.8213 14.5205C52.5226 14.3245 52.374 14.1093 52.374 13.876C52.3741 13.6614 52.5229 13.461 52.8213 13.2744C53.1293 13.0784 53.55 12.9245 54.082 12.8125C54.6139 12.6912 55.2063 12.6299 55.8594 12.6299Z" fill="white"/>
<path d="M43.1211 13.5684C41.9452 13.5684 40.9043 13.7363 39.999 14.0723C39.0938 13.7363 38.0528 13.5684 36.877 13.5684V15.4297C37.2875 15.4297 37.6655 15.4533 38.0107 15.5C37.6655 16.0132 37.4932 16.6152 37.4932 17.3057C37.4932 17.9497 37.6051 18.5007 37.8291 18.958C38.0531 19.4059 38.3514 19.7418 38.7246 19.9658C39.1073 20.1898 39.5324 20.3018 39.999 20.3018C40.4655 20.3017 40.8856 20.1951 41.2588 19.9805C41.6321 19.7565 41.9303 19.4197 42.1543 18.9717C42.3782 18.5144 42.4902 17.9589 42.4902 17.3057C42.4902 16.6152 42.3179 16.0132 41.9727 15.5C42.4207 15.4533 42.8038 15.4297 43.1211 15.4297V13.5684ZM39.999 16.0879C40.5587 16.4051 40.8387 16.8113 40.8389 17.3057L40.834 17.4326C40.8136 17.7205 40.7219 17.9587 40.5586 18.1465C40.3814 18.3515 40.1948 18.454 39.999 18.4541C39.8031 18.4541 39.6114 18.3516 39.4248 18.1465C39.2475 17.9318 39.1582 17.651 39.1582 17.3057C39.1584 16.8112 39.4392 16.4051 39.999 16.0879ZM39.7646 16.4736L39.6699 16.6162C39.6207 16.6894 39.5761 16.7773 39.5439 16.8896L39.7812 16.4707C39.7757 16.4715 39.7702 16.4727 39.7646 16.4736ZM40.4111 16.8164C40.3824 16.7386 40.3512 16.6723 40.3135 16.6162L40.2168 16.4717L40.4111 16.8164ZM45.3467 10.6699H43.8066V21.0723H45.3467V16.6338H46.8867V21.0723H48.4268V10.6699H46.8867V14.6738H45.3467V10.6699ZM37.6191 12.1123C38.3283 12.2336 39.0282 12.3079 39.7188 12.3359C40.4186 12.3639 41.2725 12.3779 42.2803 12.3779V10.6562C41.2445 10.6562 40.381 10.6423 39.6904 10.6143C39.0093 10.5769 38.3189 10.4973 37.6191 10.376V12.1123ZM50.4268 18.9717H50.0078V20.9316H50.4268V23.0723H41.8066V21.9365C41.2311 22.1845 40.621 22.3017 39.999 22.3018C39.1966 22.3018 38.4193 22.1053 37.7139 21.6924L37.7051 21.6865L37.6953 21.6807C36.9493 21.2329 36.4079 20.5882 36.04 19.8525L36.0361 19.8457L36.0322 19.8379C35.6618 19.0816 35.5099 18.2585 35.4961 17.4297H34.877V14.7578H36.1777V12.7979H34.877V11.5684H35.6191V8L37.96 8.40527C38.5841 8.51346 39.1955 8.58317 39.7939 8.61621C40.4445 8.64214 41.2711 8.65625 42.2803 8.65625H44.2803V8.66992H50.4268V18.9717Z" fill="white"/>
<path d="M33.3076 10.6699V17.6279H34.8477V14.7578H36.1777V12.7979H34.8477V10.6699H33.3076ZM25.0762 17.3203C24.9175 17.8149 24.7959 18.2208 24.7119 18.5381C24.6372 18.8554 24.5996 19.1546 24.5996 19.4346C24.5997 19.9569 24.7774 20.3578 25.1318 20.6377C25.4865 20.927 26.0883 21.0722 26.9375 21.0723H34.8477V19.1123H27.3574C26.9378 19.1123 26.6392 19.0562 26.4619 18.9443C26.2846 18.823 26.1953 18.6454 26.1953 18.4121C26.1953 18.1695 26.2986 17.8056 26.5039 17.3203H25.0762ZM28.8135 12.6572C29.3456 12.6835 29.7522 12.7495 30.0322 12.8545C30.4144 12.9945 30.6053 13.2835 30.6055 13.7217C30.6055 13.8242 30.6011 13.904 30.5918 13.96C30.4985 14.6973 29.5792 15.0664 27.834 15.0664C27.106 15.0664 26.513 14.9964 26.0557 14.8564C25.6077 14.7071 25.3838 14.4175 25.3838 13.9883C25.3838 13.9229 25.4021 13.8057 25.4395 13.6377C25.5422 13.2739 25.8274 13.0175 26.2939 12.8682C26.7699 12.7189 27.419 12.6445 28.2402 12.6445L28.8135 12.6572ZM36.8477 10.7979H37.6191V12.1123C37.8059 12.1443 37.9922 12.1718 38.1777 12.1973V13.6436C37.7643 13.5935 37.3307 13.5684 36.877 13.5684V15.4297C37.2875 15.4297 37.6655 15.4533 38.0107 15.5C37.7602 15.8725 37.602 16.292 37.5332 16.7578H36.8477V23.0723H26.9375C25.9814 23.0722 24.799 22.9317 23.8926 22.207V22.208C23.8875 22.204 23.8829 22.1993 23.8779 22.1953C23.8746 22.1926 23.8705 22.1902 23.8672 22.1875V22.1865C22.9721 21.4663 22.5997 20.4514 22.5996 19.4346C22.5996 18.9776 22.6603 18.5236 22.7646 18.0801L22.7715 18.0527L22.7783 18.0264C22.8562 17.7321 22.9583 17.3867 23.0811 16.9951C23.0406 16.9496 22.999 16.9047 22.96 16.8574L22.9512 16.8477L22.9434 16.8379C22.7172 16.5567 22.5336 16.2566 22.3887 15.9434V12.0693C22.7973 11.1085 23.5042 10.3406 24.4307 9.79199L24.6475 9.66797C25.7375 9.07391 26.9567 8.81055 28.2402 8.81055V10.8105C27.1671 10.8105 26.238 11.0433 25.4541 11.5098C24.6795 11.967 24.2124 12.6066 24.0537 13.4277C24.007 13.6797 23.9834 13.8906 23.9834 14.0586C23.9835 14.6464 24.1567 15.1548 24.502 15.584C24.8566 16.0133 25.3228 16.3405 25.9014 16.5645C26.4894 16.7885 27.134 16.9004 27.834 16.9004C28.5431 16.9004 29.2011 16.7884 29.8076 16.5645C30.4236 16.3405 30.923 16.0133 31.3057 15.584C31.6975 15.1548 31.9215 14.6464 31.9775 14.0586C31.9962 13.8719 32.0059 13.731 32.0059 13.6377C32.0058 12.6859 31.6506 11.9764 30.9414 11.5098C30.3209 11.1017 29.5539 10.8724 28.6406 10.8213L28.2402 10.8105V8.81055C29.3221 8.8106 30.3664 8.99375 31.3076 9.43164V8.66992H36.8477V10.7979Z" fill="white"/>
<path d="M20.8486 10.6699V21.0723H22.3887V10.6699H20.8486ZM11.5947 17.6006C11.5948 18.4402 11.8188 19.0887 12.2666 19.5459C12.7146 20.0032 13.3636 20.2324 14.2129 20.2324L19.5605 20.2461V18.3564H17.8945C18.4358 17.5538 18.8513 16.7508 19.1406 15.9482C19.4393 15.1456 19.5889 14.403 19.5889 13.7217C19.5888 12.8539 19.3413 12.1583 18.8467 11.6357C18.3613 11.1133 17.6282 10.8472 16.6484 10.8379L11.5947 10.8105V17.6006ZM16.6348 12.7285C17.0826 12.7285 17.4186 12.8493 17.6426 13.0918C17.8665 13.3344 17.9785 13.68 17.9785 14.1279C17.9785 15.1079 17.4931 16.5125 16.5225 18.3418H14.2686C13.9421 18.3418 13.6996 18.3234 13.541 18.2861C13.3823 18.2395 13.2747 18.1695 13.2188 18.0762C13.1628 17.9735 13.1348 17.8195 13.1348 17.6143V12.7139L16.6348 12.7285ZM15.1348 16.3418H15.2822C15.6006 15.6486 15.7855 15.116 15.8838 14.7246L15.1348 14.7217V16.3418ZM24.3887 12.5371C24.2289 12.8055 24.1167 13.1021 24.0537 13.4277C24.007 13.6797 23.9834 13.8906 23.9834 14.0586C23.9835 14.5774 24.1197 15.0335 24.3887 15.4287V23.0723H18.8486V22.2441L14.208 22.2324C13.005 22.2315 11.7717 21.8986 10.8379 20.9453C9.92066 20.0088 9.59481 18.7945 9.59473 17.6006V8.79883L16.6602 8.83789H16.668C17.4095 8.84496 18.1594 8.96446 18.8486 9.25586V8.66992H24.3887V12.5371Z" fill="white"/>
<g filter="url(#filter0_d_249_3328)">
<path d="M40.5495 35.6736C45.3279 30.7755 53.0752 30.7755 57.8537 35.6736C62.6321 40.5716 62.6321 48.5129 57.8537 53.411L39.7187 72L21.5838 53.411C16.8054 48.5129 16.8054 40.5716 21.5838 35.6736C26.3622 30.7755 34.1096 30.7755 38.888 35.6736L39.7187 36.5251L40.5495 35.6736Z" fill="url(#paint0_radial_249_3328)"/>
<path d="M39.8789 35.0186C45.0252 29.7439 53.3782 29.7438 58.5244 35.0186C63.6581 40.2808 63.6581 48.8032 58.5244 54.0654L40.3896 72.6543C40.2132 72.8351 39.9714 72.9375 39.7188 72.9375C39.4661 72.9375 39.2243 72.8351 39.0479 72.6543L20.9131 54.0654C15.7794 48.8032 15.7794 40.2808 20.9131 35.0186C26.0593 29.7438 34.4123 29.7439 39.5586 35.0186L39.7188 35.1826L39.8789 35.0186Z" stroke="white" stroke-width="1.875" stroke-linecap="round" stroke-linejoin="round"/>
</g>
<g filter="url(#filter1_f_249_3328)">
<path d="M30.1875 53.517H34.9256L36.2478 49.3756L38.121 58.25L40.2146 46.0625L42.3082 56.1201L44.0712 51.0322L45.5036 53.517H49.25" stroke="#FF8C4D" stroke-width="0.9375" stroke-linejoin="round"/>
</g>
<path d="M40.8125 48.5625C39.0938 48.5625 39.467 48.5625 38 48.5625C36.533 48.5625 37.0625 48.5625 35.5 48.5625" stroke="#504339" stroke-width="0.9375" stroke-linecap="round" stroke-linejoin="round"/>
<path d="M33.625 44.8125C33.625 45.3303 33.2053 45.75 32.6875 45.75C32.1697 45.75 31.75 45.3303 31.75 44.8125" stroke="#504339" stroke-width="0.9375" stroke-linecap="round"/>
<path d="M44.25 44.8125C44.25 45.3303 43.8303 45.75 43.3125 45.75C42.7947 45.75 42.375 45.3303 42.375 44.8125" stroke="#504339" stroke-width="0.9375" stroke-linecap="round"/>
<defs>
<filter id="filter0_d_249_3328" x="16.125" y="30.125" width="48.4375" height="45" filterUnits="userSpaceOnUse" color-interpolation-filters="sRGB">
<feFlood flood-opacity="0" result="BackgroundImageFix"/>
<feColorMatrix in="SourceAlpha" type="matrix" values="0 0 0 0 0 0 0 0 0 0 0 0 0 0 0 0 0 0 127 0" result="hardAlpha"/>
<feOffset dx="0.625" dy="0.625"/>
<feGaussianBlur stdDeviation="0.3125"/>
<feComposite in2="hardAlpha" operator="out"/>
<feColorMatrix type="matrix" values="0 0 0 0 0 0 0 0 0 0 0 0 0 0 0 0 0 0 0.12 0"/>
<feBlend mode="normal" in2="BackgroundImageFix" result="effect1_dropShadow_249_3328"/>
<feBlend mode="normal" in="SourceGraphic" in2="effect1_dropShadow_249_3328" result="shape"/>
</filter>
<filter id="filter1_f_249_3328" x="28.9375" y="44.3438" width="21.5625" height="15.625" filterUnits="userSpaceOnUse" color-interpolation-filters="sRGB">
<feFlood flood-opacity="0" result="BackgroundImageFix"/>
<feBlend mode="normal" in="SourceGraphic" in2="BackgroundImageFix" result="shape"/>
<feGaussianBlur stdDeviation="0.625" result="effect1_foregroundBlur_249_3328"/>
</filter>
<radialGradient id="paint0_radial_249_3328" cx="0" cy="0" r="1" gradientUnits="userSpaceOnUse" gradientTransform="translate(39.7188 52) rotate(90) scale(20 21.7188)">
<stop stop-color="#FFA565"/>
<stop offset="1" stop-color="#FFE499"/>
</radialGradient>
</defs>
</svg>
