<svg width="80" height="80" viewBox="0 0 80 80" fill="none" xmlns="http://www.w3.org/2000/svg">
<rect width="80" height="80" rx="16" fill="#FFFFFD"/>
<path d="M59.3049 14.8358C59.9675 14.8358 60.5649 14.7798 61.0969 14.6678C61.6289 14.5465 62.0442 14.3878 62.3429 14.1918C62.6415 13.9958 62.7909 13.7811 62.7909 13.5478C62.7909 13.3331 62.6369 13.1325 62.3289 12.9458C62.0302 12.7498 61.6149 12.5958 61.0829 12.4838C60.5509 12.3625 59.9582 12.3018 59.3049 12.3018C58.6515 12.3018 58.0589 12.3625 57.5269 12.4838C56.9949 12.5958 56.5749 12.7498 56.2669 12.9458C55.9682 13.1325 55.8189 13.3331 55.8189 13.5478C55.8189 13.7811 55.9682 13.9958 56.2669 14.1918C56.5655 14.3878 56.9809 14.5465 57.5129 14.6678C58.0449 14.7798 58.6422 14.8358 59.3049 14.8358ZM59.3049 16.7958C58.9595 16.7958 58.6095 16.7818 58.2549 16.7538V18.6438H60.3549V16.7538C60.0095 16.7818 59.6595 16.7958 59.3049 16.7958ZM53.4529 18.6438H56.7149V16.4878C55.0909 16.0211 54.2789 15.0458 54.2789 13.5618C54.2789 12.3485 54.7782 11.5085 55.7769 11.0418C56.7755 10.5751 57.9515 10.3418 59.3049 10.3418C60.6582 10.3418 61.8342 10.5751 62.8329 11.0418C63.8315 11.5085 64.3309 12.3485 64.3309 13.5618C64.3309 15.0458 63.5189 16.0211 61.8949 16.4878V18.6438H65.1569V20.6038H53.4529V18.6438Z" fill="#504339"/>
<path d="M49.6321 20.7438V10.3418H51.1721V14.5558H52.5021V16.5158H51.1721V20.7438H49.6321ZM44.1581 17.9858C44.6434 17.9858 45.0868 17.8831 45.4881 17.6778C45.8988 17.4631 46.2301 17.1598 46.4821 16.7678C46.7341 16.3758 46.8788 15.9138 46.9161 15.3818C46.9254 15.2791 46.9301 15.1298 46.9301 14.9338C46.9301 13.2258 46.1414 12.3718 44.5641 12.3718C43.8081 12.3718 43.1781 12.5911 42.6741 13.0298C42.1701 13.4591 41.8668 14.0378 41.7641 14.7658C41.7268 15.0831 41.7081 15.3071 41.7081 15.4378C41.7081 16.0258 41.8248 16.5111 42.0581 16.8938C42.3008 17.2765 42.6088 17.5565 42.9821 17.7338C43.3554 17.9018 43.7474 17.9858 44.1581 17.9858ZM44.1581 19.8758C43.4581 19.8758 42.8141 19.7078 42.2261 19.3718C41.6474 19.0265 41.1808 18.5225 40.8261 17.8598C40.4808 17.1878 40.3081 16.3945 40.3081 15.4798C40.3081 15.2091 40.3314 14.8871 40.3781 14.5138C40.4901 13.6645 40.7421 12.9365 41.1341 12.3298C41.5354 11.7231 42.0301 11.2658 42.6181 10.9578C43.2154 10.6405 43.8641 10.4818 44.5641 10.4818C45.2641 10.4818 45.8988 10.6358 46.4681 10.9438C47.0374 11.2425 47.4901 11.7185 47.8261 12.3718C48.1621 13.0251 48.3301 13.8465 48.3301 14.8358C48.3301 14.9665 48.3208 15.1811 48.3021 15.4798C48.2461 16.3851 48.0221 17.1691 47.6301 17.8318C47.2474 18.4945 46.7481 19.0031 46.1321 19.3578C45.5254 19.7031 44.8674 19.8758 44.1581 19.8758Z" fill="#504339"/>
<path d="M32.2592 18.3775C33.0245 18.3775 33.6545 18.3868 34.1492 18.4055C34.6439 18.4242 35.1059 18.4755 35.5352 18.5595C35.9645 18.4755 36.4265 18.4242 36.9212 18.4055C37.4159 18.3868 38.0459 18.3775 38.8112 18.3775V19.4555H37.9012C37.9105 19.5115 37.9152 19.5722 37.9152 19.6375C37.9152 20.1228 37.7005 20.4495 37.2712 20.6175C36.8419 20.7948 36.2679 20.8835 35.5492 20.8835C34.8212 20.8835 34.2379 20.7948 33.7992 20.6175C33.3699 20.4402 33.1552 20.1135 33.1552 19.6375C33.1645 19.5722 33.1692 19.5115 33.1692 19.4555H32.4972V20.7575H29.7952C29.1885 20.7575 28.7499 20.6268 28.4792 20.3655C28.2179 20.1135 28.0872 19.7542 28.0872 19.2875C28.0872 18.8115 28.2179 18.1722 28.4792 17.3695H29.9632C29.8512 17.6868 29.7579 17.9622 29.6832 18.1955C29.6179 18.4288 29.5852 18.5922 29.5852 18.6855C29.5852 18.7975 29.6272 18.8675 29.7112 18.8955C29.7952 18.9235 29.9632 18.9375 30.2152 18.9375H32.2592V18.3775ZM37.7752 18.1115H33.3092V17.0335H37.7752V18.1115ZM34.4712 19.6795C34.4712 19.7262 34.5645 19.7682 34.7512 19.8055C34.9472 19.8428 35.2132 19.8615 35.5492 19.8615C35.8852 19.8615 36.1419 19.8428 36.3192 19.8055C36.5059 19.7682 36.5992 19.7262 36.5992 19.6795C36.5992 19.6328 36.5012 19.5908 36.3052 19.5535C36.1092 19.5162 35.8572 19.4975 35.5492 19.4975C35.2319 19.4975 34.9705 19.5162 34.7652 19.5535C34.5692 19.5908 34.4712 19.6328 34.4712 19.6795ZM36.7532 16.6135V10.3415H38.2932V12.4975H39.6232V14.4575H38.2932V16.6135H36.7532ZM35.4652 13.9675H32.0912C32.0165 14.2475 31.9279 14.4902 31.8252 14.6955C32.1892 14.9288 32.7119 15.0455 33.3932 15.0455C33.9812 15.0455 34.6719 14.9615 35.4652 14.7935V16.4735C34.9332 16.5575 34.4432 16.5995 33.9952 16.5995C32.7259 16.5995 31.7272 16.2915 30.9992 15.6755C30.1965 16.3008 29.0205 16.6135 27.4712 16.6135V14.9475C28.2272 14.9475 28.8992 14.8822 29.4872 14.7515C30.0845 14.6115 30.5279 14.3502 30.8172 13.9675H27.4712V12.3015H35.4652V13.9675ZM34.4852 11.9375C33.1225 11.9375 31.9699 11.9282 31.0272 11.9095C30.0845 11.8908 29.1372 11.8442 28.1852 11.7695V10.1875C29.1185 10.2715 30.0519 10.3228 30.9852 10.3415C31.9185 10.3602 33.0852 10.3695 34.4852 10.3695V11.9375Z" fill="#504339"/>
<path d="M26.1143 20.7438H18.2043C17.3549 20.7438 16.7529 20.6271 16.3983 20.3938C16.0529 20.1698 15.8803 19.8431 15.8803 19.4138C15.8803 19.1898 15.9176 18.9471 15.9923 18.6858C16.0669 18.4245 16.1743 18.0978 16.3143 17.7058H17.7703C17.6209 18.0511 17.5463 18.3078 17.5463 18.4758C17.5463 18.6718 17.6256 18.8211 17.7843 18.9238C17.9523 19.0171 18.2323 19.0638 18.6243 19.0638H26.1143V20.7438ZM18.0783 12.8758V14.8498C19.2823 14.7751 20.4209 14.6071 21.4943 14.3458V10.3418H23.0343V12.8198H24.5743V10.3418H26.1143V17.4258H24.5743V14.7798H23.0343V17.4258H21.4943V16.3338C20.3743 16.5765 19.2916 16.7305 18.2463 16.7958C17.2009 16.8611 16.0109 16.8938 14.6763 16.8938V14.9338L16.5383 14.9198V12.8758H18.0783ZM18.7503 13.8978C18.9089 13.4965 19.0069 13.1978 19.0443 13.0018C19.0909 12.8058 19.1143 12.6285 19.1143 12.4698C19.1143 12.1711 18.7456 12.0218 18.0083 12.0218H14.7603V10.4818H18.0083C18.9883 10.4818 19.6743 10.6731 20.0663 11.0558C20.4583 11.4385 20.6543 11.8631 20.6543 12.3298C20.6543 12.6005 20.6403 12.8431 20.6123 13.0578C20.5843 13.2725 20.5096 13.5525 20.3883 13.8978H18.7503Z" fill="#504339"/>
<path d="M59.3047 8.3418C60.8854 8.3418 62.3626 8.61503 63.6797 9.23047C64.4942 9.61112 65.1955 10.1921 65.6758 11C66.1487 11.7956 66.331 12.6816 66.3311 13.5615C66.3311 14.6705 66.0224 15.7458 65.293 16.6436H67.1572V22.6035H51.4531V16.6436H53.3164C52.9344 16.1734 52.669 15.6544 52.502 15.1074V14.5557H52.3672C52.3076 14.2302 52.2793 13.8972 52.2793 13.5615C52.2794 12.6816 52.4616 11.7956 52.9346 11C53.4149 10.1921 54.1161 9.61109 54.9307 9.23047C56.2476 8.61513 57.7241 8.34182 59.3047 8.3418V10.3418C57.9516 10.3418 56.7759 10.5755 55.7773 11.042C54.7788 11.5086 54.2794 12.3484 54.2793 13.5615C54.2793 15.0455 55.0908 16.0216 56.7148 16.4883V18.6436H53.4531V20.6035H65.1572V18.6436H61.8945V16.4883C63.5185 16.0216 64.3311 15.0455 64.3311 13.5615C64.3309 12.3485 63.8315 11.5086 62.833 11.042C61.8343 10.5753 60.658 10.3418 59.3047 10.3418V8.3418ZM60.3545 18.6436H58.2549V16.7539C58.6095 16.7819 58.9594 16.7959 59.3047 16.7959C59.6592 16.7959 60.0093 16.7819 60.3545 16.7539V18.6436ZM59.3047 12.3018C59.958 12.3018 60.551 12.363 61.083 12.4844C61.6149 12.5964 62.0305 12.7503 62.3291 12.9463C62.6368 13.1329 62.7909 13.3333 62.791 13.5479C62.791 13.7812 62.6414 13.9964 62.3428 14.1924C62.0441 14.3883 61.6285 14.5467 61.0967 14.668C60.5647 14.7799 59.9673 14.8359 59.3047 14.8359C58.6421 14.8359 58.0446 14.78 57.5127 14.668C56.9808 14.5466 56.5652 14.3884 56.2666 14.1924C55.968 13.9964 55.8193 13.7812 55.8193 13.5479C55.8194 13.3333 55.9682 13.1329 56.2666 12.9463C56.5746 12.7503 56.9953 12.5964 57.5273 12.4844C58.0592 12.3631 58.6516 12.3018 59.3047 12.3018Z" fill="white"/>
<path d="M49.6318 10.3418V20.7441H51.1719V16.5156H52.502V14.5557H51.1719V10.3418H49.6318ZM44.8506 12.3818C46.2368 12.4819 46.9296 13.3326 46.9297 14.9336C46.9297 15.1295 46.9253 15.2792 46.916 15.3818C46.8787 15.9136 46.7342 16.3757 46.4824 16.7676C46.2305 17.1595 45.8988 17.4631 45.4883 17.6777C45.087 17.883 44.6435 17.9863 44.1582 17.9863C43.7477 17.9863 43.3556 17.9022 42.9824 17.7344C42.6091 17.557 42.3003 17.2762 42.0576 16.8936C41.8245 16.5111 41.7081 16.026 41.708 15.4385C41.708 15.3078 41.7263 15.083 41.7637 14.7656C41.8664 14.0379 42.17 13.4595 42.6738 13.0303C43.1778 12.5916 43.8085 12.3721 44.5645 12.3721L44.8506 12.3818ZM44.5645 14.3721C44.2234 14.3721 44.0792 14.4591 43.9873 14.5391L43.9795 14.5459L43.9707 14.5527C43.8823 14.6281 43.7905 14.7403 43.7471 15.0303C43.732 15.1601 43.7212 15.2615 43.7148 15.3379C43.7074 15.4269 43.708 15.4531 43.708 15.4385C43.7081 15.6906 43.7471 15.8067 43.7617 15.8418C43.7943 15.8898 43.8164 15.9109 43.8291 15.9199C43.9347 15.9638 44.0393 15.9863 44.1582 15.9863C44.3455 15.9863 44.4706 15.9492 44.5674 15.9014C44.6652 15.8491 44.7358 15.7861 44.7998 15.6865C44.8453 15.6157 44.9036 15.4878 44.9209 15.2422L44.9219 15.2217L44.9238 15.2012C44.9238 15.2012 44.9262 15.1801 44.9277 15.1309C44.9293 15.0822 44.9297 15.0168 44.9297 14.9336C44.9297 14.6421 44.8959 14.48 44.8711 14.4014C44.8157 14.3887 44.718 14.3721 44.5645 14.3721ZM53.1719 12.5557H54.4189C54.326 12.8563 54.2793 13.1914 54.2793 13.5615C54.2793 14.0092 54.3542 14.4105 54.502 14.7656V18.5156H53.1719V22.7441H47.6318V20.7627C47.4707 20.8787 47.3048 20.9901 47.1299 21.0908L47.1211 21.0957C46.2079 21.6155 45.2085 21.8759 44.1582 21.876C43.1224 21.876 42.134 21.623 41.2334 21.1084L41.2178 21.0986L41.2012 21.0898C40.2757 20.5376 39.5682 19.7486 39.0625 18.8037L39.0469 18.7744C38.5288 17.7662 38.3077 16.6467 38.3076 15.4805C38.3076 15.1591 38.3324 14.8154 38.3721 14.458H39.623V12.498H38.8281C38.9932 12.0597 39.1988 11.6393 39.4541 11.2441L39.4658 11.2266C40.0331 10.3691 40.7692 9.67064 41.6797 9.19141C42.5762 8.71516 43.5492 8.48242 44.5645 8.48242V10.4824C43.8645 10.4824 43.2155 10.6407 42.6182 10.958C42.0302 11.266 41.5351 11.7234 41.1338 12.3301C40.7419 12.9366 40.4899 13.6645 40.3779 14.5137C40.3313 14.887 40.3076 15.2098 40.3076 15.4805C40.3077 16.3949 40.4809 17.1885 40.8262 17.8604C41.1808 18.5227 41.6471 19.0268 42.2256 19.3721C42.8136 19.7081 43.4582 19.876 44.1582 19.876C44.8673 19.8759 45.5253 19.7036 46.1318 19.3584C46.7478 19.0037 47.2472 18.4947 47.6299 17.832C48.0218 17.1695 48.2457 16.3856 48.3018 15.4805C48.3204 15.1818 48.3301 14.9666 48.3301 14.8359C48.3301 13.8467 48.1621 13.0254 47.8262 12.3721C47.4902 11.7187 47.0371 11.243 46.4678 10.9443C45.9696 10.6748 45.4215 10.5229 44.8232 10.4893L44.5645 10.4824V8.48242C45.5601 8.48249 46.5178 8.70261 47.3965 9.17285C47.4041 9.17682 47.4124 9.18057 47.4199 9.18457H47.4189C47.4913 9.22301 47.5622 9.26318 47.6318 9.30469V8.3418H53.1719V12.5557Z" fill="white"/>
<path d="M36.7529 10.3418V16.6143H38.293V14.458H39.623V12.498H38.293V10.3418H36.7529ZM28.4795 17.3701C28.2182 18.1728 28.0869 18.8121 28.0869 19.2881C28.0869 19.7547 28.2182 20.1142 28.4795 20.3662C28.7502 20.6273 29.1886 20.7578 29.7949 20.7578H32.4971V19.4561H33.1689C33.1689 19.5119 33.1646 19.5725 33.1553 19.6377C33.1553 20.1136 33.3696 20.4408 33.7988 20.6182C34.2374 20.7955 34.821 20.8838 35.5488 20.8838C36.2675 20.8838 36.8422 20.7955 37.2715 20.6182C37.7006 20.4501 37.915 20.1229 37.915 19.6377C37.915 19.5725 37.9107 19.5119 37.9014 19.4561H38.8115V18.3779C38.0462 18.3779 37.4156 18.3876 36.9209 18.4062C36.4264 18.4249 35.9644 18.4756 35.5352 18.5596C35.1059 18.4756 34.6439 18.4249 34.1494 18.4062C33.6547 18.3876 33.0241 18.3779 32.2588 18.3779V18.9385H30.2148C29.963 18.9385 29.7949 18.9245 29.7109 18.8965C29.6269 18.8685 29.585 18.7975 29.585 18.6855C29.5851 18.5922 29.6175 18.429 29.6826 18.1963C29.7573 17.963 29.8509 17.6874 29.9629 17.3701H28.4795ZM35.5488 19.498C35.8566 19.498 36.1088 19.5164 36.3047 19.5537C36.5002 19.591 36.5982 19.6331 36.5986 19.6797C36.5986 19.7263 36.5058 19.7683 36.3193 19.8057C36.142 19.843 35.8848 19.8623 35.5488 19.8623C35.213 19.8623 34.9469 19.843 34.751 19.8057C34.5644 19.7683 34.4707 19.7263 34.4707 19.6797C34.4711 19.6332 34.5693 19.5909 34.7646 19.5537C34.9699 19.5164 35.2316 19.4981 35.5488 19.498ZM33.3096 17.0342V18.1123H37.7754V17.0342H33.3096ZM27.4707 12.3018V13.9678H30.8174C30.5281 14.3504 30.0845 14.6119 29.4873 14.752C28.8993 14.8826 28.2267 14.9482 27.4707 14.9482V16.6143C29.02 16.6143 30.1964 16.3011 30.999 15.6758C31.727 16.2918 32.7258 16.5996 33.9951 16.5996C34.4431 16.5996 34.9329 16.5576 35.4648 16.4736V14.7939C34.6718 14.9619 33.9814 15.0459 33.3936 15.0459C32.7123 15.0459 32.1892 14.9295 31.8252 14.6963C31.9279 14.491 32.0162 14.2478 32.0908 13.9678H35.4648V12.3018H27.4707ZM28.1855 11.7695C29.1374 11.8442 30.0848 11.8915 31.0273 11.9102C31.97 11.9288 33.1228 11.9385 34.4854 11.9385V10.3701C33.0855 10.3701 31.9186 10.3605 30.9854 10.3418C30.0522 10.3231 29.1187 10.2725 28.1855 10.1885V11.7695ZM40.293 10.498H41.623V11.7129C41.4471 11.8978 41.2837 12.1035 41.1338 12.3301C40.7419 12.9366 40.4899 13.6645 40.3779 14.5137C40.3313 14.887 40.3076 15.2098 40.3076 15.4805C40.3077 16.3812 40.4766 17.1637 40.8115 17.8291V21.4561H39.3457C38.9876 21.9484 38.5152 22.2711 38.0332 22.4658L38.0342 22.4668C38.0285 22.4691 38.0223 22.4703 38.0166 22.4727C38.0109 22.4749 38.0057 22.4782 38 22.4805L37.999 22.4795C37.2408 22.785 36.3883 22.8838 35.5488 22.8838C35.0466 22.8838 34.542 22.8481 34.0557 22.7578H29.7949C28.9729 22.7578 27.9056 22.5923 27.0898 21.8047V21.8037C26.4659 21.2013 26.1916 20.4535 26.1143 19.7344V19.0645H26.0938C26.1006 18.9168 26.1137 18.7666 26.1328 18.6143H25.4707V17.4258H26.1143V10.3418H25.4707V10.3018H26.1855V8L28.3643 8.19629C29.2514 8.27614 30.1387 8.32504 31.0254 8.34277C31.9405 8.36107 33.093 8.37012 34.4854 8.37012H34.7529V8.3418H40.293V10.498Z" fill="white"/>
<path d="M16.3145 17.7061C16.1745 18.0978 16.0668 18.4243 15.9922 18.6855C15.9175 18.9469 15.8799 19.1901 15.8799 19.4141C15.8799 19.8434 16.0531 20.1696 16.3984 20.3936C16.7531 20.6269 17.3548 20.7441 18.2041 20.7441H26.1143V19.0645H18.624C18.2321 19.0644 17.9522 19.0171 17.7842 18.9238C17.6256 18.8212 17.5459 18.6716 17.5459 18.4756C17.546 18.3076 17.6213 18.0511 17.7705 17.7061H16.3145ZM14.7598 10.4824V12.0225H18.0078C18.7449 12.0225 19.114 12.1712 19.1143 12.4697C19.1143 12.6284 19.0906 12.806 19.0439 13.002C19.0066 13.198 18.9087 13.4971 18.75 13.8984H20.3887C20.51 13.5531 20.5843 13.2723 20.6123 13.0576C20.6403 12.8431 20.6543 12.6005 20.6543 12.3301C20.6543 11.8634 20.4584 11.4383 20.0664 11.0557C19.6744 10.673 18.9878 10.4824 18.0078 10.4824H14.7598ZM23.0342 10.3418H21.4941V14.3457C20.4208 14.607 19.2821 14.7749 18.0781 14.8496V12.876H16.5381V14.9199L14.6758 14.9336V16.8936C16.0104 16.8936 17.2008 16.8612 18.2461 16.7959C19.2914 16.7306 20.3742 16.5766 21.4941 16.334V17.4258H23.0342V14.7803H24.5742V17.4258H26.1143V10.3418H24.5742V12.8203H23.0342V10.3418ZM28.1143 12.3018H27.4707V13.9678H28.1143V14.9287C27.907 14.9399 27.6924 14.9482 27.4707 14.9482V16.6143C27.6928 16.6143 27.9075 16.6066 28.1143 16.5938V18.8789C28.0962 19.0266 28.0869 19.163 28.0869 19.2881C28.0869 19.41 28.0964 19.5246 28.1143 19.6318V22.7441H18.2041C17.2903 22.7441 16.1817 22.6401 15.3096 22.0713C14.3672 21.4598 13.8799 20.4857 13.8799 19.4141C13.8799 19.2379 13.8949 19.0644 13.916 18.8936H12.6758V12.9492L12.7598 12.9482V8.48242H18.0078C18.4776 8.48242 18.9883 8.51728 19.4941 8.62598V8.3418H28.1143V12.3018Z" fill="white"/>
<g filter="url(#filter0_d_249_3396)">
<path d="M38.888 35.6736C34.1096 30.7755 26.3623 30.7755 21.5838 35.6736C16.8054 40.5716 16.8054 48.5129 21.5838 53.411L39.7188 72L57.8537 53.411C62.6321 48.5129 62.6321 40.5716 57.8537 35.6736C53.0753 30.7755 45.3279 30.7755 40.5495 35.6736L39.7188 36.5251L38.888 35.6736Z" fill="url(#paint0_radial_249_3396)"/>
<path d="M39.5586 35.0186C34.4123 29.7439 26.0593 29.7438 20.9131 35.0186C15.7794 40.2808 15.7794 48.8032 20.9131 54.0654L39.0479 72.6543C39.2243 72.8351 39.4661 72.9375 39.7188 72.9375C39.9714 72.9375 40.2132 72.8351 40.3896 72.6543L58.5244 54.0654C63.6581 48.8032 63.6581 40.2808 58.5244 35.0186C53.3782 29.7438 45.0252 29.7439 39.8789 35.0186L39.7188 35.1826L39.5586 35.0186Z" stroke="white" stroke-width="1.875" stroke-linecap="round" stroke-linejoin="round"/>
</g>
<g filter="url(#filter1_f_249_3396)">
<path d="M49.25 53.517H44.5119L43.1897 49.3756L41.3165 58.25L39.2229 46.0625L37.1293 56.1201L35.3663 51.0322L33.9339 53.517H30.1875" stroke="#FF726D" stroke-width="0.9375" stroke-linejoin="round"/>
</g>
<circle cx="34.5625" cy="41.375" r="0.9375" fill="#504339"/>
<circle cx="45.1875" cy="41.375" r="0.9375" fill="#504339"/>
<path d="M42.6875 44.5C42.6875 45.7081 41.4983 46.6875 40.0312 46.6875C38.5642 46.6875 37.375 45.7081 37.375 44.5" stroke="#504339" stroke-width="0.9375" stroke-linecap="round" stroke-linejoin="round"/>
<defs>
<filter id="filter0_d_249_3396" x="16.125" y="30.125" width="48.4375" height="45" filterUnits="userSpaceOnUse" color-interpolation-filters="sRGB">
<feFlood flood-opacity="0" result="BackgroundImageFix"/>
<feColorMatrix in="SourceAlpha" type="matrix" values="0 0 0 0 0 0 0 0 0 0 0 0 0 0 0 0 0 0 127 0" result="hardAlpha"/>
<feOffset dx="0.625" dy="0.625"/>
<feGaussianBlur stdDeviation="0.3125"/>
<feComposite in2="hardAlpha" operator="out"/>
<feColorMatrix type="matrix" values="0 0 0 0 0 0 0 0 0 0 0 0 0 0 0 0 0 0 0.12 0"/>
<feBlend mode="normal" in2="BackgroundImageFix" result="effect1_dropShadow_249_3396"/>
<feBlend mode="normal" in="SourceGraphic" in2="effect1_dropShadow_249_3396" result="shape"/>
</filter>
<filter id="filter1_f_249_3396" x="28.9375" y="44.3438" width="21.5625" height="15.625" filterUnits="userSpaceOnUse" color-interpolation-filters="sRGB">
<feFlood flood-opacity="0" result="BackgroundImageFix"/>
<feBlend mode="normal" in="SourceGraphic" in2="BackgroundImageFix" result="shape"/>
<feGaussianBlur stdDeviation="0.625" result="effect1_foregroundBlur_249_3396"/>
</filter>
<radialGradient id="paint0_radial_249_3396" cx="0" cy="0" r="1" gradientUnits="userSpaceOnUse" gradientTransform="translate(39.7188 52) rotate(90) scale(20 21.7188)">
<stop stop-color="#FF867B"/>
<stop offset="1" stop-color="#FFD8D2"/>
</radialGradient>
</defs>
</svg>
