<svg width="80" height="80" viewBox="0 0 80 80" fill="none" xmlns="http://www.w3.org/2000/svg">
<rect width="80" height="80" rx="16" fill="#FFFFFD"/>
<path d="M59.3352 15.1639C59.9978 15.1639 60.5952 15.1079 61.1272 14.9959C61.6592 14.8746 62.0745 14.7159 62.3732 14.5199C62.6718 14.3239 62.8212 14.1093 62.8212 13.8759C62.8212 13.6613 62.6672 13.4606 62.3592 13.2739C62.0605 13.0779 61.6452 12.9239 61.1132 12.8119C60.5812 12.6906 59.9885 12.6299 59.3352 12.6299C58.6818 12.6299 58.0892 12.6906 57.5572 12.8119C57.0252 12.9239 56.6052 13.0779 56.2972 13.2739C55.9985 13.4606 55.8492 13.6613 55.8492 13.8759C55.8492 14.1093 55.9985 14.3239 56.2972 14.5199C56.5958 14.7159 57.0112 14.8746 57.5432 14.9959C58.0752 15.1079 58.6725 15.1639 59.3352 15.1639ZM59.3352 17.1239C58.9898 17.1239 58.6398 17.1099 58.2852 17.0819V18.9719H60.3852V17.0819C60.0398 17.1099 59.6898 17.1239 59.3352 17.1239ZM53.4832 18.9719H56.7452V16.8159C55.1212 16.3493 54.3092 15.3739 54.3092 13.8899C54.3092 12.6766 54.8085 11.8366 55.8072 11.3699C56.8058 10.9033 57.9818 10.6699 59.3352 10.6699C60.6885 10.6699 61.8645 10.9033 62.8632 11.3699C63.8618 11.8366 64.3612 12.6766 64.3612 13.8899C64.3612 15.3739 63.5492 16.3493 61.9252 16.8159V18.9719H65.1872V20.9319H53.4832V18.9719Z" fill="#504339"/>
<path d="M47.2823 21.072V10.67H48.8223V14.674H50.3623V10.67H51.9023V21.072H50.3623V16.634H48.8223V21.072H47.2823ZM40.3523 13.568C41.5283 13.568 42.569 13.736 43.4743 14.072C44.3796 13.736 45.4203 13.568 46.5963 13.568V15.43C46.279 15.43 45.8963 15.4533 45.4483 15.5C45.7936 16.0133 45.9663 16.6153 45.9663 17.306C45.9663 17.9593 45.8543 18.5146 45.6303 18.972C45.4063 19.42 45.1076 19.756 44.7343 19.98C44.361 20.1946 43.941 20.302 43.4743 20.302C43.0076 20.302 42.583 20.19 42.2003 19.966C41.827 19.742 41.5283 19.406 41.3043 18.958C41.0803 18.5006 40.9683 17.95 40.9683 17.306C40.9683 16.6153 41.141 16.0133 41.4863 15.5C41.141 15.4533 40.763 15.43 40.3523 15.43V13.568ZM45.7563 12.378C44.7483 12.378 43.8943 12.364 43.1943 12.336C42.5036 12.308 41.8036 12.2333 41.0943 12.112V10.376C41.7943 10.4973 42.485 10.5766 43.1663 10.614C43.857 10.642 44.7203 10.656 45.7563 10.656V12.378ZM42.6343 17.306C42.6343 17.6513 42.723 17.9313 42.9003 18.146C43.087 18.3513 43.2783 18.454 43.4743 18.454C43.6703 18.454 43.857 18.3513 44.0343 18.146C44.221 17.9313 44.3143 17.6513 44.3143 17.306C44.3143 16.8113 44.0343 16.4053 43.4743 16.088C42.9143 16.4053 42.6343 16.8113 42.6343 17.306Z" fill="#504339"/>
<path d="M34.4034 21.072V10.67H35.9434V14.674H37.4834V10.67H39.0234V21.072H37.4834V16.634H35.9434V21.072H34.4034ZM27.4734 13.568C28.6494 13.568 29.6901 13.736 30.5954 14.072C31.5007 13.736 32.5414 13.568 33.7174 13.568V15.43C33.4001 15.43 33.0174 15.4533 32.5694 15.5C32.9147 16.0133 33.0874 16.6153 33.0874 17.306C33.0874 17.9593 32.9754 18.5146 32.7514 18.972C32.5274 19.42 32.2287 19.756 31.8554 19.98C31.4821 20.1946 31.0621 20.302 30.5954 20.302C30.1287 20.302 29.7041 20.19 29.3214 19.966C28.9481 19.742 28.6494 19.406 28.4254 18.958C28.2014 18.5006 28.0894 17.95 28.0894 17.306C28.0894 16.6153 28.2621 16.0133 28.6074 15.5C28.2621 15.4533 27.8841 15.43 27.4734 15.43V13.568ZM32.8774 12.378C31.8694 12.378 31.0154 12.364 30.3154 12.336C29.6247 12.308 28.9247 12.2333 28.2154 12.112V10.376C28.9154 10.4973 29.6061 10.5766 30.2874 10.614C30.9781 10.642 31.8414 10.656 32.8774 10.656V12.378ZM29.7554 17.306C29.7554 17.6513 29.8441 17.9313 30.0214 18.146C30.2081 18.3513 30.3994 18.454 30.5954 18.454C30.7914 18.454 30.9781 18.3513 31.1554 18.146C31.3421 17.9313 31.4354 17.6513 31.4354 17.306C31.4354 16.8113 31.1554 16.4053 30.5954 16.088C30.0354 16.4053 29.7554 16.8113 29.7554 17.306Z" fill="#504339"/>
<path d="M24.3245 21.0719V10.6699H25.8645V21.0719H24.3245ZM18.8505 18.3139C19.3358 18.3139 19.7792 18.2113 20.1805 18.0059C20.5912 17.7913 20.9225 17.4879 21.1745 17.0959C21.4265 16.7039 21.5712 16.2419 21.6085 15.7099C21.6178 15.6073 21.6225 15.4579 21.6225 15.2619C21.6225 13.5539 20.8338 12.6999 19.2565 12.6999C18.5005 12.6999 17.8705 12.9193 17.3665 13.3579C16.8625 13.7873 16.5592 14.3659 16.4565 15.0939C16.4192 15.4113 16.4005 15.6353 16.4005 15.7659C16.4005 16.3539 16.5172 16.8393 16.7505 17.2219C16.9932 17.6046 17.3012 17.8846 17.6745 18.0619C18.0478 18.2299 18.4398 18.3139 18.8505 18.3139ZM18.8505 20.2039C18.1505 20.2039 17.5065 20.0359 16.9185 19.6999C16.3398 19.3546 15.8732 18.8506 15.5185 18.1879C15.1732 17.5159 15.0005 16.7226 15.0005 15.8079C15.0005 15.5373 15.0238 15.2153 15.0705 14.8419C15.1825 13.9926 15.4345 13.2646 15.8265 12.6579C16.2278 12.0513 16.7225 11.5939 17.3105 11.2859C17.9078 10.9686 18.5565 10.8099 19.2565 10.8099C19.9565 10.8099 20.5912 10.9639 21.1605 11.2719C21.7298 11.5706 22.1825 12.0466 22.5185 12.6999C22.8545 13.3533 23.0225 14.1746 23.0225 15.1639C23.0225 15.2946 23.0132 15.5093 22.9945 15.8079C22.9385 16.7133 22.7145 17.4973 22.3225 18.1599C21.9398 18.8226 21.4405 19.3313 20.8245 19.6859C20.2178 20.0313 19.5598 20.2039 18.8505 20.2039Z" fill="#504339"/>
<path d="M59.335 8.66992C60.9157 8.66992 62.3929 8.94315 63.71 9.55859C64.5245 9.93925 65.2258 10.5202 65.7061 11.3281C66.179 12.1238 66.3613 13.0097 66.3613 13.8896C66.3613 14.9986 66.0527 16.074 65.3232 16.9717H67.1875V22.9316H51.4834V21.0723H51.9023V16.9717H53.3467C52.6173 16.074 52.3096 14.9985 52.3096 13.8896C52.3096 13.0097 52.4919 12.1238 52.9648 11.3281C53.4451 10.5203 54.1464 9.93922 54.9609 9.55859C56.2779 8.94325 57.7544 8.66995 59.335 8.66992V10.6699C57.9819 10.6699 56.8062 10.9036 55.8076 11.3701C54.8091 11.8367 54.3097 12.6766 54.3096 13.8896C54.3096 15.3736 55.1211 16.3497 56.7451 16.8164V18.9717H53.4834V20.9316H65.1875V18.9717H61.9248V16.8164C63.5488 16.3497 64.3613 15.3736 64.3613 13.8896C64.3612 12.6766 63.8618 11.8367 62.8633 11.3701C61.8646 10.9035 60.6883 10.6699 59.335 10.6699V8.66992ZM60.3848 18.9717H58.2852V17.082C58.6397 17.11 58.9897 17.124 59.335 17.124C59.6895 17.124 60.0396 17.11 60.3848 17.082V18.9717ZM59.335 12.6299C59.9883 12.6299 60.5813 12.6912 61.1133 12.8125C61.6452 12.9245 62.0607 13.0784 62.3594 13.2744C62.6671 13.461 62.8212 13.6614 62.8213 13.876C62.8213 14.1093 62.6717 14.3245 62.373 14.5205C62.0744 14.7164 61.6588 14.8748 61.127 14.9961C60.595 15.1081 59.9975 15.1641 59.335 15.1641C58.6724 15.1641 58.0749 15.1081 57.543 14.9961C57.0111 14.8748 56.5955 14.7165 56.2969 14.5205C55.9982 14.3245 55.8496 14.1093 55.8496 13.876C55.8497 13.6614 55.9985 13.461 56.2969 13.2744C56.6049 13.0784 57.0256 12.9245 57.5576 12.8125C58.0895 12.6912 58.6819 12.6299 59.335 12.6299Z" fill="white"/>
<path d="M46.5967 13.5684C45.4208 13.5684 44.3799 13.7363 43.4746 14.0723C42.5693 13.7363 41.5284 13.5684 40.3525 13.5684V15.4297C40.7631 15.4297 41.1411 15.4533 41.4863 15.5C41.1411 16.0132 40.9688 16.6152 40.9688 17.3057C40.9688 17.9497 41.0807 18.5007 41.3047 18.958C41.5286 19.4059 41.827 19.7418 42.2002 19.9658C42.5829 20.1898 43.0079 20.3018 43.4746 20.3018C43.9411 20.3017 44.3611 20.1951 44.7344 19.9805C45.1077 19.7565 45.4059 19.4197 45.6299 18.9717C45.8538 18.5144 45.9658 17.9589 45.9658 17.3057C45.9657 16.6152 45.7935 16.0132 45.4482 15.5C45.8962 15.4533 46.2793 15.4297 46.5967 15.4297V13.5684ZM43.4746 16.0879C44.0343 16.4051 44.3143 16.8113 44.3145 17.3057L44.3096 17.4326C44.2891 17.7205 44.1975 17.9587 44.0342 18.1465C43.857 18.3515 43.6704 18.454 43.4746 18.4541C43.2787 18.4541 43.087 18.3516 42.9004 18.1465C42.7231 17.9318 42.6338 17.651 42.6338 17.3057C42.634 16.8112 42.9148 16.4051 43.4746 16.0879ZM43.2402 16.4736L43.1455 16.6162C43.0963 16.6894 43.0517 16.7773 43.0195 16.8896L43.2568 16.4707C43.2512 16.4715 43.2458 16.4727 43.2402 16.4736ZM43.8867 16.8164C43.8579 16.7386 43.8268 16.6723 43.7891 16.6162L43.6924 16.4717L43.8867 16.8164ZM48.8223 10.6699H47.2822V21.0723H48.8223V16.6338H50.3623V21.0723H51.9023V10.6699H50.3623V14.6738H48.8223V10.6699ZM41.0947 12.1123C41.8039 12.2336 42.5038 12.3079 43.1943 12.3359C43.8942 12.3639 44.7481 12.3779 45.7559 12.3779V10.6562C44.72 10.6562 43.8566 10.6423 43.166 10.6143C42.4849 10.5769 41.7945 10.4973 41.0947 10.376V12.1123ZM53.9023 18.9717H53.4834V20.9316H53.9023V23.0723H45.2822V21.9365C44.7067 22.1845 44.0966 22.3017 43.4746 22.3018C42.6722 22.3018 41.8949 22.1053 41.1895 21.6924L41.1807 21.6865L41.1709 21.6807C40.4249 21.2329 39.8835 20.5882 39.5156 19.8525L39.5117 19.8457L39.5078 19.8379C39.2485 19.3084 39.0969 18.7459 39.0234 18.1719V11.5684H39.0947V8L41.4355 8.40527C42.0597 8.51346 42.6711 8.58317 43.2695 8.61621C43.9201 8.64214 44.7467 8.65625 45.7559 8.65625H47.7559V8.66992H53.9023V18.9717Z" fill="white"/>
<path d="M33.7178 13.5684C32.5419 13.5684 31.501 13.7363 30.5957 14.0723C29.6904 13.7363 28.6495 13.5684 27.4736 13.5684V15.4297C27.8842 15.4297 28.2622 15.4533 28.6074 15.5C28.2622 16.0132 28.0899 16.6152 28.0898 17.3057C28.0898 17.9497 28.2018 18.5007 28.4258 18.958C28.6497 19.4059 28.9481 19.7418 29.3213 19.9658C29.704 20.1898 30.129 20.3018 30.5957 20.3018C31.0622 20.3017 31.4822 20.1951 31.8555 19.9805C32.2288 19.7565 32.527 19.4197 32.751 18.9717C32.9749 18.5144 33.0869 17.9589 33.0869 17.3057C33.0868 16.6152 32.9146 16.0132 32.5693 15.5C33.0173 15.4533 33.4004 15.4297 33.7178 15.4297V13.5684ZM30.5957 16.0879C31.1554 16.4051 31.4354 16.8113 31.4355 17.3057L31.4307 17.4326C31.4102 17.7205 31.3186 17.9587 31.1553 18.1465C30.9781 18.3515 30.7915 18.454 30.5957 18.4541C30.3998 18.4541 30.2081 18.3516 30.0215 18.1465C29.8442 17.9318 29.7549 17.651 29.7549 17.3057C29.7551 16.8112 30.0359 16.4051 30.5957 16.0879ZM30.3613 16.4736L30.2666 16.6162C30.2174 16.6894 30.1728 16.7773 30.1406 16.8896L30.3779 16.4707C30.3723 16.4715 30.3669 16.4727 30.3613 16.4736ZM31.0078 16.8164C30.979 16.7386 30.9479 16.6723 30.9102 16.6162L30.8135 16.4717L31.0078 16.8164ZM35.9434 10.6699H34.4033V21.0723H35.9434V16.6338H37.4834V21.0723H39.0234V10.6699H37.4834V14.6738H35.9434V10.6699ZM28.2158 12.1123C28.925 12.2336 29.6249 12.3079 30.3154 12.3359C31.0153 12.3639 31.8692 12.3779 32.877 12.3779V10.6562C31.8411 10.6562 30.9777 10.6423 30.2871 10.6143C29.606 10.5769 28.9156 10.4973 28.2158 10.376V12.1123ZM41.0234 13.5889C40.8049 13.5761 40.5813 13.5684 40.3525 13.5684V15.4297C40.5868 15.4297 40.8104 15.4379 41.0234 15.4531V16.6709C40.9881 16.8736 40.9688 17.0849 40.9688 17.3057C40.9688 17.5637 40.9875 17.8071 41.0234 18.0352V23.0723H32.4033V21.9365C31.8278 22.1845 31.2177 22.3017 30.5957 22.3018C29.7933 22.3018 29.016 22.1053 28.3105 21.6924L28.3018 21.6865L28.292 21.6807C27.546 21.2329 27.0046 20.5882 26.6367 19.8525L26.6328 19.8457L26.6289 19.8379C26.2585 19.0816 26.1066 18.2585 26.0928 17.4297H25.8643V11.5684H26.2158V8L28.5566 8.40527C29.1808 8.51346 29.7922 8.58317 30.3906 8.61621C31.0411 8.64214 31.8678 8.65625 32.877 8.65625H34.877V8.66992H41.0234V13.5889Z" fill="white"/>
<path d="M24.3242 10.6699V21.0723H25.8643V10.6699H24.3242ZM19.543 12.71C20.9292 12.81 21.622 13.6607 21.6221 15.2617C21.6221 15.4576 21.6177 15.6073 21.6084 15.71C21.5711 16.2418 21.4266 16.7038 21.1748 17.0957C20.9229 17.4876 20.5912 17.7912 20.1807 18.0059C19.7794 18.2112 19.3359 18.3144 18.8506 18.3145C18.4401 18.3145 18.048 18.2304 17.6748 18.0625C17.3015 17.8852 16.9927 17.6043 16.75 17.2217C16.5169 16.8392 16.4005 16.3541 16.4004 15.7666C16.4004 15.6359 16.4187 15.4111 16.4561 15.0938C16.5587 14.366 16.8625 13.7876 17.3662 13.3584C17.8702 12.9197 18.5008 12.7002 19.2568 12.7002L19.543 12.71ZM19.2568 14.7002C18.9157 14.7002 18.7716 14.7872 18.6797 14.8672L18.6719 14.874L18.6631 14.8809C18.5744 14.9565 18.4817 15.0691 18.4385 15.3613C18.4236 15.4897 18.4135 15.5903 18.4072 15.666C18.3998 15.755 18.4004 15.7812 18.4004 15.7666C18.4004 16.0187 18.4395 16.1348 18.4541 16.1699C18.4866 16.2179 18.5087 16.239 18.5215 16.248C18.6271 16.2919 18.7316 16.3145 18.8506 16.3145C19.0378 16.3144 19.163 16.2773 19.2598 16.2295C19.3577 16.1772 19.4281 16.1143 19.4922 16.0146C19.5377 15.9438 19.596 15.816 19.6133 15.5703L19.6152 15.5498L19.6162 15.5293C19.6162 15.5293 19.6186 15.5082 19.6201 15.459C19.6216 15.4104 19.6221 15.3449 19.6221 15.2617C19.622 14.9702 19.5883 14.8081 19.5635 14.7295C19.508 14.7168 19.4103 14.7002 19.2568 14.7002ZM27.8643 13.5752C27.7357 13.571 27.6056 13.5684 27.4736 13.5684V15.4297C27.6073 15.4297 27.7375 15.4326 27.8643 15.4375V23.0723H22.3242V21.0908C22.1631 21.2069 21.9972 21.3182 21.8223 21.4189L21.8135 21.4238C20.9003 21.9436 19.9009 22.2041 18.8506 22.2041C17.8147 22.2041 16.8264 21.9512 15.9258 21.4365L15.9102 21.4268L15.8936 21.418C14.9681 20.8657 14.2606 20.0767 13.7549 19.1318L13.7393 19.1025C13.2211 18.0943 13.0001 16.9748 13 15.8086C13 15.4301 13.0326 15.0202 13.0859 14.5938L13.0879 14.5811C13.2315 13.4921 13.5665 12.4698 14.1465 11.5723L14.1582 11.5547C14.7254 10.6972 15.4616 9.99876 16.3721 9.51953C17.2686 9.04327 18.2415 8.81055 19.2568 8.81055V10.8105C18.5569 10.8105 17.9079 10.9688 17.3105 11.2861C16.7225 11.5941 16.2275 12.0515 15.8262 12.6582C15.4343 13.2648 15.1823 13.9927 15.0703 14.8418C15.0236 15.2151 15 15.5379 15 15.8086C15.0001 16.7231 15.1733 17.5166 15.5186 18.1885C15.8732 18.851 16.3404 19.3549 16.9189 19.7002C17.5068 20.036 18.1507 20.2041 18.8506 20.2041C19.5597 20.2041 20.2177 20.0317 20.8242 19.6865C21.4402 19.3319 21.9396 18.8228 22.3223 18.1602C22.7142 17.4976 22.9381 16.7137 22.9941 15.8086C23.0128 15.5099 23.0225 15.2947 23.0225 15.1641C23.0225 14.1748 22.8545 13.3535 22.5186 12.7002C22.1826 12.0469 21.7295 11.5711 21.1602 11.2725C20.6619 11.003 20.1139 10.851 19.5156 10.8174L19.2568 10.8105V8.81055C20.2525 8.8106 21.2102 9.03075 22.0889 9.50098C22.0964 9.50494 22.1048 9.5087 22.1123 9.5127H22.1113C22.1837 9.55114 22.2546 9.59131 22.3242 9.63281V8.66992H27.8643V13.5752Z" fill="white"/>
<g filter="url(#filter0_d_249_3417)">
<path d="M40.5495 35.6736C45.3279 30.7755 53.0752 30.7755 57.8537 35.6736C62.6321 40.5716 62.6321 48.5129 57.8537 53.411L39.7187 72L21.5838 53.411C16.8054 48.5129 16.8054 40.5716 21.5838 35.6736C26.3622 30.7755 34.1096 30.7755 38.888 35.6736L39.7187 36.5251L40.5495 35.6736Z" fill="url(#paint0_radial_249_3417)"/>
<path d="M39.8789 35.0186C45.0252 29.7439 53.3782 29.7438 58.5244 35.0186C63.6581 40.2808 63.6581 48.8032 58.5244 54.0654L40.3896 72.6543C40.2132 72.8351 39.9714 72.9375 39.7188 72.9375C39.4661 72.9375 39.2243 72.8351 39.0479 72.6543L20.9131 54.0654C15.7794 48.8032 15.7794 40.2808 20.9131 35.0186C26.0593 29.7438 34.4123 29.7439 39.5586 35.0186L39.7188 35.1826L39.8789 35.0186Z" stroke="white" stroke-width="1.875" stroke-linecap="round" stroke-linejoin="round"/>
</g>
<g filter="url(#filter1_f_249_3417)">
<path d="M30.1875 53.517H34.9256L36.2478 49.3756L38.121 58.25L40.2146 46.0625L42.3082 56.1201L44.0712 51.0322L45.5036 53.517H49.25" stroke="#FF8C4D" stroke-width="0.9375" stroke-linejoin="round"/>
</g>
<path d="M40.8125 44.8125C40.8125 46.0206 39.6233 47 38.1562 47C36.6892 47 35.5 46.0206 35.5 44.8125" stroke="#504339" stroke-width="0.9375" stroke-linecap="round" stroke-linejoin="round"/>
<path d="M33.625 41.0625C33.625 41.5803 33.2053 42 32.6875 42C32.1697 42 31.75 41.5803 31.75 41.0625" stroke="#504339" stroke-width="0.9375" stroke-linecap="round"/>
<path d="M44.25 41.0625C44.25 41.5803 43.8303 42 43.3125 42C42.7947 42 42.375 41.5803 42.375 41.0625" stroke="#504339" stroke-width="0.9375" stroke-linecap="round"/>
<defs>
<filter id="filter0_d_249_3417" x="16.125" y="30.125" width="48.4375" height="45" filterUnits="userSpaceOnUse" color-interpolation-filters="sRGB">
<feFlood flood-opacity="0" result="BackgroundImageFix"/>
<feColorMatrix in="SourceAlpha" type="matrix" values="0 0 0 0 0 0 0 0 0 0 0 0 0 0 0 0 0 0 127 0" result="hardAlpha"/>
<feOffset dx="0.625" dy="0.625"/>
<feGaussianBlur stdDeviation="0.3125"/>
<feComposite in2="hardAlpha" operator="out"/>
<feColorMatrix type="matrix" values="0 0 0 0 0 0 0 0 0 0 0 0 0 0 0 0 0 0 0.12 0"/>
<feBlend mode="normal" in2="BackgroundImageFix" result="effect1_dropShadow_249_3417"/>
<feBlend mode="normal" in="SourceGraphic" in2="effect1_dropShadow_249_3417" result="shape"/>
</filter>
<filter id="filter1_f_249_3417" x="28.9375" y="44.3438" width="21.5625" height="15.625" filterUnits="userSpaceOnUse" color-interpolation-filters="sRGB">
<feFlood flood-opacity="0" result="BackgroundImageFix"/>
<feBlend mode="normal" in="SourceGraphic" in2="BackgroundImageFix" result="shape"/>
<feGaussianBlur stdDeviation="0.625" result="effect1_foregroundBlur_249_3417"/>
</filter>
<radialGradient id="paint0_radial_249_3417" cx="0" cy="0" r="1" gradientUnits="userSpaceOnUse" gradientTransform="translate(39.7188 52) rotate(90) scale(20 21.7188)">
<stop stop-color="#FFA565"/>
<stop offset="1" stop-color="#FFE499"/>
</radialGradient>
</defs>
</svg>
