<svg width="84" height="78" viewBox="0 0 84 78" fill="none" xmlns="http://www.w3.org/2000/svg">
<g filter="url(#filter0_d_396_2305)">
<path d="M42.8391 8.8624C51.4403 0.0458672 65.3855 0.0458667 73.9866 8.8624C82.5878 17.6789 82.5878 31.9733 73.9866 40.7898L41.3438 74.25L8.70088 40.7898C0.0997071 31.9733 0.0997071 17.6789 8.70088 8.8624C17.302 0.0458667 31.2472 0.0458667 39.8484 8.8624L41.3438 10.3952L42.8391 8.8624Z" fill="url(#paint0_radial_396_2305)"/>
<path d="M42.8391 8.8624C51.4403 0.0458672 65.3855 0.0458667 73.9866 8.8624C82.5878 17.6789 82.5878 31.9733 73.9866 40.7898L41.3438 74.25L8.70088 40.7898C0.0997071 31.9733 0.0997071 17.6789 8.70088 8.8624C17.302 0.0458667 31.2472 0.0458667 39.8484 8.8624L41.3438 10.3952L42.8391 8.8624Z" stroke="white" stroke-width="3.375" stroke-linecap="round" stroke-linejoin="round"/>
</g>
<g filter="url(#filter1_f_396_2305)">
<path d="M24.1875 40.9806H32.716L35.0961 33.5261L38.4678 49.5L42.2363 27.5625L46.0047 45.6663L49.1781 36.5079L51.7565 40.9806H58.5" stroke="#FF8C4D" stroke-width="1.6875" stroke-linejoin="round"/>
</g>
<circle cx="28.6875" cy="19.6875" r="1.6875" fill="#504339"/>
<circle cx="47.8125" cy="19.6875" r="1.6875" fill="#504339"/>
<path d="M43.3125 25.3125C43.3125 27.4871 41.1719 29.25 38.5312 29.25C35.8906 29.25 33.75 27.4871 33.75 25.3125" stroke="#504339" stroke-width="1.6875" stroke-linecap="round" stroke-linejoin="round"/>
<defs>
<filter id="filter0_d_396_2305" x="0" y="0" width="83.8125" height="77.625" filterUnits="userSpaceOnUse" color-interpolation-filters="sRGB">
<feFlood flood-opacity="0" result="BackgroundImageFix"/>
<feColorMatrix in="SourceAlpha" type="matrix" values="0 0 0 0 0 0 0 0 0 0 0 0 0 0 0 0 0 0 127 0" result="hardAlpha"/>
<feOffset dx="0.5625" dy="0.5625"/>
<feGaussianBlur stdDeviation="0.5625"/>
<feComposite in2="hardAlpha" operator="out"/>
<feColorMatrix type="matrix" values="0 0 0 0 0 0 0 0 0 0 0 0 0 0 0 0 0 0 0.12 0"/>
<feBlend mode="normal" in2="BackgroundImageFix" result="effect1_dropShadow_396_2305"/>
<feBlend mode="normal" in="SourceGraphic" in2="effect1_dropShadow_396_2305" result="shape"/>
</filter>
<filter id="filter1_f_396_2305" x="21.9375" y="24.4688" width="38.8125" height="28.125" filterUnits="userSpaceOnUse" color-interpolation-filters="sRGB">
<feFlood flood-opacity="0" result="BackgroundImageFix"/>
<feBlend mode="normal" in="SourceGraphic" in2="BackgroundImageFix" result="shape"/>
<feGaussianBlur stdDeviation="1.125" result="effect1_foregroundBlur_396_2305"/>
</filter>
<radialGradient id="paint0_radial_396_2305" cx="0" cy="0" r="1" gradientUnits="userSpaceOnUse" gradientTransform="translate(41.3438 38.25) rotate(90) scale(36 39.0938)">
<stop stop-color="#FFA565"/>
<stop offset="1" stop-color="#FFE499"/>
</radialGradient>
</defs>
</svg>
