<svg width="32" height="32" viewBox="0 0 32 32" fill="none" xmlns="http://www.w3.org/2000/svg">
<mask id="path-1-inside-1_415_3096" fill="white">
<path d="M15.5723 4.22021C15.8824 4.04991 16.2717 4.07813 16.5557 4.30518L26.5557 12.3052C26.5582 12.3072 26.56 12.31 26.5625 12.312C26.5898 12.3344 26.6152 12.3589 26.6396 12.3843C26.6496 12.3946 26.6596 12.4048 26.6689 12.4155C26.6931 12.4431 26.7157 12.472 26.7363 12.5024C26.7406 12.5087 26.744 12.5156 26.748 12.522C26.7655 12.5493 26.7814 12.5776 26.7959 12.6069C26.802 12.6192 26.808 12.6315 26.8135 12.644C26.8279 12.6769 26.8402 12.7108 26.8506 12.7456C26.8537 12.7559 26.8557 12.7664 26.8584 12.7769C26.8651 12.8028 26.8706 12.8291 26.875 12.856C26.8774 12.8706 26.8802 12.8851 26.8818 12.8999C26.8855 12.9326 26.8887 12.9658 26.8887 12.9995V26.9995C26.8887 27.4904 26.4909 27.8882 26 27.8882H18.8574C18.3665 27.8882 17.9678 27.4904 17.9678 26.9995V21.3003H14.0322V26.9995C14.0322 27.4904 13.6335 27.8882 13.1426 27.8882H6C5.50908 27.8882 5.11133 27.4904 5.11133 26.9995V12.9995C5.11135 12.9658 5.11352 12.9326 5.11719 12.8999C5.11885 12.8851 5.12163 12.8706 5.12402 12.856C5.1284 12.8291 5.13391 12.8028 5.14062 12.7769C5.14331 12.7665 5.14538 12.7559 5.14844 12.7456C5.15881 12.7108 5.17118 12.6769 5.18555 12.644C5.19101 12.6315 5.19708 12.6192 5.20312 12.6069C5.21757 12.5777 5.23351 12.5493 5.25098 12.522C5.25514 12.5154 5.25933 12.5089 5.26367 12.5024C5.28415 12.4722 5.30613 12.443 5.33008 12.4155C5.33432 12.4107 5.33842 12.4057 5.34277 12.4009L5.37207 12.3716C5.39276 12.3509 5.41389 12.3306 5.43652 12.312C5.4392 12.3098 5.44163 12.3073 5.44434 12.3052L15.4443 4.30518L15.5723 4.22021Z"/>
</mask>
<path d="M15.5723 4.22021C15.8824 4.04991 16.2717 4.07813 16.5557 4.30518L26.5557 12.3052C26.5582 12.3072 26.56 12.31 26.5625 12.312C26.5898 12.3344 26.6152 12.3589 26.6396 12.3843C26.6496 12.3946 26.6596 12.4048 26.6689 12.4155C26.6931 12.4431 26.7157 12.472 26.7363 12.5024C26.7406 12.5087 26.744 12.5156 26.748 12.522C26.7655 12.5493 26.7814 12.5776 26.7959 12.6069C26.802 12.6192 26.808 12.6315 26.8135 12.644C26.8279 12.6769 26.8402 12.7108 26.8506 12.7456C26.8537 12.7559 26.8557 12.7664 26.8584 12.7769C26.8651 12.8028 26.8706 12.8291 26.875 12.856C26.8774 12.8706 26.8802 12.8851 26.8818 12.8999C26.8855 12.9326 26.8887 12.9658 26.8887 12.9995V26.9995C26.8887 27.4904 26.4909 27.8882 26 27.8882H18.8574C18.3665 27.8882 17.9678 27.4904 17.9678 26.9995V21.3003H14.0322V26.9995C14.0322 27.4904 13.6335 27.8882 13.1426 27.8882H6C5.50908 27.8882 5.11133 27.4904 5.11133 26.9995V12.9995C5.11135 12.9658 5.11352 12.9326 5.11719 12.8999C5.11885 12.8851 5.12163 12.8706 5.12402 12.856C5.1284 12.8291 5.13391 12.8028 5.14062 12.7769C5.14331 12.7665 5.14538 12.7559 5.14844 12.7456C5.15881 12.7108 5.17118 12.6769 5.18555 12.644C5.19101 12.6315 5.19708 12.6192 5.20312 12.6069C5.21757 12.5777 5.23351 12.5493 5.25098 12.522C5.25514 12.5154 5.25933 12.5089 5.26367 12.5024C5.28415 12.4722 5.30613 12.443 5.33008 12.4155C5.33432 12.4107 5.33842 12.4057 5.34277 12.4009L5.37207 12.3716C5.39276 12.3509 5.41389 12.3306 5.43652 12.312C5.4392 12.3098 5.44163 12.3073 5.44434 12.3052L15.4443 4.30518L15.5723 4.22021Z" fill="#C0B5AE"/>
<path d="M15.5723 4.22021L14.6095 2.46718C14.5604 2.49415 14.5125 2.52317 14.4658 2.55416L15.5723 4.22021ZM16.5557 4.30518L17.8051 2.74344L17.8046 2.74304L16.5557 4.30518ZM26.5557 12.3052L27.8053 10.7437L27.8051 10.7434L26.5557 12.3052ZM26.5625 12.312L27.8302 10.7651L27.8289 10.764L26.5625 12.312ZM26.6396 12.3843L28.0812 10.998L28.0812 10.9979L26.6396 12.3843ZM26.6689 12.4155L25.1619 13.7303L25.1626 13.7312L26.6689 12.4155ZM26.7363 12.5024L28.395 11.385L28.393 11.382L26.7363 12.5024ZM26.748 12.522L25.0611 13.5964L25.0632 13.5997L26.748 12.522ZM26.7959 12.6069L28.5906 11.7244L28.5888 11.7207L26.7959 12.6069ZM26.8135 12.644L24.9799 13.4427L24.9813 13.446L26.8135 12.644ZM26.8506 12.7456L28.7675 12.1751L28.7671 12.1738L26.8506 12.7456ZM26.8584 12.7769L24.9221 13.2777L24.9223 13.2782L26.8584 12.7769ZM26.875 12.856L24.9011 13.1781L24.9013 13.1791L26.875 12.856ZM26.8818 12.8999L28.8694 12.677L28.8692 12.6757L26.8818 12.8999ZM26.8887 12.9995H28.8887V12.9985L26.8887 12.9995ZM17.9678 21.3003H19.9678C19.9678 20.1957 19.0723 19.3003 17.9678 19.3003V21.3003ZM14.0322 21.3003V19.3003C12.9277 19.3003 12.0322 20.1957 12.0322 21.3003H14.0322ZM5.11133 12.9995L3.11133 12.9985V12.9995H5.11133ZM5.11719 12.8999L3.12976 12.676L3.12962 12.6773L5.11719 12.8999ZM5.12402 12.856L7.0978 13.1788L7.09797 13.1777L5.12402 12.856ZM5.14062 12.7769L7.07691 13.2777L7.07704 13.2772L5.14062 12.7769ZM5.14844 12.7456L3.23172 12.1745L3.23135 12.1757L5.14844 12.7456ZM5.18555 12.644L7.01807 13.4452L7.0195 13.4419L5.18555 12.644ZM5.20312 12.6069L3.40974 11.7216L3.40796 11.7252L5.20312 12.6069ZM5.25098 12.522L6.93642 13.5987L6.93851 13.5954L5.25098 12.522ZM5.26367 12.5024L3.60697 11.382L3.60497 11.385L5.26367 12.5024ZM5.33008 12.4155L6.83733 13.7301L6.83812 13.7292L5.33008 12.4155ZM5.34277 12.4009L3.92856 10.9867C3.90648 11.0087 3.88491 11.0313 3.86388 11.0544L5.34277 12.4009ZM5.37207 12.3716L6.78628 13.7858L6.78653 13.7855L5.37207 12.3716ZM5.43652 12.312L4.1688 10.7651L4.16753 10.7662L5.43652 12.312ZM5.44434 12.3052L4.19495 10.7434L4.19468 10.7437L5.44434 12.3052ZM15.4443 4.30518L14.3379 2.63912C14.2887 2.67177 14.241 2.70657 14.1949 2.74344L15.4443 4.30518ZM15.5723 4.22021L16.535 5.97325C16.1478 6.18588 15.6634 6.15239 15.3068 5.86732L16.5557 4.30518L17.8046 2.74304C16.88 2.00387 15.6169 1.91393 14.6095 2.46718L15.5723 4.22021ZM16.5557 4.30518L15.3063 5.86691L25.3063 13.8669L26.5557 12.3052L27.8051 10.7434L17.8051 2.74344L16.5557 4.30518ZM26.5557 12.3052L25.306 13.8667C25.2647 13.8336 25.2293 13.8026 25.2001 13.7757C25.1711 13.7489 25.147 13.7251 25.1287 13.7063C25.1105 13.6878 25.0962 13.6724 25.0875 13.663C25.083 13.6581 25.0794 13.6542 25.0772 13.6517C25.076 13.6504 25.0751 13.6494 25.0745 13.6487C25.0739 13.6481 25.0735 13.6476 25.0734 13.6476C25.0729 13.647 25.0746 13.6488 25.0762 13.6506C25.0781 13.6527 25.0814 13.6563 25.0855 13.6608C25.0934 13.6695 25.1071 13.6842 25.1244 13.7021C25.1419 13.7202 25.1652 13.7435 25.1932 13.7699C25.2214 13.7963 25.2558 13.827 25.2961 13.86L26.5625 12.312L27.8289 10.764C27.8686 10.7965 27.9023 10.8267 27.9299 10.8526C27.9575 10.8784 27.9801 10.9011 27.997 10.9186C28.0138 10.9359 28.0269 10.9501 28.0344 10.9582C28.0382 10.9624 28.0412 10.9657 28.0428 10.9675C28.0442 10.969 28.0455 10.9705 28.0447 10.9696C28.0445 10.9694 28.0426 10.9672 28.0402 10.9646C28.0377 10.9618 28.0338 10.9575 28.0291 10.9524C28.0198 10.9424 28.0049 10.9264 27.9862 10.9073C27.9673 10.888 27.9426 10.8636 27.913 10.8362C27.8833 10.8088 27.8473 10.7772 27.8053 10.7437L26.5557 12.3052ZM26.5625 12.312L25.2948 13.8589C25.2412 13.815 25.2071 13.78 25.1981 13.7706L26.6396 12.3843L28.0812 10.9979C28.0233 10.9377 27.9384 10.8538 27.8302 10.7651L26.5625 12.312ZM26.6396 12.3843L25.1981 13.7706C25.2004 13.773 25.2025 13.7752 25.2039 13.7766C25.2055 13.7783 25.206 13.7789 25.2067 13.7795C25.2078 13.7807 25.2062 13.779 25.2033 13.776C25.1979 13.7703 25.1822 13.7536 25.1619 13.7303L26.6689 12.4155L28.176 11.1007C28.1464 11.0667 28.1209 11.0396 28.1057 11.0235C28.0979 11.0153 28.0913 11.0084 28.0875 11.0045C28.0809 10.9976 28.0839 11.0007 28.0812 10.998L26.6396 12.3843ZM26.6689 12.4155L25.1626 13.7312C25.1415 13.707 25.112 13.6708 25.0796 13.6229L26.7363 12.5024L28.393 11.382C28.3194 11.2732 28.2446 11.1793 28.1752 11.0998L26.6689 12.4155ZM26.7363 12.5024L25.0776 13.6199C25.0546 13.5857 25.037 13.5572 25.0259 13.5388C25.0203 13.5294 25.0158 13.5217 25.0128 13.5166C25.0098 13.5115 25.0077 13.5078 25.0072 13.507C25.007 13.5067 25.0068 13.5063 25.0073 13.5071C25.0075 13.5075 25.0083 13.5088 25.0091 13.5103C25.0109 13.5133 25.0142 13.5192 25.0185 13.5265C25.0268 13.5407 25.0417 13.5658 25.0611 13.5964L26.748 12.522L28.4349 11.4476C28.4524 11.4749 28.4653 11.4968 28.4717 11.5077C28.475 11.5133 28.4774 11.5176 28.4782 11.5189C28.4786 11.5196 28.4789 11.5201 28.4787 11.5197C28.4786 11.5197 28.4779 11.5185 28.4773 11.5173C28.475 11.5134 28.4653 11.4965 28.4528 11.4757C28.4398 11.454 28.4202 11.4223 28.395 11.385L26.7363 12.5024ZM26.748 12.522L25.0632 13.5997C25.0389 13.5617 25.0191 13.5257 25.003 13.4931L26.7959 12.6069L28.5888 11.7207C28.5438 11.6296 28.4922 11.537 28.4329 11.4443L26.748 12.522ZM26.7959 12.6069L25.0012 13.4895C25.0023 13.4918 25.0026 13.4923 25.0032 13.4937C25.0035 13.4942 25.0036 13.4945 25.0037 13.4948C25.0039 13.495 25.0039 13.4951 25.0039 13.4951C25.0039 13.4951 25.0038 13.4949 25.0037 13.4947C25.0036 13.4944 25.0034 13.4941 25.0032 13.4936C25.0027 13.4926 25.002 13.4911 25.0011 13.4892C24.9977 13.4821 24.9897 13.4654 24.9799 13.4427L26.8135 12.644L28.6471 11.8454C28.6195 11.782 28.5912 11.7256 28.5906 11.7244L26.7959 12.6069ZM26.8135 12.644L24.9813 13.446C24.9616 13.401 24.9461 13.3577 24.9341 13.3174L26.8506 12.7456L28.7671 12.1738C28.7343 12.0638 28.6942 11.9529 28.6456 11.8421L26.8135 12.644ZM26.8506 12.7456L24.9337 13.3161C24.9254 13.2882 24.9193 13.2652 24.9153 13.2496C24.9114 13.2345 24.9087 13.2232 24.9081 13.2207C24.9079 13.2196 24.9076 13.2186 24.9081 13.2207C24.9084 13.2219 24.9093 13.2257 24.9104 13.2301C24.9124 13.2389 24.9166 13.2563 24.9221 13.2777L26.8584 12.7769L28.7947 12.276C28.7989 12.2922 28.8018 12.3044 28.8026 12.3079C28.803 12.3097 28.8033 12.311 28.803 12.3096C28.8028 12.309 28.802 12.3054 28.8011 12.3016C28.7993 12.294 28.7954 12.2775 28.7902 12.2571C28.7849 12.2363 28.7773 12.2081 28.7675 12.1751L26.8506 12.7456ZM26.8584 12.7769L24.9223 13.2782C24.9131 13.2428 24.9062 13.2091 24.9011 13.1781L26.875 12.856L28.8489 12.5338C28.8351 12.4491 28.8172 12.3629 28.7945 12.2755L26.8584 12.7769ZM26.875 12.856L24.9013 13.1791C24.9031 13.1904 24.9048 13.2004 24.9053 13.2033C24.9062 13.2082 24.9057 13.2056 24.9052 13.2021C24.904 13.195 24.899 13.1649 24.8944 13.1241L26.8818 12.8999L28.8692 12.6757C28.863 12.6202 28.8558 12.5754 28.8522 12.5536C28.8505 12.5428 28.8488 12.5329 28.8484 12.5306C28.8476 12.5261 28.8481 12.5289 28.8487 12.5328L26.875 12.856ZM26.8818 12.8999L24.8943 13.1228C24.895 13.1294 24.8937 13.1182 24.8923 13.0993C24.8908 13.0794 24.8887 13.045 24.8887 13.0005L26.8887 12.9995L28.8887 12.9985C28.8886 12.8486 28.8747 12.7245 28.8694 12.677L26.8818 12.8999ZM26.8887 12.9995H24.8887V26.9995H26.8887H28.8887V12.9995H26.8887ZM26.8887 26.9995H24.8887C24.8887 26.3859 25.3864 25.8882 26 25.8882V27.8882V29.8882C27.5955 29.8882 28.8887 28.595 28.8887 26.9995H26.8887ZM26 27.8882V25.8882H18.8574V27.8882V29.8882H26V27.8882ZM18.8574 27.8882V25.8882C19.4682 25.8882 19.9678 26.383 19.9678 26.9995H17.9678H15.9678C15.9678 28.5979 17.2648 29.8882 18.8574 29.8882V27.8882ZM17.9678 26.9995H19.9678V21.3003H17.9678H15.9678V26.9995H17.9678ZM17.9678 21.3003V19.3003H14.0322V21.3003V23.3003H17.9678V21.3003ZM14.0322 21.3003H12.0322V26.9995H14.0322H16.0322V21.3003H14.0322ZM14.0322 26.9995H12.0322C12.0322 26.383 12.5318 25.8882 13.1426 25.8882V27.8882V29.8882C14.7352 29.8882 16.0322 28.5979 16.0322 26.9995H14.0322ZM13.1426 27.8882V25.8882H6V27.8882V29.8882H13.1426V27.8882ZM6 27.8882V25.8882C6.61365 25.8882 7.11133 26.3859 7.11133 26.9995H5.11133H3.11133C3.11133 28.595 4.40451 29.8882 6 29.8882V27.8882ZM5.11133 26.9995H7.11133V12.9995H5.11133H3.11133V26.9995H5.11133ZM5.11133 12.9995L7.11133 13.0005C7.1113 13.0522 7.10797 13.0938 7.10476 13.1225L5.11719 12.8999L3.12962 12.6773C3.11908 12.7714 3.11139 12.8794 3.11133 12.9985L5.11133 12.9995ZM5.11719 12.8999L7.10461 13.1238C7.09998 13.1649 7.095 13.1952 7.09385 13.2023C7.09328 13.2057 7.09284 13.2083 7.0937 13.2032C7.0942 13.2003 7.09593 13.1902 7.0978 13.1788L5.12402 12.856L3.15025 12.5331C3.15092 12.529 3.15141 12.5262 3.15066 12.5306C3.15027 12.5329 3.14858 12.5427 3.14681 12.5535C3.14325 12.5751 3.13605 12.6201 3.12976 12.676L5.11719 12.8999ZM5.12402 12.856L7.09797 13.1777C7.09276 13.2097 7.08584 13.2431 7.07691 13.2777L5.14062 12.7769L3.20434 12.276C3.18198 12.3625 3.16403 12.4486 3.15008 12.5342L5.12402 12.856ZM5.14062 12.7769L7.07704 13.2772C7.08249 13.2561 7.0866 13.2389 7.08864 13.2303C7.08967 13.2259 7.09056 13.2221 7.09083 13.2209C7.0913 13.2189 7.09108 13.2199 7.0908 13.2211C7.09023 13.2235 7.08758 13.2347 7.08375 13.2497C7.0798 13.2651 7.07373 13.2879 7.06552 13.3155L5.14844 12.7456L3.23135 12.1757C3.22161 12.2085 3.21414 12.2365 3.20886 12.2571C3.20369 12.2773 3.19979 12.2937 3.19798 12.3013C3.19709 12.3051 3.19625 12.3087 3.19611 12.3093C3.19577 12.3107 3.19605 12.3095 3.19646 12.3078C3.19726 12.3044 3.2001 12.2924 3.20421 12.2765L5.14062 12.7769ZM5.14844 12.7456L7.06515 13.3168C7.05269 13.3586 7.03714 13.4016 7.01807 13.4452L5.18555 12.644L3.35303 11.8429C3.30521 11.9522 3.26492 12.0631 3.23172 12.1745L5.14844 12.7456ZM5.18555 12.644L7.0195 13.4419C7.0093 13.4654 7.00111 13.4826 6.99776 13.4896C6.99601 13.4933 6.99491 13.4955 6.99509 13.4951C6.99572 13.4939 6.9957 13.4939 6.99829 13.4886L5.20312 12.6069L3.40796 11.7252C3.40737 11.7264 3.39875 11.7439 3.39048 11.7612C3.38121 11.7805 3.36725 11.8102 3.35159 11.8462L5.18555 12.644ZM5.20312 12.6069L6.9965 13.4923C6.97945 13.5268 6.95955 13.5625 6.93642 13.5987L5.25098 12.522L3.56553 11.4453C3.50747 11.5362 3.45569 11.6285 3.40975 11.7216L5.20312 12.6069ZM5.25098 12.522L6.93851 13.5954C6.93974 13.5935 6.93835 13.5957 6.93596 13.5994C6.9334 13.6033 6.92867 13.6105 6.92238 13.6199L5.26367 12.5024L3.60497 11.385C3.5848 11.4149 3.56855 11.4405 3.56344 11.4486L5.25098 12.522ZM5.26367 12.5024L6.92037 13.6229C6.90318 13.6483 6.87589 13.6859 6.83733 13.7301L5.33008 12.4155L3.82283 11.1009C3.73637 11.2 3.66511 11.2961 3.60697 11.382L5.26367 12.5024ZM5.33008 12.4155L6.83812 13.7292C6.84537 13.7209 6.85121 13.7141 6.85399 13.7108C6.85535 13.7092 6.85666 13.7077 6.85693 13.7074C6.85748 13.7067 6.85713 13.7071 6.85658 13.7078C6.85551 13.709 6.85146 13.7138 6.84594 13.7201C6.84029 13.7266 6.83197 13.736 6.82166 13.7473L5.34277 12.4009L3.86388 11.0544C3.84009 11.0806 3.82164 11.1022 3.81618 11.1086C3.81459 11.1104 3.81319 11.1121 3.81269 11.1127C3.81191 11.1136 3.81217 11.1133 3.81249 11.1129C3.81317 11.1121 3.8169 11.1077 3.82203 11.1018L5.33008 12.4155ZM5.34277 12.4009L6.75699 13.8151L6.78628 13.7858L5.37207 12.3716L3.95786 10.9574L3.92856 10.9867L5.34277 12.4009ZM5.37207 12.3716L6.78653 13.7855C6.78798 13.7841 6.78059 13.7916 6.76808 13.8032C6.75523 13.8152 6.7339 13.8346 6.70552 13.8579L5.43652 12.312L4.16753 10.7662C4.06894 10.8471 3.99349 10.9217 3.95761 10.9576L5.37207 12.3716ZM5.43652 12.312L6.70424 13.8589C6.71851 13.8472 6.73099 13.8367 6.74135 13.8278C6.75168 13.8189 6.76041 13.8112 6.76703 13.8053C6.77356 13.7995 6.7788 13.7948 6.78175 13.7921C6.78326 13.7907 6.78448 13.7896 6.78511 13.7891C6.78543 13.7888 6.7857 13.7885 6.7858 13.7884C6.78596 13.7883 6.78589 13.7884 6.78583 13.7884C6.78574 13.7885 6.78296 13.791 6.77933 13.7943C6.77553 13.7977 6.76955 13.8031 6.76213 13.8096C6.74757 13.8224 6.72399 13.8427 6.69399 13.8667L5.44434 12.3052L4.19468 10.7437C4.16333 10.7687 4.13843 10.7902 4.12258 10.8041C4.1145 10.8112 4.10788 10.8171 4.10343 10.8211C4.09916 10.825 4.09574 10.8281 4.09501 10.8288C4.09322 10.8304 4.09543 10.8284 4.09716 10.8268C4.09947 10.8247 4.10407 10.8206 4.10996 10.8153C4.12144 10.8051 4.14212 10.787 4.1688 10.7651L5.43652 12.312ZM5.44434 12.3052L6.69373 13.8669L16.6937 5.86691L15.4443 4.30518L14.1949 2.74344L4.19495 10.7434L5.44434 12.3052ZM15.4443 4.30518L16.5508 5.97123L16.6787 5.88627L15.5723 4.22021L14.4658 2.55416L14.3379 2.63912L15.4443 4.30518Z" fill="#C0B5AE" mask="url(#path-1-inside-1_415_3096)"/>
</svg>
