<svg width="32" height="32" viewBox="0 0 32 32" fill="none" xmlns="http://www.w3.org/2000/svg">
<mask id="path-1-inside-1_410_2307" fill="white">
<path d="M15.5723 4.22095C15.8825 4.05048 16.2716 4.07865 16.5557 4.30591L26.5557 12.3059C26.5582 12.3079 26.56 12.3107 26.5625 12.3127C26.593 12.3377 26.6215 12.365 26.6484 12.3938C26.6544 12.4002 26.6602 12.4068 26.666 12.4133C26.6913 12.442 26.7158 12.4714 26.7373 12.5032C26.7424 12.5107 26.7462 12.519 26.751 12.5266C26.7681 12.5537 26.7837 12.5817 26.7979 12.6106C26.8021 12.6194 26.8066 12.6281 26.8105 12.637C26.8265 12.6726 26.8403 12.7094 26.8516 12.7473C26.8536 12.7544 26.8545 12.7617 26.8564 12.7688C26.8651 12.8007 26.8719 12.8332 26.877 12.8665C26.8787 12.8778 26.8805 12.8892 26.8818 12.9006C26.8855 12.9334 26.8887 12.9665 26.8887 13.0002V27.0002C26.8886 27.4911 26.4909 27.8889 26 27.8889H18.8574C18.3665 27.8889 17.9678 27.4911 17.9678 27.0002V21.301H14.0322V27.0002C14.0322 27.4911 13.6335 27.8889 13.1426 27.8889H6C5.50911 27.8889 5.11138 27.4911 5.11133 27.0002V13.0002C5.11133 12.9666 5.11354 12.9333 5.11719 12.9006C5.11848 12.8892 5.12034 12.8778 5.12207 12.8665C5.12709 12.8332 5.13399 12.8007 5.14258 12.7688C5.14449 12.7617 5.14538 12.7543 5.14746 12.7473C5.15684 12.7156 5.16795 12.6846 5.18066 12.6545L5.19238 12.6282C5.19512 12.6222 5.1983 12.6165 5.20117 12.6106C5.2068 12.5991 5.21264 12.5877 5.21875 12.5764L5.25781 12.51C5.25935 12.5077 5.26113 12.5055 5.2627 12.5032C5.28403 12.4716 5.30789 12.4419 5.33301 12.4133C5.33879 12.4068 5.34459 12.4002 5.35059 12.3938C5.37748 12.365 5.40604 12.3378 5.43652 12.3127C5.4392 12.3106 5.44163 12.3081 5.44434 12.3059L15.4443 4.30591L15.5723 4.22095Z"/>
</mask>
<path d="M15.5723 4.22095C15.8825 4.05048 16.2716 4.07865 16.5557 4.30591L26.5557 12.3059C26.5582 12.3079 26.56 12.3107 26.5625 12.3127C26.593 12.3377 26.6215 12.365 26.6484 12.3938C26.6544 12.4002 26.6602 12.4068 26.666 12.4133C26.6913 12.442 26.7158 12.4714 26.7373 12.5032C26.7424 12.5107 26.7462 12.519 26.751 12.5266C26.7681 12.5537 26.7837 12.5817 26.7979 12.6106C26.8021 12.6194 26.8066 12.6281 26.8105 12.637C26.8265 12.6726 26.8403 12.7094 26.8516 12.7473C26.8536 12.7544 26.8545 12.7617 26.8564 12.7688C26.8651 12.8007 26.8719 12.8332 26.877 12.8665C26.8787 12.8778 26.8805 12.8892 26.8818 12.9006C26.8855 12.9334 26.8887 12.9665 26.8887 13.0002V27.0002C26.8886 27.4911 26.4909 27.8889 26 27.8889H18.8574C18.3665 27.8889 17.9678 27.4911 17.9678 27.0002V21.301H14.0322V27.0002C14.0322 27.4911 13.6335 27.8889 13.1426 27.8889H6C5.50911 27.8889 5.11138 27.4911 5.11133 27.0002V13.0002C5.11133 12.9666 5.11354 12.9333 5.11719 12.9006C5.11848 12.8892 5.12034 12.8778 5.12207 12.8665C5.12709 12.8332 5.13399 12.8007 5.14258 12.7688C5.14449 12.7617 5.14538 12.7543 5.14746 12.7473C5.15684 12.7156 5.16795 12.6846 5.18066 12.6545L5.19238 12.6282C5.19512 12.6222 5.1983 12.6165 5.20117 12.6106C5.2068 12.5991 5.21264 12.5877 5.21875 12.5764L5.25781 12.51C5.25935 12.5077 5.26113 12.5055 5.2627 12.5032C5.28403 12.4716 5.30789 12.4419 5.33301 12.4133C5.33879 12.4068 5.34459 12.4002 5.35059 12.3938C5.37748 12.365 5.40604 12.3378 5.43652 12.3127C5.4392 12.3106 5.44163 12.3081 5.44434 12.3059L15.4443 4.30591L15.5723 4.22095Z" fill="#504339"/>
<path d="M15.5723 4.22095L14.6091 2.46815C14.5601 2.49505 14.5123 2.52399 14.4658 2.55489L15.5723 4.22095ZM26.5557 12.3059L27.8054 10.7445L27.8051 10.7442L26.5557 12.3059ZM26.5625 12.3127L27.8298 10.7655L27.829 10.7648L26.5625 12.3127ZM26.6484 12.3938L28.1092 11.0277L28.1089 11.0274L26.6484 12.3938ZM26.666 12.4133L25.1653 13.7354L25.166 13.7362L26.666 12.4133ZM26.7373 12.5032L28.3964 11.3863L28.3947 11.3838L26.7373 12.5032ZM26.751 12.5266L25.0585 13.5922L25.0602 13.595L26.751 12.5266ZM26.7979 12.6106L28.5958 11.7346L28.5944 11.7318L26.7979 12.6106ZM26.8105 12.637L24.9847 13.4533L24.9858 13.4557L26.8105 12.637ZM26.8516 12.7473L28.7691 12.1791L28.7691 12.1789L26.8516 12.7473ZM26.8564 12.7688L28.7876 12.2485L28.7875 12.2481L26.8564 12.7688ZM26.877 12.8665L24.8994 13.1654L24.8998 13.1676L26.877 12.8665ZM26.8818 12.9006L28.8695 12.6788L28.8692 12.6765L26.8818 12.9006ZM26.8887 27.0002L28.8887 27.0005V27.0002H26.8887ZM17.9678 27.0002H15.9678V27.0005L17.9678 27.0002ZM17.9678 21.301H19.9678C19.9678 20.1965 19.0723 19.301 17.9678 19.301V21.301ZM14.0322 21.301V19.301C12.9277 19.301 12.0322 20.1965 12.0322 21.301H14.0322ZM14.0322 27.0002L16.0322 27.0005V27.0002H14.0322ZM5.11133 27.0002H3.11133V27.0005L5.11133 27.0002ZM5.11719 12.9006L3.12976 12.6767L3.12951 12.679L5.11719 12.9006ZM5.12207 12.8665L7.09932 13.1673L7.09965 13.1651L5.12207 12.8665ZM5.14258 12.7688L3.2114 12.2487L3.2113 12.249L5.14258 12.7688ZM5.14746 12.7473L3.22975 12.1795L3.22971 12.1797L5.14746 12.7473ZM5.18066 12.6545L3.35304 11.8423C3.34799 11.8536 3.34304 11.865 3.33821 11.8765L5.18066 12.6545ZM5.19238 12.6282L3.37512 11.793C3.37162 11.8006 3.36816 11.8082 3.36476 11.8159L5.19238 12.6282ZM5.20117 12.6106L3.40414 11.7327L3.4028 11.7355L5.20117 12.6106ZM5.21875 12.5764L3.49488 11.5624C3.48343 11.5819 3.4723 11.6015 3.46151 11.6214L5.21875 12.5764ZM5.25781 12.51L3.58822 11.4089C3.56938 11.4375 3.55129 11.4665 3.53394 11.496L5.25781 12.51ZM5.2627 12.5032L3.60528 11.3838L3.60361 11.3863L5.2627 12.5032ZM5.33301 12.4133L6.83401 13.7351L6.83466 13.7343L5.33301 12.4133ZM5.35059 12.3938L3.88911 11.0285L3.88882 11.0288L5.35059 12.3938ZM5.43652 12.3127L4.16873 10.7659L4.16792 10.7666L5.43652 12.3127ZM5.44434 12.3059L4.19495 10.7442L4.19458 10.7445L5.44434 12.3059ZM15.4443 4.30591L14.3379 2.63985C14.2887 2.6725 14.241 2.70731 14.1949 2.74417L15.4443 4.30591ZM15.5723 4.22095L16.5354 5.97374C16.1483 6.18649 15.6631 6.15309 15.3063 5.86765L16.5557 4.30591L17.8051 2.74417C16.8801 2.0042 15.6167 1.91446 14.6091 2.46815L15.5723 4.22095ZM16.5557 4.30591L15.3063 5.86765L25.3063 13.8676L26.5557 12.3059L27.8051 10.7442L17.8051 2.74417L16.5557 4.30591ZM26.5557 12.3059L25.3059 13.8673C25.2646 13.8343 25.2292 13.8033 25.2001 13.7764C25.1711 13.7496 25.147 13.7258 25.1287 13.7071C25.1105 13.6885 25.0962 13.6732 25.0875 13.6637C25.0831 13.6589 25.0795 13.6549 25.0772 13.6525C25.0761 13.6512 25.0751 13.6502 25.0745 13.6495C25.074 13.6489 25.0735 13.6484 25.0735 13.6483C25.0729 13.6477 25.0746 13.6496 25.0762 13.6514C25.0781 13.6535 25.0814 13.6571 25.0855 13.6615C25.0935 13.6703 25.1071 13.685 25.1245 13.7029C25.1419 13.7209 25.1652 13.7442 25.1932 13.7706C25.2214 13.797 25.2558 13.8277 25.296 13.8607L26.5625 12.3127L27.829 10.7648C27.8686 10.7973 27.9024 10.8275 27.93 10.8533C27.9575 10.8791 27.9801 10.9018 27.997 10.9193C28.0138 10.9366 28.0269 10.9508 28.0343 10.9589C28.0381 10.9631 28.0412 10.9664 28.0428 10.9682C28.0441 10.9697 28.0455 10.9712 28.0447 10.9703C28.0445 10.97 28.0425 10.9679 28.0401 10.9653C28.0376 10.9625 28.0338 10.9582 28.029 10.9531C28.0198 10.9431 28.0049 10.9271 27.9862 10.908C27.9673 10.8887 27.9427 10.8643 27.913 10.837C27.8833 10.8096 27.8474 10.778 27.8054 10.7445L26.5557 12.3059ZM26.5625 12.3127L25.2952 13.86C25.2464 13.82 25.2108 13.7846 25.188 13.7602L26.6484 12.3938L28.1089 11.0274C28.0322 10.9455 27.9397 10.8555 27.8298 10.7655L26.5625 12.3127ZM26.6484 12.3938L25.1877 13.7599C25.1784 13.7499 25.1714 13.7422 25.1678 13.7382C25.1647 13.7347 25.1628 13.7325 25.1653 13.7354L26.666 12.4133L28.1667 11.0912C28.1615 11.0854 28.1379 11.0584 28.1092 11.0277L26.6484 12.3938ZM26.666 12.4133L25.166 13.7362C25.1675 13.7379 25.1583 13.7275 25.1442 13.71C25.1297 13.692 25.1067 13.6622 25.0799 13.6225L26.7373 12.5032L28.3947 11.3838C28.3014 11.2456 28.2104 11.1408 28.1661 11.0905L26.666 12.4133ZM26.7373 12.5032L25.0782 13.6201C25.0497 13.5777 25.0283 13.5422 25.0149 13.5193C25.0081 13.5077 25.0026 13.4981 24.999 13.4917C24.9955 13.4854 24.993 13.4808 24.9925 13.4799C24.9923 13.4795 24.992 13.4791 24.9926 13.4801C24.9929 13.4807 24.9938 13.4823 24.9949 13.4842C24.997 13.488 25.0011 13.4955 25.0062 13.5046C25.0163 13.5224 25.0344 13.554 25.0585 13.5922L26.751 12.5266L28.4435 11.461C28.4651 11.4954 28.481 11.5231 28.4888 11.537C28.4929 11.5441 28.4959 11.5496 28.4969 11.5514C28.4974 11.5523 28.4978 11.553 28.4975 11.5526C28.4975 11.5526 28.4967 11.5511 28.496 11.5498C28.4935 11.5452 28.4819 11.5242 28.4669 11.4986C28.4512 11.4718 28.4274 11.4324 28.3964 11.3863L26.7373 12.5032ZM26.751 12.5266L25.0602 13.595C25.0384 13.5605 25.0188 13.5251 25.0013 13.4894L26.7979 12.6106L28.5944 11.7318C28.5486 11.6382 28.4977 11.5469 28.4417 11.4583L26.751 12.5266ZM26.7979 12.6106L24.9999 13.4866C25.0035 13.4939 25.0066 13.5003 25.0076 13.5023C25.0092 13.5056 25.0084 13.504 25.0075 13.502C25.0062 13.4995 25.0034 13.4936 24.9997 13.4857C24.9959 13.4778 24.9907 13.4667 24.9847 13.4533L26.8105 12.637L28.6364 11.8206C28.6209 11.786 28.6075 11.7584 28.6012 11.7455C28.598 11.7391 28.5951 11.7331 28.5946 11.7321C28.5934 11.7297 28.5944 11.7317 28.5958 11.7346L26.7979 12.6106ZM26.8105 12.637L24.9858 13.4557C24.967 13.4139 24.9493 13.3671 24.934 13.3157L26.8516 12.7473L28.7691 12.1789C28.7314 12.0516 28.686 11.9313 28.6353 11.8182L26.8105 12.637ZM26.8516 12.7473L24.934 13.3156C24.9188 13.2642 24.9086 13.2219 24.9025 13.1952C24.8994 13.1816 24.8971 13.1704 24.8955 13.1632C24.8941 13.1562 24.893 13.1509 24.8929 13.1502C24.8929 13.15 24.8928 13.1499 24.8929 13.15C24.8929 13.15 24.893 13.1506 24.893 13.151C24.8932 13.1519 24.8936 13.154 24.8942 13.1565C24.8952 13.1614 24.897 13.1706 24.8994 13.1819C24.9019 13.1934 24.9052 13.2085 24.9094 13.2263C24.9137 13.2442 24.9189 13.2655 24.9254 13.2895L26.8564 12.7688L28.7875 12.2481C28.7992 12.2916 28.8069 12.3265 28.8109 12.345C28.8129 12.3545 28.8144 12.3618 28.8151 12.365C28.8153 12.3663 28.8162 12.3709 28.8152 12.3658C28.8146 12.3625 28.8099 12.3389 28.8034 12.3101C28.7965 12.2798 28.7854 12.234 28.7691 12.1791L26.8516 12.7473ZM26.8564 12.7688L24.9253 13.2891C24.9148 13.2503 24.906 13.2089 24.8994 13.1654L26.877 12.8665L28.8545 12.5675C28.8379 12.4575 28.8153 12.3512 28.7876 12.2485L26.8564 12.7688ZM26.877 12.8665L24.8998 13.1676C24.9005 13.1728 24.9016 13.1795 24.9016 13.1796C24.9019 13.1815 24.9016 13.1796 24.9011 13.1765C24.9002 13.1704 24.8974 13.151 24.8944 13.1248L26.8818 12.9006L28.8692 12.6765C28.865 12.6388 28.8606 12.6081 28.858 12.5906C28.8567 12.5817 28.8555 12.5742 28.8549 12.5704C28.8548 12.5693 28.8546 12.5684 28.8545 12.5677C28.8544 12.5669 28.8543 12.5664 28.8542 12.566C28.8541 12.565 28.8541 12.565 28.8542 12.5653L26.877 12.8665ZM26.8818 12.9006L24.8942 13.1225C24.8951 13.1303 24.8937 13.1193 24.8923 13.1006C24.8908 13.0807 24.8887 13.0456 24.8887 13.0002H26.8887H28.8887C28.8887 12.849 28.8745 12.7235 28.8695 12.6788L26.8818 12.9006ZM26.8887 13.0002H24.8887V27.0002H26.8887H28.8887V13.0002H26.8887ZM26.8887 27.0002L24.8887 27C24.8887 26.3867 25.3861 25.8889 26 25.8889V27.8889V29.8889C27.5957 29.8889 28.8885 28.5955 28.8887 27.0005L26.8887 27.0002ZM26 27.8889V25.8889H18.8574V27.8889V29.8889H26V27.8889ZM18.8574 27.8889V25.8889C19.4685 25.8889 19.9677 26.3839 19.9678 27L17.9678 27.0002L15.9678 27.0005C15.9679 28.5984 17.2646 29.8889 18.8574 29.8889V27.8889ZM17.9678 27.0002H19.9678V21.301H17.9678H15.9678V27.0002H17.9678ZM17.9678 21.301V19.301H14.0322V21.301V23.301H17.9678V21.301ZM14.0322 21.301H12.0322V27.0002H14.0322H16.0322V21.301H14.0322ZM14.0322 27.0002L12.0322 27C12.0323 26.3839 12.5315 25.8889 13.1426 25.8889V27.8889V29.8889C14.7354 29.8889 16.0321 28.5984 16.0322 27.0005L14.0322 27.0002ZM13.1426 27.8889V25.8889H6V27.8889V29.8889H13.1426V27.8889ZM6 27.8889V25.8889C6.61389 25.8889 7.11126 26.3867 7.11133 27L5.11133 27.0002L3.11133 27.0005C3.1115 28.5955 4.40433 29.8889 6 29.8889V27.8889ZM5.11133 27.0002H7.11133V13.0002H5.11133H3.11133V27.0002H5.11133ZM5.11133 13.0002H7.11133C7.11133 13.0538 7.10783 13.0958 7.10487 13.1223L5.11719 12.9006L3.12951 12.679C3.11925 12.7709 3.11133 12.8793 3.11133 13.0002H5.11133ZM5.11719 12.9006L7.10462 13.1245C7.10163 13.151 7.09876 13.1706 7.09787 13.1766C7.09741 13.1797 7.09712 13.1816 7.09742 13.1796C7.09747 13.1793 7.0985 13.1726 7.09932 13.1673L5.12207 12.8665L3.14482 12.5656C3.14488 12.5652 3.14489 12.5652 3.14475 12.5661C3.14469 12.5665 3.14461 12.567 3.1445 12.5678C3.14439 12.5684 3.14425 12.5694 3.14409 12.5704C3.14352 12.5741 3.14236 12.5816 3.14105 12.5904C3.13848 12.6078 3.13403 12.6388 3.12976 12.6767L5.11719 12.9006ZM5.12207 12.8665L7.09965 13.1651C7.09296 13.2094 7.08406 13.2507 7.07386 13.2886L5.14258 12.7688L3.2113 12.249C3.18392 12.3508 3.16121 12.4571 3.1445 12.5678L5.12207 12.8665ZM5.14258 12.7688L7.07376 13.2889C7.08019 13.2651 7.08544 13.2438 7.08963 13.2261C7.0938 13.2085 7.09713 13.1934 7.09956 13.182C7.10196 13.1708 7.10381 13.1617 7.1048 13.1568C7.10531 13.1543 7.10572 13.1523 7.1059 13.1513C7.10598 13.1509 7.10609 13.1504 7.10609 13.1504C7.10612 13.1502 7.10609 13.1504 7.10605 13.1506C7.10592 13.1512 7.10487 13.1565 7.10342 13.1634C7.10192 13.1707 7.09957 13.1817 7.0965 13.1952C7.09047 13.2218 7.08035 13.2638 7.06522 13.315L5.14746 12.7473L3.22971 12.1797C3.21353 12.2343 3.20251 12.2799 3.19568 12.31C3.18917 12.3387 3.18454 12.3621 3.18386 12.3655C3.18285 12.3705 3.18377 12.3659 3.18402 12.3647C3.18465 12.3616 3.18613 12.3543 3.18814 12.3449C3.19206 12.3266 3.19974 12.2919 3.2114 12.2487L5.14258 12.7688ZM5.14746 12.7473L7.06517 13.3151C7.05331 13.3552 7.03926 13.3944 7.02312 13.4326L5.18066 12.6545L3.33821 11.8765C3.29665 11.9749 3.26038 12.0761 3.22975 12.1795L5.14746 12.7473ZM5.18066 12.6545L7.00829 13.4668L7.02001 13.4405L5.19238 12.6282L3.36476 11.8159L3.35304 11.8423L5.18066 12.6545ZM5.19238 12.6282L7.00965 13.4634C6.99984 13.4847 6.99144 13.5019 6.98585 13.5132C6.98046 13.524 6.97629 13.5321 6.97573 13.5332C6.97552 13.5336 6.9754 13.5339 6.9755 13.5337C6.97556 13.5336 6.97559 13.5335 6.97574 13.5332C6.97585 13.533 6.97601 13.5327 6.9762 13.5323C6.97689 13.531 6.97848 13.5279 6.9804 13.5241C6.98416 13.5168 6.99116 13.503 6.99954 13.4857L5.20117 12.6106L3.4028 11.7355C3.40975 11.7212 3.41528 11.7103 3.41755 11.7059C3.41817 11.7046 3.41867 11.7037 3.41899 11.703C3.41915 11.7027 3.41928 11.7025 3.41936 11.7023C3.41944 11.7022 3.4195 11.7021 3.4195 11.702C3.41998 11.7011 3.41849 11.704 3.41772 11.7055C3.41567 11.7095 3.41001 11.7205 3.40316 11.7343C3.39611 11.7485 3.38629 11.7687 3.37512 11.793L5.19238 12.6282ZM5.20117 12.6106L6.9982 13.4885C6.99315 13.4988 6.98573 13.5135 6.97599 13.5315L5.21875 12.5764L3.46151 11.6214C3.43954 11.6618 3.42046 11.6993 3.40415 11.7327L5.20117 12.6106ZM5.21875 12.5764L6.94262 13.5905L6.98168 13.524L5.25781 12.51L3.53394 11.496L3.49488 11.5624L5.21875 12.5764ZM5.25781 12.51L6.92741 13.6111C6.90938 13.6385 6.89409 13.6601 6.8845 13.6735C6.8796 13.6803 6.87559 13.6859 6.87302 13.6894C6.87059 13.6927 6.86869 13.6952 6.86865 13.6953C6.86818 13.6959 6.86902 13.6948 6.86916 13.6946C6.8696 13.694 6.87044 13.6929 6.87148 13.6915C6.87351 13.6887 6.87708 13.6838 6.88147 13.6778C6.89004 13.6659 6.90454 13.6457 6.92178 13.6201L5.2627 12.5032L3.60361 11.3863C3.62007 11.3618 3.63376 11.3427 3.64151 11.332C3.64549 11.3265 3.64864 11.3222 3.65026 11.32C3.6515 11.3183 3.65301 11.3163 3.65184 11.3179C3.65139 11.3185 3.64907 11.3216 3.64622 11.3255C3.64324 11.3296 3.63881 11.3357 3.63351 11.343C3.62311 11.3576 3.60702 11.3804 3.58822 11.4089L5.25781 12.51ZM5.2627 12.5032L6.92011 13.6225C6.881 13.6804 6.84802 13.7192 6.83401 13.7351L5.33301 12.4133L3.83201 11.0916C3.76776 11.1645 3.68706 11.2627 3.60528 11.3838L5.2627 12.5032ZM5.33301 12.4133L6.83466 13.7343C6.83601 13.7328 6.83405 13.735 6.83068 13.7388C6.82712 13.7428 6.82075 13.7498 6.81236 13.7588L5.35059 12.3938L3.88882 11.0288C3.8614 11.0582 3.83923 11.0834 3.83136 11.0923L5.33301 12.4133ZM5.35059 12.3938L6.81207 13.7591C6.78698 13.786 6.7516 13.8208 6.70513 13.8589L5.43652 12.3127L4.16792 10.7666C4.06048 10.8547 3.96799 10.9441 3.88911 11.0285L5.35059 12.3938ZM5.43652 12.3127L6.70432 13.8596C6.71857 13.8479 6.73102 13.8374 6.74137 13.8285C6.75169 13.8196 6.7604 13.8119 6.76701 13.8061C6.77354 13.8003 6.77877 13.7955 6.78171 13.7929C6.78322 13.7915 6.78444 13.7904 6.78507 13.7898C6.78539 13.7895 6.78566 13.7893 6.78576 13.7892C6.78592 13.7891 6.78584 13.7891 6.78579 13.7892C6.7857 13.7893 6.78292 13.7918 6.7793 13.795C6.7755 13.7985 6.76953 13.8038 6.76212 13.8103C6.74759 13.8231 6.72405 13.8434 6.6941 13.8673L5.44434 12.3059L4.19458 10.7445C4.16327 10.7695 4.13841 10.7909 4.12258 10.8048C4.11452 10.8119 4.1079 10.8179 4.10346 10.8218C4.0992 10.8257 4.09578 10.8288 4.09505 10.8295C4.09327 10.8311 4.09547 10.8291 4.0972 10.8275C4.09951 10.8254 4.10409 10.8213 4.10998 10.816C4.12144 10.8059 4.14209 10.7877 4.16873 10.7659L5.43652 12.3127ZM5.44434 12.3059L6.69373 13.8676L16.6937 5.86765L15.4443 4.30591L14.1949 2.74417L4.19495 10.7442L5.44434 12.3059ZM15.4443 4.30591L16.5508 5.97196L16.6787 5.887L15.5723 4.22095L14.4658 2.55489L14.3379 2.63985L15.4443 4.30591Z" fill="#504339" mask="url(#path-1-inside-1_410_2307)"/>
</svg>
