<svg width="22" height="24" viewBox="0 0 22 24" fill="none" xmlns="http://www.w3.org/2000/svg">
<mask id="path-1-inside-1_410_2498" fill="white">
<path d="M10.4609 0.109619C10.7711 -0.0607754 11.1603 -0.0325821 11.4443 0.19458L21.4443 8.19458C21.4468 8.19659 21.4487 8.19939 21.4512 8.20142C21.4785 8.22379 21.5039 8.24826 21.5283 8.27368C21.5386 8.28435 21.5489 8.2948 21.5586 8.30591C21.5825 8.33334 21.6056 8.36161 21.626 8.39185C21.631 8.39935 21.6348 8.40764 21.6396 8.41528C21.6556 8.44051 21.6702 8.46655 21.6836 8.49341C21.6901 8.50662 21.6963 8.51995 21.7021 8.53345C21.7165 8.56634 21.7289 8.60018 21.7393 8.63501C21.7423 8.64532 21.7444 8.65585 21.7471 8.66626C21.7538 8.69224 21.7593 8.71851 21.7637 8.74536C21.7661 8.76001 21.7688 8.77453 21.7705 8.78931C21.7742 8.82205 21.7773 8.85519 21.7773 8.88892V22.8889C21.7773 23.3798 21.3796 23.7776 20.8887 23.7776H13.7461C13.2552 23.7776 12.8564 23.3798 12.8564 22.8889V17.1897H8.9209V22.8889C8.9209 23.3798 8.52217 23.7776 8.03125 23.7776H0.888672C0.397752 23.7776 0 23.3798 0 22.8889V8.88892C7.95316e-06 8.85523 0.00220433 8.82202 0.00585938 8.78931C0.00752172 8.77455 0.0103018 8.76 0.0126953 8.74536C0.0170605 8.71854 0.022589 8.69222 0.0292969 8.66626C0.0319854 8.65586 0.034047 8.64531 0.0371094 8.63501C0.0474714 8.60021 0.0598538 8.56632 0.0742188 8.53345C0.0800879 8.51996 0.0862318 8.50661 0.0927734 8.49341C0.097516 8.48388 0.102351 8.47442 0.107422 8.46509L0.146484 8.39868C0.148024 8.39635 0.149804 8.39417 0.151367 8.39185C0.17167 8.36178 0.194043 8.3332 0.217773 8.30591C0.222308 8.30069 0.226777 8.29541 0.231445 8.29028L0.260742 8.26099C0.281433 8.24029 0.302554 8.22 0.325195 8.20142C0.327868 8.19923 0.330305 8.19674 0.333008 8.19458L10.333 0.19458L10.4609 0.109619Z"/>
</mask>
<path d="M10.4609 0.109619C10.7711 -0.0607754 11.1603 -0.0325821 11.4443 0.19458L21.4443 8.19458C21.4468 8.19659 21.4487 8.19939 21.4512 8.20142C21.4785 8.22379 21.5039 8.24826 21.5283 8.27368C21.5386 8.28435 21.5489 8.2948 21.5586 8.30591C21.5825 8.33334 21.6056 8.36161 21.626 8.39185C21.631 8.39935 21.6348 8.40764 21.6396 8.41528C21.6556 8.44051 21.6702 8.46655 21.6836 8.49341C21.6901 8.50662 21.6963 8.51995 21.7021 8.53345C21.7165 8.56634 21.7289 8.60018 21.7393 8.63501C21.7423 8.64532 21.7444 8.65585 21.7471 8.66626C21.7538 8.69224 21.7593 8.71851 21.7637 8.74536C21.7661 8.76001 21.7688 8.77453 21.7705 8.78931C21.7742 8.82205 21.7773 8.85519 21.7773 8.88892V22.8889C21.7773 23.3798 21.3796 23.7776 20.8887 23.7776H13.7461C13.2552 23.7776 12.8564 23.3798 12.8564 22.8889V17.1897H8.9209V22.8889C8.9209 23.3798 8.52217 23.7776 8.03125 23.7776H0.888672C0.397752 23.7776 0 23.3798 0 22.8889V8.88892C7.95316e-06 8.85523 0.00220433 8.82202 0.00585938 8.78931C0.00752172 8.77455 0.0103018 8.76 0.0126953 8.74536C0.0170605 8.71854 0.022589 8.69222 0.0292969 8.66626C0.0319854 8.65586 0.034047 8.64531 0.0371094 8.63501C0.0474714 8.60021 0.0598538 8.56632 0.0742188 8.53345C0.0800879 8.51996 0.0862318 8.50661 0.0927734 8.49341C0.097516 8.48388 0.102351 8.47442 0.107422 8.46509L0.146484 8.39868C0.148024 8.39635 0.149804 8.39417 0.151367 8.39185C0.17167 8.36178 0.194043 8.3332 0.217773 8.30591C0.222308 8.30069 0.226777 8.29541 0.231445 8.29028L0.260742 8.26099C0.281433 8.24029 0.302554 8.22 0.325195 8.20142C0.327868 8.19923 0.330305 8.19674 0.333008 8.19458L10.333 0.19458L10.4609 0.109619Z" fill="#C0B5AE"/>
<path d="M10.4609 0.109619L9.49797 -1.64329C9.44894 -1.61636 9.40107 -1.58738 9.35447 -1.55644L10.4609 0.109619ZM11.4443 0.19458L12.6937 -1.36716L12.6935 -1.36734L11.4443 0.19458ZM21.4443 8.19458L22.694 6.63305L22.6937 6.63284L21.4443 8.19458ZM21.4512 8.20142L22.7187 6.65432L22.7176 6.65343L21.4512 8.20142ZM21.5283 8.27368L22.9698 6.88724L22.9697 6.88719L21.5283 8.27368ZM21.5586 8.30591L20.0496 9.61854L20.0503 9.61937L21.5586 8.30591ZM21.626 8.39185L23.2852 7.27514L23.2834 7.27246L21.626 8.39185ZM21.6396 8.41528L19.947 9.48069L19.9489 9.48368L21.6396 8.41528ZM21.6836 8.49341L23.4751 7.60439L23.4736 7.6012L21.6836 8.49341ZM21.7021 8.53345L19.8687 9.3324L19.8699 9.33519L21.7021 8.53345ZM21.7393 8.63501L23.6561 8.06434L23.6559 8.06364L21.7393 8.63501ZM21.7471 8.66626L23.6833 8.16534L23.6833 8.16529L21.7471 8.66626ZM21.7637 8.74536L19.7897 9.06699L19.79 9.06854L21.7637 8.74536ZM21.7705 8.78931L23.7581 8.56697L23.7579 8.56519L21.7705 8.78931ZM21.7773 8.88892H23.7773V8.88844L21.7773 8.88892ZM12.8564 17.1897H14.8564C14.8564 16.0851 13.961 15.1897 12.8564 15.1897V17.1897ZM8.9209 17.1897V15.1897C7.81633 15.1897 6.9209 16.0851 6.9209 17.1897H8.9209ZM0 8.88892L-2 8.88844V8.88892H0ZM0.00585938 8.78931L-1.98157 8.56544L-1.98177 8.56722L0.00585938 8.78931ZM0.0126953 8.74536L1.98647 9.06819L1.98672 9.06664L0.0126953 8.74536ZM0.0292969 8.66626L-1.90708 8.16582L-1.9071 8.16588L0.0292969 8.66626ZM0.0371094 8.63501L-1.87972 8.06425L-1.87992 8.06494L0.0371094 8.63501ZM0.0742188 8.53345L1.90685 9.33438L1.90806 9.33159L0.0742188 8.53345ZM0.0927734 8.49341L-1.69763 7.60208L-1.69921 7.60526L0.0927734 8.49341ZM0.107422 8.46509L-1.61645 7.45105C-1.62788 7.47048 -1.63898 7.49011 -1.64975 7.50993L0.107422 8.46509ZM0.146484 8.39868L-1.52323 7.29775C-1.54202 7.32625 -1.56008 7.35522 -1.57738 7.38464L0.146484 8.39868ZM0.151367 8.39185L-1.50604 7.27246L-1.50784 7.27514L0.151367 8.39185ZM0.217773 8.30591L1.72697 9.61829L1.72769 9.61745L0.217773 8.30591ZM0.231445 8.29028L-1.18277 6.87607C-1.2048 6.8981 -1.22631 6.92064 -1.24729 6.94368L0.231445 8.29028ZM0.260742 8.26099L1.67496 9.6752L1.67507 9.67508L0.260742 8.26099ZM0.325195 8.20142L-0.942507 6.65451L-0.943593 6.6554L0.325195 8.20142ZM0.333008 8.19458L-0.916382 6.63284L-0.916648 6.63305L0.333008 8.19458ZM10.333 0.19458L9.22654 -1.47147C9.17739 -1.43883 9.1297 -1.40402 9.08362 -1.36716L10.333 0.19458ZM10.4609 0.109619L11.4239 1.86253C11.0367 2.07522 10.5519 2.04178 10.1952 1.7565L11.4443 0.19458L12.6935 -1.36734C11.7687 -2.10694 10.5055 -2.19677 9.49797 -1.64329L10.4609 0.109619ZM11.4443 0.19458L10.1949 1.75632L20.1949 9.75632L21.4443 8.19458L22.6937 6.63284L12.6937 -1.36716L11.4443 0.19458ZM21.4443 8.19458L20.1947 9.75611C20.1533 9.72301 20.118 9.69199 20.0888 9.66509C20.0598 9.63828 20.0357 9.61445 20.0174 9.59575C19.9992 9.57719 19.9849 9.56182 19.9762 9.55236C19.9717 9.54752 19.9681 9.54357 19.9659 9.5411C19.9647 9.53983 19.9638 9.5388 19.9632 9.53814C19.9626 9.53749 19.9622 9.53701 19.9621 9.53696C19.9616 9.53636 19.9632 9.53821 19.9649 9.54C19.9668 9.54209 19.97 9.54572 19.9741 9.55018C19.9821 9.5589 19.9958 9.57366 20.0131 9.59155C20.0306 9.60961 20.0538 9.63291 20.0819 9.65927C20.1101 9.68571 20.1445 9.71644 20.1848 9.7494L21.4512 8.20142L22.7176 6.65343C22.7572 6.68589 22.791 6.71609 22.8186 6.74198C22.8461 6.76778 22.8688 6.79051 22.8857 6.808C22.9025 6.82531 22.9156 6.83948 22.923 6.8476C22.9269 6.85177 22.9299 6.85509 22.9315 6.85688C22.9328 6.85837 22.9342 6.85992 22.9334 6.85902C22.9332 6.85877 22.9312 6.85662 22.9289 6.85398C22.9263 6.8512 22.9225 6.84696 22.9177 6.84182C22.9085 6.83176 22.8936 6.81581 22.8748 6.79667C22.856 6.77739 22.8313 6.753 22.8017 6.72564C22.7719 6.6982 22.736 6.66665 22.694 6.63305L21.4443 8.19458ZM21.4512 8.20142L20.1837 9.74851C20.1298 9.70433 20.0956 9.66918 20.0869 9.66017L21.5283 8.27368L22.9697 6.88719C22.9121 6.82733 22.8272 6.74325 22.7187 6.65432L21.4512 8.20142ZM21.5283 8.27368L20.0869 9.66012C20.0916 9.66504 20.0977 9.67129 20.0978 9.67147C20.0996 9.67327 20.0979 9.67153 20.095 9.66856C20.0896 9.66285 20.0721 9.64438 20.0496 9.61854L21.5586 8.30591L23.0676 6.99327C23.0354 6.95633 23.0079 6.92708 22.9923 6.91071C22.9844 6.9024 22.9776 6.89535 22.9742 6.89185C22.9733 6.89091 22.9725 6.89001 22.9718 6.88937C22.9711 6.88865 22.9707 6.8882 22.9703 6.88778C22.9695 6.88693 22.9694 6.88691 22.9698 6.88724L21.5283 8.27368ZM21.5586 8.30591L20.0503 9.61937C20.0493 9.61818 20.0131 9.57718 19.9686 9.51123L21.626 8.39185L23.2834 7.27246C23.198 7.14604 23.1157 7.0485 23.0668 6.99245L21.5586 8.30591ZM21.626 8.39185L19.9668 9.50855C19.9383 9.46628 19.9169 9.43083 19.9036 9.408C19.8968 9.39638 19.8913 9.38681 19.8877 9.38042C19.8843 9.37421 19.8817 9.36956 19.8812 9.36868C19.881 9.36831 19.8808 9.36786 19.8813 9.36882C19.8816 9.36941 19.8825 9.37105 19.8836 9.37298C19.8857 9.37677 19.8898 9.38417 19.8949 9.39328C19.905 9.41106 19.923 9.44257 19.947 9.48069L21.6396 8.41528L23.3323 7.34988C23.3538 7.38418 23.3697 7.41178 23.3775 7.42562C23.3815 7.43276 23.3845 7.43818 23.3855 7.44C23.386 7.44094 23.3864 7.44158 23.3862 7.44118C23.3861 7.44115 23.3854 7.43971 23.3846 7.43834C23.3821 7.43379 23.3706 7.41282 23.3556 7.3872C23.3399 7.36046 23.3162 7.32116 23.2852 7.27514L21.626 8.39185ZM21.6396 8.41528L19.9489 9.48368C19.9277 9.45005 19.9093 9.41715 19.8936 9.38562L21.6836 8.49341L23.4736 7.6012C23.4311 7.51595 23.3835 7.43097 23.3304 7.34689L21.6396 8.41528ZM21.6836 8.49341L19.892 9.38243C19.8808 9.35974 19.8729 9.34214 19.8687 9.3324L21.7021 8.53345L23.5356 7.7345C23.5196 7.69776 23.4995 7.6535 23.4751 7.60439L21.6836 8.49341ZM21.7021 8.53345L19.8699 9.33519C19.8504 9.29071 19.8349 9.24746 19.8226 9.20638L21.7393 8.63501L23.6559 8.06364C23.6229 7.9529 23.5827 7.84198 23.5344 7.73171L21.7021 8.53345ZM21.7393 8.63501L19.8224 9.20568C19.8141 9.17773 19.8079 9.15465 19.8039 9.13903C19.8001 9.12385 19.7974 9.1125 19.7968 9.11007C19.7965 9.10892 19.7963 9.10793 19.7968 9.10999C19.7971 9.11122 19.798 9.11508 19.799 9.11952C19.8011 9.12832 19.8053 9.14578 19.8108 9.16723L21.7471 8.66626L23.6833 8.16529C23.6875 8.18153 23.6904 8.19377 23.6913 8.19735C23.6917 8.19917 23.692 8.20042 23.6917 8.19904C23.6915 8.19849 23.6907 8.19488 23.6898 8.19112C23.688 8.18347 23.6841 8.1669 23.6789 8.14653C23.6735 8.1257 23.666 8.09744 23.6561 8.06434L21.7393 8.63501ZM21.7471 8.66626L19.8108 9.16718C19.8019 9.13263 19.7949 9.09902 19.7897 9.06699L21.7637 8.74536L23.7376 8.42373C23.7237 8.338 23.7057 8.25186 23.6833 8.16534L21.7471 8.66626ZM21.7637 8.74536L19.79 9.06854C19.7918 9.0798 19.7935 9.08986 19.794 9.0927C19.7949 9.09765 19.7944 9.09506 19.7938 9.09157C19.7927 9.08441 19.7877 9.05424 19.7831 9.01342L21.7705 8.78931L23.7579 8.56519C23.7516 8.5096 23.7445 8.46479 23.7409 8.443C23.7391 8.4322 23.7374 8.42232 23.737 8.41996C23.7363 8.41549 23.7367 8.41824 23.7374 8.42218L21.7637 8.74536ZM21.7705 8.78931L19.7829 9.01164C19.7837 9.0189 19.7824 9.00781 19.7809 8.98899C19.7795 8.96912 19.7774 8.93433 19.7773 8.88939L21.7773 8.88892L23.7773 8.88844C23.7773 8.73786 23.7633 8.613 23.7581 8.56697L21.7705 8.78931ZM21.7773 8.88892H19.7773V22.8889H21.7773H23.7773V8.88892H21.7773ZM21.7773 22.8889H19.7773C19.7773 22.2753 20.275 21.7776 20.8887 21.7776V23.7776V25.7776C22.4842 25.7776 23.7773 24.4844 23.7773 22.8889H21.7773ZM20.8887 23.7776V21.7776H13.7461V23.7776V25.7776H20.8887V23.7776ZM13.7461 23.7776V21.7776C14.3569 21.7776 14.8564 22.2724 14.8564 22.8889H12.8564H10.8564C10.8564 24.4873 12.1535 25.7776 13.7461 25.7776V23.7776ZM12.8564 22.8889H14.8564V17.1897H12.8564H10.8564V22.8889H12.8564ZM12.8564 17.1897V15.1897H8.9209V17.1897V19.1897H12.8564V17.1897ZM8.9209 17.1897H6.9209V22.8889H8.9209H10.9209V17.1897H8.9209ZM8.9209 22.8889H6.9209C6.9209 22.2724 7.42046 21.7776 8.03125 21.7776V23.7776V25.7776C9.62388 25.7776 10.9209 24.4873 10.9209 22.8889H8.9209ZM8.03125 23.7776V21.7776H0.888672V23.7776V25.7776H8.03125V23.7776ZM0.888672 23.7776V21.7776C1.50232 21.7776 2 22.2753 2 22.8889H0H-2C-2 24.4844 -0.706817 25.7776 0.888672 25.7776V23.7776ZM0 22.8889H2V8.88892H0H-2V22.8889H0ZM0 8.88892L2 8.88939C1.99999 8.94207 1.99657 8.98387 1.99349 9.0114L0.00585938 8.78931L-1.98177 8.56722C-1.99216 8.66016 -1.99997 8.7684 -2 8.88844L0 8.88892ZM0.00585938 8.78931L1.99329 9.01318C1.98866 9.05429 1.98368 9.08465 1.98252 9.09169C1.98195 9.09513 1.98151 9.09772 1.98237 9.09267C1.98286 9.08975 1.9846 9.0796 1.98647 9.06819L0.0126953 8.74536L-1.96108 8.42253C-1.96041 8.41844 -1.95992 8.41559 -1.96066 8.41998C-1.96105 8.42224 -1.96274 8.43213 -1.96451 8.44288C-1.96807 8.46455 -1.97528 8.50957 -1.98157 8.56544L0.00585938 8.78931ZM0.0126953 8.74536L1.98672 9.06664C1.98137 9.09954 1.97438 9.133 1.96569 9.16664L0.0292969 8.66626L-1.9071 8.16588C-1.92921 8.25144 -1.94725 8.33754 -1.96133 8.42408L0.0126953 8.74536ZM0.0292969 8.66626L1.96567 9.1667C1.97115 9.14552 1.97527 9.12828 1.97732 9.11964C1.97835 9.11528 1.97924 9.11147 1.97952 9.11027C1.97999 9.10827 1.97976 9.10924 1.97949 9.1104C1.97892 9.11282 1.97627 9.12405 1.97242 9.13906C1.96846 9.15451 1.96238 9.17738 1.95414 9.20508L0.0371094 8.63501L-1.87992 8.06494C-1.88969 8.09779 -1.89718 8.12584 -1.90247 8.14648C-1.90765 8.1667 -1.91156 8.18314 -1.91337 8.19079C-1.91426 8.19457 -1.91509 8.19815 -1.91524 8.19876C-1.91557 8.20018 -1.91529 8.19898 -1.91488 8.19723C-1.91407 8.19381 -1.91121 8.18179 -1.90708 8.16582L0.0292969 8.66626ZM0.0371094 8.63501L1.95394 9.20577C1.94128 9.24828 1.92567 9.29131 1.90684 9.33438L0.0742188 8.53345L-1.75841 7.73252C-1.80596 7.84132 -1.84634 7.95214 -1.87972 8.06425L0.0371094 8.63501ZM0.0742188 8.53345L1.90806 9.33159C1.90301 9.34319 1.89525 9.36038 1.88475 9.38155L0.0927734 8.49341L-1.69921 7.60526C-1.72279 7.65284 -1.74283 7.69673 -1.75962 7.7353L0.0742188 8.53345ZM0.0927734 8.49341L1.88317 9.38474C1.88227 9.38656 1.87535 9.40047 1.8646 9.42025L0.107422 8.46509L-1.64975 7.50993C-1.67064 7.54836 -1.68724 7.58121 -1.69763 7.60208L0.0927734 8.49341ZM0.107422 8.46509L1.83129 9.47913L1.87035 9.41272L0.146484 8.39868L-1.57738 7.38464L-1.61645 7.45105L0.107422 8.46509ZM0.146484 8.39868L1.8162 9.49961C1.79811 9.52704 1.78277 9.54879 1.77315 9.56221C1.76825 9.56906 1.76421 9.57459 1.76164 9.5781C1.7592 9.58143 1.7573 9.584 1.75726 9.58406C1.7568 9.58468 1.75763 9.58355 1.75777 9.58336C1.75822 9.58276 1.75906 9.58162 1.7601 9.5802C1.76214 9.57744 1.76572 9.57256 1.77012 9.56648C1.77872 9.5546 1.79327 9.53426 1.81058 9.50855L0.151367 8.39185L-1.50784 7.27514C-1.49132 7.2506 -1.47758 7.2314 -1.4698 7.22065C-1.46581 7.21514 -1.46264 7.21083 -1.46102 7.20862C-1.45977 7.20693 -1.45825 7.20488 -1.45942 7.20646C-1.45988 7.20708 -1.4622 7.21021 -1.46506 7.21411C-1.46804 7.21819 -1.47248 7.22428 -1.4778 7.2317C-1.48824 7.24625 -1.50437 7.26915 -1.52323 7.29775L0.146484 8.39868ZM0.151367 8.39185L1.80877 9.51123C1.77708 9.55814 1.74824 9.59382 1.72697 9.61829L0.217773 8.30591L-1.29142 6.99353C-1.36015 7.07257 -1.43374 7.16543 -1.50603 7.27246L0.151367 8.39185ZM0.217773 8.30591L1.72769 9.61745C1.73128 9.61332 1.73445 9.60965 1.73536 9.60859C1.73694 9.60676 1.73613 9.6077 1.73505 9.60894C1.73285 9.61148 1.72333 9.62245 1.71018 9.63689L0.231445 8.29028L-1.24729 6.94368C-1.2651 6.96324 -1.27919 6.97941 -1.28593 6.98718C-1.28928 6.99103 -1.29235 6.9946 -1.29303 6.99538C-1.29438 6.99694 -1.29346 6.99588 -1.29215 6.99437L0.217773 8.30591ZM0.231445 8.29028L1.64566 9.7045L1.67496 9.6752L0.260742 8.26099L-1.15347 6.84677L-1.18277 6.87607L0.231445 8.29028ZM0.260742 8.26099L1.67507 9.67508C1.6767 9.67346 1.66934 9.68089 1.65684 9.69255C1.64398 9.70455 1.62254 9.724 1.59398 9.74744L0.325195 8.20142L-0.943593 6.6554C-1.04247 6.73654 -1.11811 6.8114 -1.15359 6.84689L0.260742 8.26099ZM0.325195 8.20142L1.5929 9.74833C1.60717 9.73663 1.61965 9.72608 1.63001 9.71717C1.64035 9.70828 1.64908 9.7006 1.65569 9.69472C1.66223 9.68891 1.66747 9.68418 1.67043 9.68151C1.67194 9.68014 1.67316 9.67903 1.67379 9.67846C1.67411 9.67817 1.67438 9.67792 1.67447 9.67783C1.67464 9.67768 1.67456 9.67775 1.6745 9.67781C1.67442 9.67789 1.67163 9.68042 1.66801 9.68368C1.66421 9.6871 1.65823 9.69246 1.6508 9.69898C1.63625 9.71176 1.61267 9.73209 1.58266 9.75611L0.333008 8.19458L-0.916648 6.63305C-0.948002 6.65815 -0.972902 6.6796 -0.988757 6.69353C-0.996832 6.70062 -1.00346 6.70655 -1.00791 6.71055C-1.01217 6.71439 -1.01559 6.71751 -1.01632 6.71817C-1.01811 6.71979 -1.0159 6.71779 -1.01417 6.71621C-1.01186 6.71412 -1.00726 6.70997 -1.00137 6.70473C-0.989882 6.69453 -0.969198 6.67638 -0.942507 6.65451L0.325195 8.20142ZM0.333008 8.19458L1.5824 9.75632L11.5824 1.75632L10.333 0.19458L9.08362 -1.36716L-0.916382 6.63284L0.333008 8.19458ZM10.333 0.19458L11.4395 1.86063L11.5674 1.77567L10.4609 0.109619L9.35447 -1.55644L9.22654 -1.47147L10.333 0.19458Z" fill="#C0B5AE" mask="url(#path-1-inside-1_410_2498)"/>
</svg>
