<svg width="22" height="24" viewBox="0 0 22 24" fill="none" xmlns="http://www.w3.org/2000/svg">
<mask id="path-1-inside-1_410_2308" fill="white">
<path d="M10.4609 0.109619C10.7712 -0.0608517 11.1603 -0.0326813 11.4443 0.19458L21.4443 8.19458C21.4468 8.19659 21.4487 8.19939 21.4512 8.20142C21.4817 8.22642 21.5102 8.25368 21.5371 8.28247C21.5431 8.28889 21.5489 8.29543 21.5547 8.302C21.58 8.33067 21.6045 8.36007 21.626 8.39185C21.631 8.39935 21.6348 8.40764 21.6396 8.41528C21.6568 8.44235 21.6724 8.47033 21.6865 8.49927C21.6908 8.50805 21.6952 8.51672 21.6992 8.52563C21.7152 8.56127 21.729 8.59804 21.7402 8.63599C21.7423 8.64303 21.7432 8.65038 21.7451 8.65747C21.7537 8.68941 21.7606 8.72187 21.7656 8.75513C21.7674 8.76652 21.7692 8.77784 21.7705 8.78931C21.7742 8.82205 21.7773 8.85519 21.7773 8.88892V22.8889C21.7773 23.3798 21.3796 23.7776 20.8887 23.7776H13.7461C13.2552 23.7776 12.8565 23.3798 12.8564 22.8889V17.1897H8.9209V22.8889C8.92085 23.3798 8.52214 23.7776 8.03125 23.7776H0.888672C0.397784 23.7776 5.20234e-05 23.3798 0 22.8889V8.88892C0 8.85523 0.00221193 8.82202 0.00585938 8.78931C0.00714965 8.77785 0.00901075 8.76651 0.0107422 8.75513C0.0157599 8.7219 0.0226623 8.68938 0.03125 8.65747C0.0331582 8.65039 0.0340504 8.64302 0.0361328 8.63599C0.0455147 8.6043 0.0566248 8.57331 0.0693359 8.54321L0.0810547 8.51685C0.0837892 8.5109 0.0869762 8.50516 0.0898438 8.49927C0.0954766 8.48774 0.101311 8.47633 0.107422 8.46509L0.146484 8.39868C0.148025 8.39635 0.149804 8.39417 0.151367 8.39185C0.172703 8.36025 0.196565 8.33052 0.22168 8.302C0.227461 8.29543 0.233264 8.28889 0.239258 8.28247C0.266156 8.25368 0.29471 8.22643 0.325195 8.20142C0.327868 8.19923 0.330305 8.19674 0.333008 8.19458L10.333 0.19458L10.4609 0.109619Z"/>
</mask>
<path d="M10.4609 0.109619C10.7712 -0.0608517 11.1603 -0.0326813 11.4443 0.19458L21.4443 8.19458C21.4468 8.19659 21.4487 8.19939 21.4512 8.20142C21.4817 8.22642 21.5102 8.25368 21.5371 8.28247C21.5431 8.28889 21.5489 8.29543 21.5547 8.302C21.58 8.33067 21.6045 8.36007 21.626 8.39185C21.631 8.39935 21.6348 8.40764 21.6396 8.41528C21.6568 8.44235 21.6724 8.47033 21.6865 8.49927C21.6908 8.50805 21.6952 8.51672 21.6992 8.52563C21.7152 8.56127 21.729 8.59804 21.7402 8.63599C21.7423 8.64303 21.7432 8.65038 21.7451 8.65747C21.7537 8.68941 21.7606 8.72187 21.7656 8.75513C21.7674 8.76652 21.7692 8.77784 21.7705 8.78931C21.7742 8.82205 21.7773 8.85519 21.7773 8.88892V22.8889C21.7773 23.3798 21.3796 23.7776 20.8887 23.7776H13.7461C13.2552 23.7776 12.8565 23.3798 12.8564 22.8889V17.1897H8.9209V22.8889C8.92085 23.3798 8.52214 23.7776 8.03125 23.7776H0.888672C0.397784 23.7776 5.20234e-05 23.3798 0 22.8889V8.88892C0 8.85523 0.00221193 8.82202 0.00585938 8.78931C0.00714965 8.77785 0.00901075 8.76651 0.0107422 8.75513C0.0157599 8.7219 0.0226623 8.68938 0.03125 8.65747C0.0331582 8.65039 0.0340504 8.64302 0.0361328 8.63599C0.0455147 8.6043 0.0566248 8.57331 0.0693359 8.54321L0.0810547 8.51685C0.0837892 8.5109 0.0869762 8.50516 0.0898438 8.49927C0.0954766 8.48774 0.101311 8.47633 0.107422 8.46509L0.146484 8.39868C0.148025 8.39635 0.149804 8.39417 0.151367 8.39185C0.172703 8.36025 0.196565 8.33052 0.22168 8.302C0.227461 8.29543 0.233264 8.28889 0.239258 8.28247C0.266156 8.25368 0.29471 8.22643 0.325195 8.20142C0.327868 8.19923 0.330305 8.19674 0.333008 8.19458L10.333 0.19458L10.4609 0.109619Z" fill="#504339"/>
<path d="M10.4609 0.109619L9.49776 -1.64318C9.44881 -1.61628 9.401 -1.58734 9.35447 -1.55644L10.4609 0.109619ZM21.4443 8.19458L22.6941 6.63314L22.6937 6.63284L21.4443 8.19458ZM21.4512 8.20142L22.7185 6.65417L22.7177 6.65351L21.4512 8.20142ZM21.5371 8.28247L22.9979 6.91637L22.9976 6.91607L21.5371 8.28247ZM21.5547 8.302L20.054 9.6241L20.0546 9.62483L21.5547 8.302ZM21.626 8.39185L23.2851 7.27496L23.2834 7.27248L21.626 8.39185ZM21.6396 8.41528L19.9472 9.48088L19.9489 9.48363L21.6396 8.41528ZM21.6865 8.49927L23.4845 7.62326L23.4831 7.6205L21.6865 8.49927ZM21.6992 8.52563L19.8734 9.34196L19.8745 9.34442L21.6992 8.52563ZM21.7402 8.63599L23.6578 8.06775L23.6578 8.06759L21.7402 8.63599ZM21.7451 8.65747L23.6762 8.13715L23.6762 8.13679L21.7451 8.65747ZM21.7656 8.75513L19.7881 9.05411L19.7884 9.05626L21.7656 8.75513ZM21.7705 8.78931L23.7582 8.56743L23.7579 8.56518L21.7705 8.78931ZM21.7773 22.8889L23.7773 22.8891V22.8889H21.7773ZM12.8564 22.8889H10.8564V22.8891L12.8564 22.8889ZM12.8564 17.1897H14.8564C14.8564 16.0851 13.961 15.1897 12.8564 15.1897V17.1897ZM8.9209 17.1897V15.1897C7.81633 15.1897 6.9209 16.0851 6.9209 17.1897H8.9209ZM8.9209 22.8889L10.9209 22.8891V22.8889H8.9209ZM0 22.8889H-2V22.8891L0 22.8889ZM0.00585938 8.78931L-1.98157 8.56542L-1.98182 8.56767L0.00585938 8.78931ZM0.0107422 8.75513L1.98799 9.05594L1.98832 9.05379L0.0107422 8.75513ZM0.03125 8.65747L-1.89993 8.13734L-1.90003 8.13771L0.03125 8.65747ZM0.0361328 8.63599L-1.88158 8.0682L-1.88162 8.06835L0.0361328 8.63599ZM0.0693359 8.54321L-1.75829 7.73094C-1.76334 7.7423 -1.76828 7.75371 -1.77312 7.76517L0.0693359 8.54321ZM0.0810547 8.51685L-1.73621 7.68165C-1.73971 7.68927 -1.74316 7.69691 -1.74657 7.70457L0.0810547 8.51685ZM0.0898438 8.49927L-1.70718 7.62137L-1.70852 7.62413L0.0898438 8.49927ZM0.107422 8.46509L-1.61645 7.45105C-1.6279 7.47052 -1.63903 7.49019 -1.64982 7.51004L0.107422 8.46509ZM0.146484 8.39868L-1.52311 7.29757C-1.54194 7.32612 -1.56004 7.35516 -1.57738 7.38464L0.146484 8.39868ZM0.151367 8.39185L-1.50605 7.27248L-1.50772 7.27496L0.151367 8.39185ZM0.22168 8.302L1.72268 9.62374L1.72333 9.62301L0.22168 8.302ZM0.239258 8.28247L-1.22222 6.91716L-1.22251 6.91747L0.239258 8.28247ZM0.325195 8.20142L-0.942596 6.65458L-0.943411 6.65525L0.325195 8.20142ZM0.333008 8.19458L-0.916382 6.63284L-0.916752 6.63314L0.333008 8.19458ZM10.333 0.19458L9.22654 -1.47147C9.17739 -1.43883 9.1297 -1.40402 9.08362 -1.36716L10.333 0.19458ZM10.4609 0.109619L11.4241 1.86242C11.0369 2.07517 10.5518 2.04176 10.1949 1.75632L11.4443 0.19458L12.6937 -1.36716C11.7688 -2.10713 10.5054 -2.19687 9.49776 -1.64318L10.4609 0.109619ZM11.4443 0.19458L10.1949 1.75632L20.1949 9.75632L21.4443 8.19458L22.6937 6.63284L12.6937 -1.36716L11.4443 0.19458ZM21.4443 8.19458L20.1946 9.75602C20.1532 9.72294 20.1179 9.69194 20.0888 9.66506C20.0597 9.63826 20.0357 9.61445 20.0174 9.59576C19.9992 9.57721 19.9849 9.56185 19.9762 9.55239C19.9717 9.54756 19.9681 9.54362 19.9659 9.54114C19.9647 9.53988 19.9638 9.53885 19.9632 9.53818C19.9626 9.53754 19.9622 9.53705 19.9622 9.53701C19.9616 9.53641 19.9633 9.53825 19.9649 9.54004C19.9668 9.54214 19.9701 9.54576 19.9742 9.55022C19.9821 9.55893 19.9958 9.57368 20.0131 9.59157C20.0306 9.60962 20.0538 9.6329 20.0819 9.65924C20.1101 9.68567 20.1444 9.71638 20.1847 9.74932L21.4512 8.20142L22.7177 6.65351C22.7573 6.68594 22.7911 6.71613 22.8186 6.742C22.8461 6.76779 22.8688 6.79051 22.8857 6.80798C22.9025 6.82529 22.9156 6.83945 22.923 6.84756C22.9268 6.85173 22.9298 6.85505 22.9314 6.85684C22.9328 6.85833 22.9342 6.85987 22.9334 6.85897C22.9331 6.85872 22.9312 6.85657 22.9288 6.85394C22.9263 6.85116 22.9224 6.84692 22.9177 6.84178C22.9084 6.83173 22.8936 6.81579 22.8748 6.79666C22.856 6.77739 22.8313 6.75302 22.8017 6.72568C22.772 6.69825 22.7361 6.66672 22.6941 6.63314L21.4443 8.19458ZM21.4512 8.20142L20.1839 9.74866C20.1351 9.70867 20.0994 9.67322 20.0767 9.64887L21.5371 8.28247L22.9976 6.91607C22.9209 6.83413 22.8283 6.74417 22.7185 6.65417L21.4512 8.20142ZM21.5371 8.28247L20.0764 9.64857C20.067 9.63858 20.06 9.63084 20.0565 9.62691C20.0534 9.62338 20.0514 9.62119 20.054 9.6241L21.5547 8.302L23.0554 6.9799C23.0502 6.97405 23.0265 6.94705 22.9979 6.91637L21.5371 8.28247ZM21.5547 8.302L20.0546 9.62483C20.0562 9.62658 20.047 9.61621 20.0328 9.59867C20.0184 9.58063 19.9953 9.55087 19.9686 9.51121L21.626 8.39185L23.2834 7.27248C23.1901 7.13427 23.0991 7.02945 23.0547 6.97918L21.5547 8.302ZM21.626 8.39185L19.9669 9.50873C19.9384 9.46637 19.9169 9.43085 19.9035 9.40798C19.8967 9.39633 19.8913 9.38674 19.8877 9.38034C19.8842 9.37412 19.8816 9.36946 19.8812 9.36858C19.8809 9.36821 19.8807 9.36776 19.8812 9.36873C19.8816 9.36932 19.8825 9.37097 19.8835 9.3729C19.8856 9.37671 19.8897 9.38413 19.8949 9.39326C19.905 9.41109 19.9231 9.44267 19.9472 9.48088L21.6396 8.41528L23.3321 7.34968C23.3538 7.38407 23.3696 7.41175 23.3775 7.42564C23.3815 7.43281 23.3845 7.43825 23.3856 7.44008C23.3861 7.44102 23.3864 7.44167 23.3862 7.44127C23.3862 7.44125 23.3854 7.4398 23.3847 7.43844C23.3822 7.4339 23.3706 7.41289 23.3556 7.38723C23.3399 7.36045 23.3161 7.32107 23.2851 7.27496L21.626 8.39185ZM21.6396 8.41528L19.9489 9.48363C19.9271 9.44915 19.9074 9.41382 19.8899 9.37803L21.6865 8.49927L23.4831 7.6205C23.4373 7.52683 23.3864 7.43555 23.3304 7.34694L21.6396 8.41528ZM21.6865 8.49927L19.8886 9.37527C19.8921 9.38258 19.8953 9.38894 19.8963 9.39094C19.8979 9.39428 19.8971 9.39264 19.8961 9.39067C19.8949 9.38816 19.892 9.38229 19.8883 9.37441C19.8846 9.36644 19.8794 9.35537 19.8734 9.34196L21.6992 8.52563L23.525 7.70931C23.5096 7.67467 23.4961 7.64704 23.4898 7.63413C23.4867 7.62778 23.4838 7.62178 23.4832 7.62075C23.4821 7.61836 23.4831 7.62035 23.4845 7.62326L21.6865 8.49927ZM21.6992 8.52563L19.8745 9.34442C19.8557 9.30255 19.8379 9.25577 19.8227 9.20438L21.7402 8.63599L23.6578 8.06759C23.62 7.94031 23.5747 7.81999 23.5239 7.70685L21.6992 8.52563ZM21.7402 8.63599L19.8227 9.20422C19.8074 9.15287 19.7973 9.11061 19.7912 9.08386C19.7881 9.07023 19.7857 9.0591 19.7842 9.05183C19.7828 9.04483 19.7817 9.03954 19.7816 9.03892C19.7815 9.03867 19.7815 9.03853 19.7815 9.03869C19.7815 9.0387 19.7816 9.03923 19.7817 9.03965C19.7819 9.04058 19.7823 9.04265 19.7828 9.04517C19.7838 9.05011 19.7857 9.05926 19.7881 9.07057C19.7906 9.08203 19.7939 9.09722 19.7981 9.11499C19.8023 9.13283 19.8076 9.15415 19.8141 9.17815L21.7451 8.65747L23.6762 8.13679C23.6879 8.18032 23.6956 8.21515 23.6996 8.23366C23.7016 8.24317 23.7031 8.25052 23.7037 8.25365C23.704 8.25498 23.7049 8.25957 23.7039 8.2545C23.7032 8.25113 23.6986 8.22761 23.692 8.19878C23.6852 8.16844 23.6741 8.12262 23.6578 8.06775L21.7402 8.63599ZM21.7451 8.65747L19.814 9.17779C19.8035 9.13895 19.7947 9.09753 19.7881 9.05411L21.7656 8.75513L23.7432 8.45614C23.7265 8.3462 23.7039 8.23987 23.6762 8.13715L21.7451 8.65747ZM21.7656 8.75513L19.7884 9.05626C19.7892 9.06143 19.7903 9.06817 19.7903 9.06829C19.7906 9.07018 19.7903 9.06831 19.7898 9.06514C19.7889 9.05903 19.7861 9.03964 19.7831 9.01344L21.7705 8.78931L23.7579 8.56518C23.7537 8.52751 23.7493 8.49673 23.7467 8.47924C23.7453 8.47038 23.7442 8.46283 23.7436 8.45903C23.7434 8.45802 23.7433 8.45706 23.7432 8.45636C23.7431 8.45557 23.743 8.45509 23.7429 8.45462C23.7428 8.4537 23.7428 8.45365 23.7428 8.45399L21.7656 8.75513ZM21.7705 8.78931L19.7829 9.01118C19.7837 9.019 19.7824 9.00797 19.781 8.98923C19.7795 8.96937 19.7773 8.93429 19.7773 8.88892H21.7773H23.7773C23.7773 8.73771 23.7632 8.6122 23.7582 8.56743L21.7705 8.78931ZM21.7773 8.88892H19.7773V22.8889H21.7773H23.7773V8.88892H21.7773ZM21.7773 22.8889L19.7773 22.8887C19.7774 22.2754 20.2748 21.7776 20.8887 21.7776V23.7776V25.7776C22.4843 25.7776 23.7772 24.4842 23.7773 22.8891L21.7773 22.8889ZM20.8887 23.7776V21.7776H13.7461V23.7776V25.7776H20.8887V23.7776ZM13.7461 23.7776V21.7776C14.3571 21.7776 14.8564 22.2725 14.8564 22.8887L12.8564 22.8889L10.8564 22.8891C10.8566 24.4871 12.1533 25.7776 13.7461 25.7776V23.7776ZM12.8564 22.8889H14.8564V17.1897H12.8564H10.8564V22.8889H12.8564ZM12.8564 17.1897V15.1897H8.9209V17.1897V19.1897H12.8564V17.1897ZM8.9209 17.1897H6.9209V22.8889H8.9209H10.9209V17.1897H8.9209ZM8.9209 22.8889L6.9209 22.8887C6.92096 22.2725 7.42022 21.7776 8.03125 21.7776V23.7776V25.7776C9.62406 25.7776 10.9207 24.4871 10.9209 22.8891L8.9209 22.8889ZM8.03125 23.7776V21.7776H0.888672V23.7776V25.7776H8.03125V23.7776ZM0.888672 23.7776V21.7776C1.50256 21.7776 1.99994 22.2754 2 22.8887L0 22.8889L-2 22.8891C-1.99983 24.4842 -0.706996 25.7776 0.888672 25.7776V23.7776ZM0 22.8889H2V8.88892H0H-2V22.8889H0ZM0 8.88892H2C2 8.94245 1.9965 8.98442 1.99354 9.01094L0.00585938 8.78931L-1.98182 8.56767C-1.99207 8.65961 -2 8.76801 -2 8.88892H0ZM0.00585938 8.78931L1.99329 9.01319C1.99031 9.03967 1.98744 9.05925 1.98655 9.06527C1.98608 9.0684 1.98579 9.07025 1.9861 9.06827C1.98614 9.068 1.98717 9.06132 1.98799 9.05594L0.0107422 8.75513L-1.96651 8.45432C-1.96644 8.45391 -1.96644 8.4539 -1.96658 8.45476C-1.96664 8.4552 -1.96672 8.45567 -1.96683 8.45642C-1.96694 8.4571 -1.96708 8.45805 -1.96724 8.45904C-1.96781 8.46275 -1.96897 8.47029 -1.97027 8.47911C-1.97285 8.49651 -1.9773 8.52749 -1.98157 8.56542L0.00585938 8.78931ZM0.0107422 8.75513L1.98832 9.05379C1.98163 9.09804 1.97273 9.13932 1.96253 9.17723L0.03125 8.65747L-1.90003 8.13771C-1.92741 8.23944 -1.95011 8.34577 -1.96683 8.45647L0.0107422 8.75513ZM0.03125 8.65747L1.96243 9.1776C1.96886 9.15373 1.97412 9.13252 1.9783 9.1148C1.98248 9.09715 1.9858 9.08206 1.98823 9.07068C1.99064 9.05946 1.99248 9.05038 1.99347 9.04549C1.99398 9.04298 1.99439 9.04093 1.99457 9.04001C1.99466 9.0396 1.99476 9.03907 1.99476 9.03906C1.9948 9.0389 1.99477 9.03905 1.99472 9.03929C1.99459 9.03991 1.99355 9.04516 1.9921 9.05211C1.99059 9.05933 1.98824 9.07038 1.98517 9.08392C1.97915 9.11047 1.96902 9.15251 1.95389 9.20363L0.0361328 8.63599L-1.88162 8.06835C-1.89779 8.12298 -1.90881 8.16858 -1.91565 8.19871C-1.92216 8.22738 -1.92679 8.25075 -1.92747 8.25413C-1.92848 8.2592 -1.92756 8.25462 -1.92731 8.25334C-1.92668 8.25025 -1.9252 8.24297 -1.92318 8.23355C-1.91926 8.21523 -1.91159 8.18062 -1.89993 8.13734L0.03125 8.65747ZM0.0361328 8.63599L1.95384 9.20378C1.94198 9.24385 1.92793 9.28304 1.91179 9.32125L0.0693359 8.54321L-1.77312 7.76517C-1.81468 7.86359 -1.85095 7.96475 -1.88158 8.0682L0.0361328 8.63599ZM0.0693359 8.54321L1.89696 9.35549L1.90868 9.32912L0.0810547 8.51685L-1.74657 7.70457L-1.75829 7.73094L0.0693359 8.54321ZM0.0810547 8.51685L1.89832 9.35204C1.88851 9.37338 1.88012 9.39058 1.87453 9.40184C1.86913 9.4127 1.86496 9.42081 1.8644 9.4219C1.86419 9.42231 1.86407 9.42254 1.86417 9.42235C1.86424 9.42222 1.86427 9.42217 1.86441 9.42189C1.86452 9.42168 1.86469 9.42135 1.86488 9.42098C1.86556 9.41965 1.86715 9.41656 1.86907 9.4128C1.87283 9.40543 1.87983 9.39164 1.88821 9.37441L0.0898438 8.49927L-1.70852 7.62413C-1.70157 7.60984 -1.69605 7.59897 -1.69378 7.59453C-1.69315 7.5933 -1.69266 7.59233 -1.69234 7.59171C-1.69218 7.5914 -1.69205 7.59115 -1.69197 7.59099C-1.69188 7.59083 -1.69183 7.59073 -1.69183 7.59072C-1.69135 7.58979 -1.69284 7.59268 -1.69361 7.59417C-1.69566 7.59817 -1.70132 7.6092 -1.70817 7.62299C-1.71522 7.63719 -1.72504 7.65734 -1.73621 7.68165L0.0810547 8.51685ZM0.0898438 8.49927L1.88687 9.37716C1.88182 9.3875 1.87441 9.4022 1.86466 9.42013L0.107422 8.46509L-1.64982 7.51004C-1.67178 7.55046 -1.69087 7.58798 -1.70718 7.62137L0.0898438 8.49927ZM0.107422 8.46509L1.83129 9.47913L1.87035 9.41272L0.146484 8.39868L-1.57738 7.38464L-1.61645 7.45105L0.107422 8.46509ZM0.146484 8.39868L1.81608 9.4998C1.79805 9.52714 1.78276 9.54881 1.77317 9.56219C1.76828 9.56902 1.76426 9.57453 1.76169 9.57803C1.75926 9.58135 1.75736 9.58392 1.75732 9.58397C1.75686 9.5846 1.7577 9.58346 1.75784 9.58327C1.75827 9.58268 1.75912 9.58154 1.76015 9.58013C1.76218 9.57738 1.76575 9.57251 1.77014 9.56646C1.77871 9.55462 1.79321 9.53434 1.81046 9.50873L0.151367 8.39185L-1.50772 7.27496C-1.49126 7.25051 -1.47757 7.23138 -1.46982 7.22067C-1.46584 7.21518 -1.46268 7.21089 -1.46107 7.2087C-1.45983 7.20701 -1.45832 7.20497 -1.45949 7.20654C-1.45994 7.20716 -1.46226 7.21029 -1.46511 7.21418C-1.46808 7.21825 -1.47251 7.22432 -1.47781 7.23172C-1.48822 7.24623 -1.50431 7.26906 -1.52311 7.29757L0.146484 8.39868ZM0.151367 8.39185L1.80878 9.51121C1.76967 9.56912 1.7367 9.60783 1.72268 9.62374L0.22168 8.302L-1.27932 6.98026C-1.34357 7.05322 -1.42426 7.15139 -1.50605 7.27248L0.151367 8.39185ZM0.22168 8.302L1.72333 9.62301C1.72469 9.62146 1.72272 9.62371 1.71935 9.62747C1.71579 9.63143 1.70942 9.63848 1.70103 9.64747L0.239258 8.28247L-1.22251 6.91747C-1.24993 6.94683 -1.2721 6.97205 -1.27997 6.981L0.22168 8.302ZM0.239258 8.28247L1.70074 9.64778C1.67565 9.67463 1.64027 9.70946 1.5938 9.74758L0.325195 8.20142L-0.943411 6.65525C-1.05085 6.7434 -1.14334 6.83272 -1.22222 6.91716L0.239258 8.28247ZM0.325195 8.20142L1.59299 9.74825C1.60724 9.73657 1.61969 9.72604 1.63004 9.71715C1.64036 9.70827 1.64908 9.7006 1.65568 9.69473C1.66221 9.68893 1.66744 9.68421 1.67039 9.68154C1.67189 9.68018 1.67311 9.67907 1.67374 9.6785C1.67406 9.67821 1.67433 9.67797 1.67443 9.67787C1.67459 9.67773 1.67452 9.6778 1.67446 9.67785C1.67437 9.67793 1.67159 9.68046 1.66798 9.68371C1.66418 9.68713 1.65821 9.69247 1.65079 9.69898C1.63626 9.71175 1.61272 9.73205 1.58277 9.75602L0.333008 8.19458L-0.916752 6.63314C-0.948056 6.65819 -0.972917 6.67962 -0.988749 6.69352C-0.996812 6.7006 -1.00343 6.70652 -1.00787 6.71052C-1.01213 6.71436 -1.01555 6.71747 -1.01628 6.71813C-1.01806 6.71975 -1.01586 6.71775 -1.01413 6.71618C-1.01182 6.71409 -1.00724 6.70995 -1.00135 6.70472C-0.989888 6.69453 -0.96924 6.67642 -0.942596 6.65458L0.325195 8.20142ZM0.333008 8.19458L1.5824 9.75632L11.5824 1.75632L10.333 0.19458L9.08362 -1.36716L-0.916382 6.63284L0.333008 8.19458ZM10.333 0.19458L11.4395 1.86063L11.5674 1.77567L10.4609 0.109619L9.35447 -1.55644L9.22654 -1.47147L10.333 0.19458Z" fill="#504339" mask="url(#path-1-inside-1_410_2308)"/>
</svg>
