<svg width="16" height="16" viewBox="0 0 16 16" fill="none" xmlns="http://www.w3.org/2000/svg">
<path d="M5.33341 6.66667H4.00008C3.64646 6.66667 3.30732 6.80714 3.05727 7.05719C2.80722 7.30724 2.66675 7.64638 2.66675 8V12.6667C2.66675 13.0203 2.80722 13.3594 3.05727 13.6095C3.30732 13.8595 3.64646 14 4.00008 14H12.0001C12.3537 14 12.6928 13.8595 12.9429 13.6095C13.1929 13.3594 13.3334 13.0203 13.3334 12.6667V8C13.3334 7.64638 13.1929 7.30724 12.9429 7.05719C12.6928 6.80714 12.3537 6.66667 12.0001 6.66667H10.6667M5.33341 6.66667V4.66667C5.33341 3.95942 5.61437 3.28115 6.11446 2.78105C6.61456 2.28095 7.29284 2 8.00008 2C8.70733 2 9.3856 2.28095 9.8857 2.78105C10.3858 3.28115 10.6667 3.95942 10.6667 4.66667V6.66667M5.33341 6.66667H10.6667M8.00008 9.33333V11.3333" stroke="#A39993" stroke-width="1.33333" stroke-linecap="round" stroke-linejoin="round"/>
</svg>
