<svg width="60" height="60" viewBox="0 0 60 60" fill="none" xmlns="http://www.w3.org/2000/svg">
<path d="M49.9999 50.0001L39.8749 39.8751M39.8749 39.8751C41.5 38.25 42.7891 36.3207 43.6686 34.1974C44.5481 32.0741 45.0008 29.7983 45.0008 27.5001C45.0008 25.2018 44.5481 22.9261 43.6686 20.8028C42.7891 18.6795 41.5 16.7502 39.8749 15.1251C38.2498 13.5 36.3205 12.2109 34.1972 11.3314C32.0739 10.4519 29.7982 9.99921 27.4999 9.99921C25.2017 9.99921 22.9259 10.4519 20.8026 11.3314C18.6793 12.2109 16.75 13.5 15.1249 15.1251C11.8429 18.4072 9.99902 22.8586 9.99902 27.5001C9.99902 32.1416 11.8429 36.593 15.1249 39.8751C18.407 43.1572 22.8584 45.001 27.4999 45.001C32.1414 45.001 36.5929 43.1572 39.8749 39.8751Z" stroke="#FF914D" stroke-width="5" stroke-linecap="round" stroke-linejoin="round"/>
</svg>
