<svg width="24" height="24" viewBox="0 0 24 24" fill="none" xmlns="http://www.w3.org/2000/svg">
<path d="M16 8.00019H8.00007C7.7879 8.00019 7.58442 8.08447 7.43439 8.2345C7.28436 8.38453 7.20008 8.58801 7.20008 8.80018C7.20008 9.01235 7.28436 9.21583 7.43439 9.36585C7.58442 9.51588 7.7879 9.60017 8.00007 9.60017H16C16.2121 9.60017 16.4156 9.51588 16.5656 9.36585C16.7157 9.21583 16.7999 9.01235 16.7999 8.80018C16.7999 8.58801 16.7157 8.38453 16.5656 8.2345C16.4156 8.08447 16.2121 8.00019 16 8.00019ZM16 11.2001H8.00007C7.7879 11.2001 7.58442 11.2844 7.43439 11.4345C7.28436 11.5845 7.20008 11.788 7.20008 12.0001C7.20008 12.2123 7.28436 12.4158 7.43439 12.5658C7.58442 12.7158 7.7879 12.8001 8.00007 12.8001H16C16.2121 12.8001 16.4156 12.7158 16.5656 12.5658C16.7157 12.4158 16.7999 12.2123 16.7999 12.0001C16.7999 11.788 16.7157 11.5845 16.5656 11.4345C16.4156 11.2844 16.2121 11.2001 16 11.2001ZM17.5999 4.00024H6.40009C5.76358 4.00024 5.15314 4.2531 4.70306 4.70318C4.25298 5.15326 4.00012 5.7637 4.00012 6.40021V14.4001C4.00012 15.0366 4.25298 15.6471 4.70306 16.0971C5.15314 16.5472 5.76358 16.8001 6.40009 16.8001H15.672L18.6319 19.768C18.7067 19.8422 18.7953 19.9008 18.8928 19.9406C18.9903 19.9805 19.0946 20.0006 19.1999 20C19.3049 20.0027 19.409 19.9808 19.5039 19.936C19.65 19.876 19.7751 19.7741 19.8633 19.6431C19.9516 19.5121 19.9991 19.358 19.9999 19.2V6.40021C19.9999 5.7637 19.747 5.15326 19.297 4.70318C18.8469 4.2531 18.2364 4.00024 17.5999 4.00024ZM18.3999 17.2721L16.5679 15.4321C16.4932 15.3579 16.4045 15.2993 16.3071 15.2595C16.2096 15.2197 16.1052 15.1995 16 15.2001H6.40009C6.18792 15.2001 5.98444 15.1158 5.83441 14.9658C5.68438 14.8158 5.6001 14.6123 5.6001 14.4001V6.40021C5.6001 6.18804 5.68438 5.98456 5.83441 5.83453C5.98444 5.68451 6.18792 5.60022 6.40009 5.60022H17.5999C17.8121 5.60022 18.0156 5.68451 18.1656 5.83453C18.3156 5.98456 18.3999 6.18804 18.3999 6.40021V17.2721Z" fill="#504339"/>
</svg>
