<svg width="60" height="60" viewBox="0 0 60 60" fill="none" xmlns="http://www.w3.org/2000/svg">
<path fill-rule="evenodd" clip-rule="evenodd" d="M10.0001 10.0001H40.0001C40.0001 10.6631 40.2635 11.299 40.7324 11.7678C41.2012 12.2367 41.8371 12.5001 42.5001 12.5001C43.1632 12.5001 43.7991 12.2367 44.2679 11.7678C44.7367 11.299 45.0001 10.6631 45.0001 10.0001H50.0001C51.3262 10.0001 52.598 10.5269 53.5357 11.4645C54.4733 12.4022 55.0001 13.674 55.0001 15.0001V45.0001C55.0001 46.3262 54.4733 47.5979 53.5357 48.5356C52.598 49.4733 51.3262 50.0001 50.0001 50.0001H45.0001C45.0001 49.337 44.7367 48.7011 44.2679 48.2323C43.7991 47.7635 43.1632 47.5001 42.5001 47.5001C41.8371 47.5001 41.2012 47.7635 40.7324 48.2323C40.2635 48.7011 40.0001 49.337 40.0001 50.0001H10.0001C8.67404 50.0001 7.40227 49.4733 6.46459 48.5356C5.52691 47.5979 5.00012 46.3262 5.00012 45.0001V15.0001C5.00012 13.674 5.52691 12.4022 6.46459 11.4645C7.40227 10.5269 8.67404 10.0001 10.0001 10.0001ZM45.0001 20.0026C45.0001 20.6656 44.7367 21.3015 44.2679 21.7703C43.7991 22.2392 43.1632 22.5026 42.5001 22.5026C41.8371 22.5026 41.2012 22.2392 40.7324 21.7703C40.2635 21.3015 40.0001 20.6656 40.0001 20.0026V20.0001C40.0001 19.337 40.2635 18.7012 40.7324 18.2323C41.2012 17.7635 41.8371 17.5001 42.5001 17.5001C43.1632 17.5001 43.7991 17.7635 44.2679 18.2323C44.7367 18.7012 45.0001 19.337 45.0001 20.0001V20.0026ZM42.5001 32.5026C43.1632 32.5026 43.7991 32.2392 44.2679 31.7703C44.7367 31.3015 45.0001 30.6656 45.0001 30.0026V30.0001C45.0001 29.337 44.7367 28.7012 44.2679 28.2323C43.7991 27.7635 43.1632 27.5001 42.5001 27.5001C41.8371 27.5001 41.2012 27.7635 40.7324 28.2323C40.2635 28.7012 40.0001 29.337 40.0001 30.0001V30.0026C40.0001 30.6656 40.2635 31.3015 40.7324 31.7703C41.2012 32.2392 41.8371 32.5026 42.5001 32.5026ZM45.0001 40.0026C45.0001 40.6656 44.7367 41.3015 44.2679 41.7703C43.7991 42.2392 43.1632 42.5026 42.5001 42.5026C41.8371 42.5026 41.2012 42.2392 40.7324 41.7703C40.2635 41.3015 40.0001 40.6656 40.0001 40.0026C40.0001 39.3395 40.2635 38.7012 40.7324 38.2323C41.2012 37.7635 41.8371 37.5001 42.5001 37.5001C43.1632 37.5001 43.7991 37.7635 44.2679 38.2323C44.7367 38.7012 45.0001 39.3395 45.0001 40.0026Z" fill="#FF914D"/>
</svg>
